<mxfile host="65bd71144e">
    <diagram id="xxp6V8KcND_DGGPEDrat" name="Page-1">
        <mxGraphModel dx="684" dy="1235" grid="1" gridSize="10" guides="1" tooltips="1" connect="1" arrows="1" fold="1" page="1" pageScale="1" pageWidth="1100" pageHeight="850" math="0" shadow="0">
            <root>
                <mxCell id="0"/>
                <mxCell id="1" parent="0"/>
                <mxCell id="2" value="" style="shape=stencil(7Vzbkh23DfyafWWRBK/PjvMfrrIcbUWRXLKcy98HyIpzZhpnmlGeXBW9yWtil0Pi0mgAfJEffnv/06/vXnL87cvnT39994/Xn7+8f5E/veT8+vH9u8+vX/RfL/Lji/zwy6fP7/7y+dPvH39+++9ff7KV9q+/ffq7/YZ/vsllCSImleO/3n6SYujzPz/585vAh9ePV4E0rwL6KxoVkHwVqCEWKpDHVaCFUfmW4C+MMCIRyGFcvyHHMBMVKO0qoJvMRCCFWa8CNVR2rClk2NIIkW0phnrdksRQ5F4gzdCuxyp6DOTi7BCvW5IacqcC6apL0kMjH516KNeLKzFEcnGmCNdvKDlkLvB1x4dACUKUT3Wzw19ooZB7UAGwhzJCYX+hhJ4uAjUGIeqtAmAPNa+/+VxAlrkcAhImF4B7qDUMot4pr993COhNc4EKW5qhsIvLaNMtLe16LpDWjg+BTL2GCtSrarRCTVQFwJG1xr8hhXg9pTb4xcUwYEszTHasMbTrsfYUGjPRiPfQ9e7ZKalAvArUpY53Al/t6xDoITEDiiGBwAiTHKseyXX90FMgmjFDv3qlkVfMu1lfr/Y5CvXEM8j1hEYNjTiAuY7jWK8HRK5goEcaI1RyA2OF47V+JhpvO9ryFLqfvr7uWF/offUVlo71jfq7juc/1WpInOqo0rq+0t+P++H61vG+5gyZ6E8LLeL6Soy4LhM/re9k/xU94+ROQsPH9XxS5FFW1vX8twKKjobbETN5RCKbL07L/s4nSn6/81l2Y+SEIobweUCfm/Vx4PpKLOw4vWN9Xz7vbj+wvqwTvlmfwSLz8nk36wtYjGJ+cr9xobiTB2JBIyL4HY16oIQhY2yCkvOIun+WUYR0Xa8RhmYg6zbPMY+BdwzbPS9wfmNggPU1zDN9k/V1x/oehOh/cUCl0HyorIzvBJ0K2X9dmPtYHykmqBiB6wiZ7L9hRK3HT27WT1hf6P47RkgF1Ex/NELC/tUjkd+vERhyCO6vjmz1lEIwf3t4s3OOQvRnLnx0rK88zYrr8w4BWS71TqC4vIydUDry7VPmx0CTYmnw0TI5Dk0Y5jUZ3eQD47olaese71IUuAbNjxlQVIHhMnBhaF0cT6GOgmev+foNhnaYQMNjNeNmp9QQfZs3Yx+tcBG2lCicSwOVL01+SgOTIOMV2MVNzMD13CqJlxYAYUuyXP4dm9OvEcHyWcbmyCIZTjQcY3PUZ4O2juWknq9vqBlcMXJ3HAJnyFwWVCjoleSMhzoMKRjDE03W1djndX2k+3k4uMd65iJrRGIpUhBeBWNmogxLdffFz6dOxICF+lON8HL9/TyEtLqojoe+0d8/MCIYG0JMpqu/BpMRCkp7Qf4m8U/oHcOgOoJCtqSoEnCgIUNiZApbM9DEdSWDzwUqui7L9hmycN5UDYlBx6F2CXGzrCj0HCuoHgOv3OmWpkPXGsoZ2pnulMpB4D8XUNsHErdyxkfjMAAkDSpcYADCi5Qmng1JkJppCqgZH2LaQnM0FUBQ29YmnwsMNCBF2QzwPGiPE4ynAs7HGMXKtjQRg2ki0onFWV4Pf6Gt0HsnAPbQeCpuAlfl65Hy+0ZNAAGaaRXEBK7Kp56KMdcmAFuqC2TdClxtWl0b1aWJ3HjnCYkJXLc0EuW85kSkOjKNh9OzuGWTYjgWRb3n5BcBxNrgmMfO1TGtLEibfjuqlRH8KoDcnXDdGAgk1Rky5DkHKpO6KsbmqkDLKECTyYHshQowdkE9GX5Dp1DA2DHHlzH+xQjljAIMPau/L25LTPv01JHU7fyU5MlHCxdAkrNzk8sY2fUYWJVPdROJ5rYSoTsBQCeTZ8TTldRUIDLlS445Lvyj0wJgZ6pzsyXHdU4uADdtTmBzSuD6DnW8EwD3rbiRocQnAnEx6LcC11My7MssLmEY1Zi1EQADUvzOKLTp6BgN1Jt7gCqEQgEGvucRoU5ggzWmmK8G/JNXHfwWGsOWOO+sAkDsWZrGjvVIUk+gj6X1KoCwsnIsHbGapZkpTYKmg8Z5ndudADgyy5WZgKNXFa2z3N6qCZBx8HqK2leEv9AWlH2eKo4njCmDZN21UakAa64xxn84AXJxmoCD8pVKPV9zVbZSKUqs3fXKVOpmjDV3W2L9PpaFTbcl8tGaGIJfKpVmHDLRpgsHiY9s+KQaTJckYhQt3N3nvkLgSYCB7yxYnig8TqfpDKjxzi5xH90pu9TcjrjBVadJHPEVhJT2AezW0E3akdKCm78CxkFnd6DcdGT9ttN6VqATjM+lUPfiqC5dz9LiihhG11N2D3NcW8/IOgS3up63pABE0vU0sVqE/+k8E4ubmHLrerYf1xKk+rBp8fFNgWT/AwsMZsH0PLEA2BeDdXdfgutZGlkxxyu8J+tohDvtfxIcLy4QNAofxRF6vMD7zB4ZiSmrvH9azxoKBFuOrEBK1hfHYBYKBKsj5wvFss2hCV7Q/tb11mjoDJIZvPXRVifAerIztieXQguLVqByW4rsjl3XjqIF1seloT5nFGBxVYYLM0KvrbhG9CK01VDNcDgBFpiq66MtQltZnoC6TENNc+msCbDmiwNgnQQYjdw8XMk0GnTBZNMEWGnIxwPe6j4K0vmF9/eP8eQeKBmZMI3ahTTXtrfBULM6kDY4CdYQK9fISbCGNcCaeKduQ4pqk2yqQP62dLZimXeXMFfXfb9JySs6Mkv6N9ziVfmMVmDgomIOb8QFY81cl4dRI/yUwPMZ+cKokYqApyea2fljNQKJbcnl8J1PEJjyuaa/jQAUMofsSnTY+M1ZgjkQZqhbYOnsdEVxo5SYAXn6f0N3DnQzO0L1e73gq8AfsF7AhkusXuC+4f+gXgCB3TwVs7jsWruFe++MXLsdA1M+wWMdvJlXBXxZkvLUxQ2MbAqfrl9iU1udDhnvqrcuAdrVhx3Ds6tAux7mXY27YL1gV0UveHG7On3BHr1dJ0BZ5eZDYNNrUNDNND7KMgt2rVm/BLM4L1B4davgrEDj+cMj3pzwEi30CMZpRWSM/JiCTSKa5NB2aXFAl08sqRMA7/2gum9dJXRLxm2xyk2NZvbRcRFaZwqECAzXVWK5KCuSeNIq0o8eR0RbAjJ4W3x9NlDMKkMFW4ElU0SmbiteDcim7YjyddcanxtlxnpDqs7IJtZ16IY3bLyHXJz5COhr7PSjW0cYmgplw5sscu4QyNTzqQUnCOzUB1THT3LFsKzwqtyN0ldmK2AMlD4sjp8XqhU2hd5hPUOs0l3rHW0DUrWHkUs+Yy4+8nD6M+N0BZ+VEFect0cgWH+7q16mTAseVgGA/nbe3WtTnaCjleJhO0I3BcCwZK6uHXjQ3EoFwBtZTzk7JYcwjBVlAoKsUuZtGDZ5Cf6uUc2w2YsrrNo4yOTK/6YsbEBkILwVoVyDzXuAsbWVRzwX6NjCKby7VwVgvlA4+EzN1dojrX+k5h6yyBTTJxcKjYtmTwN4dm8zh+8GRDY1qOQJx8H/gmC6VyZ1kyoQHX9IJ3sykteKwxiWTAkLV5UXZpLv0GmUJLLRuOtN18ExvZuz4IM9AzPclvkIAb6e0HgpuWMDncIHtn83/W70Pbmz5nqT83L9N+vxBYtKYWpzD1gMir+aI/X4+0YN6V6bRabroctmM+vcsPixmaXuOF2xmdXujuXhs+BOHzaz5m6IZjPL/v11hu+vM1zX/wFfZ3C/n2UfEW9scvohOgurHBs8mRGgYdVxoomPamJzzZh0mkow+Rv8ewUtWPN+pg/i+qdl8xoCvi6R6QRywZri4PNpnrXjr8kVF8E6haMOmNnrEizbXSPfx3qhmVDByZqeqMf1rzlwGFdx6KUN2qhRHaJpm9ciMDneNr+4Nm7GgbqI3XgRrrua9IZTchVmjrAGNgfVShGTqwlW4UN1yKRb1Z42x+HgYaQRPrmm9cKf90hu9tvasUkESL55glP1yb3gYu9RMAHPEG1zGTgl4QU+Ta9wcrfyJzKqy1oz9dOpIRSSSInD1FBTjVfiiTRw+w9ncCcArHUWOjyQOhJLGj7pllxLeeI1eP3f+OApL0erAGQEm/dLk+t23byQmlwz0eYN1uRq8ClSxje5toC0eXNyYtC3Z/pYqj7xph+Z8nMU4mEXRy3uqcNJW7qyGwfarsfC7+5J2Dy/6YMzkuKbI/Vd65tLy26wfqMW/8vjvzsB/cfjreFfXj98eHuq+Pz/8W1i/dHbu8by478B);lineShape=1;" parent="1" vertex="1">
                    <mxGeometry x="46.49578117689424" y="6.580636468215772" width="12.007657936171785" height="30.669390711045015" as="geometry"/>
                </mxCell>
                <mxCell id="3" value="" style="shape=stencil(7VzbjmU1Dv2aeo2SODc/A/MfSDTTpenpRk0zwN/jTJFdJ8vnrFCjkZAQb81hu3bi+LK87Own+erH99/+8O4pxx+/fP70r3c/P3/35f2TfP2U8/PH9+8+P3+xfz3JN0/y1fefPr/75+dPP3387uW/f/h2Pjn/9e9P/5l/4ZcXuZTDKFMqx19//0VCHv/95R8vAh+eP4JA3wVaiI0L5F1AQ+pUQGUTyClUviSNu0AJVfiSQKAvNTwS6PseJAXhS2q7lqSGyDfd9k3LWHp7KLDvoeRQ+R5+V+Il0ELie6htF9DQ+EnXuglUCTFygV1L1ZbE39DSLqCnPTTdBFo+LanvWmoltDf5Q+tB+Bt0V2vT0JlpmBJ3tfYcEnuDLCVeAiXkSgUyvKEFYcYnQUBg8E1LKHuYGZEHAVkefAmkMJhp2JL2kx4lDL7ptPv06Mul/mDU0MjPIYeyn4PaLweBXUtaQmF7MAfa/UEPB5fxpHXQuNRD3/ecYqQOJGEIvmCkx8/nlTyu52tQZhhLg9fzQkN3DAoasshN1hND2xU0xuF5OAEzOyXxIi4/ubFr5jlmYuBpFl7ofuNu1d2cm64/7uuxaMTSufv7Fh+VWFzE4NXi4bziHn8tJfC/nyAjmF8rez6/KalF9GHLmkKfhzxeOJ6KK/Zfz9sbCXYx7e1hTsxFyX4Tnq8BEYpcUJ9i+mRYKmSHjCKxt7RO54JeuuLwo+f3v28hSVhIDBHAY10Q4NHzu/4NO0YGo1Y0uAGnFFAgTEtjWeCjeLjbf6oUHTigaXmtE/24RJwSxZkF/SXxxG0wF9LwwngPHgesb95OTqvj6VYaPEfoAKo5ljNjBuPhqKaGAsqntj+DyW48lg2Ib5kyIPgfcq+rnA7PX2Dh9XkWO0VRn7Yh8nxxMDHS3GihVcE4QyO2We31EBxobLPUMCC4UV+sHYNDoc9bakv7+mvIxPibvR6SL11/a64SWAq47y0uWSiFk1YmKNhzomDDUH/eXzBRNdmxoX6wIPMhll5GRryU+kIg9wUEE8ykG8geTKB4uoHtQZbT3qQMumlX5s44xsJWwk1nXiJ2DRWycF6mdV+gu7RdaCiapgGhtNG83R0/YUCFFQKGOxWQjdLoYnU21DKFh99ZyYPAVaHdF0gI7i2iMbBVB6KVUla1f1+gOBanrhj4MORBSGo0RpaOLmq/MGu1FQNiNAGGkO2YgH4rg0YNs5xWUICpVRxlYqCd8USGQfGklaJwiQijpgBZ0nTI5JbEBAbSoLZplgzzcMln0HOYyUBRgKUfE0Br7RQLTnDWUYCB8RnnXPXEWJwJ7h1JySgTE9CMAiy2mlrR+Oo6+0cnjWqttEIzWyruDQxGWkXWBgow47MSEcL9fANZ0qxZXZgRFsgysmkmUMkeLPJhqKyLeXkUjIs7OAZOZn6AyrpTZsZSFpDF0x9YyhqLMLz1aY41sByJlGgdDa21JprjNCIHf6DU1RIUQNBLDfcF2gqMN4QLsyV1Oc7OPpNwr+pQLi8hTQCI1knas5o/eharUIn5CugLtNOaAPQ1S3JMoKMx9Qv73hcwB9uX1DPFDiq46c7BxqSr9z30trod983VRWNzERaNR1mWcAkoZXNnPbDbt2FfWtK4jGLomsUZU+IAAc6p27lCQ2dcJMVDWLk7xKveHpWJ0IkbY9Hs94Nrc3tQmkYtSACRoZylmiQo0OqZhr7iqAkzx0TUWnz3pNC6TBQDkwkwbkhcktNK6R4RRFize8KhAFSvJqAMbBQkWCwssM50lkU+3giwBJETmoZ2moI8gWx7YIT8ZMzdpikrpojWD+fgOXwTYNF7kuzwBvNp9oa0WuM3ApGdQ0ZINhMrPzigrkygMYGKWfE1dT8C35CBlDPVBo3xDYViuNnsK+4cmFo7hkoTYIHMBCDyHfqV2QEmPRQQ1Z1D50VQcZvuXEviuroHn87OgQ5VU1ozDTcCtKZxvLJpiUaNuIiSm4MbB4GMArSNEZFVM+Oj1Wtabcrb/MAEsssPwjvN4prlsmrB/5NAd6YhJ54CCjm9ZmjuCxQci7DEzqYcpGMBYQKMGZy1pZtyYOVucZHPwAmrLa1sgxb+bLGzYtT19AxgMTanFozeg88VWQUjALAq9TgrSFBAFuX0iLqH6G24lU0uWbUAvN3g9YOBf+gcGvZmnf/urNV+GYyLjw7dNzqYN9zoX68UJJrWZU8onWfRObIDAomyamabMNDSI69eEw5TNd7RNAGYOLGzH0wgu/qYp10TgB5ry/Qc1A3NtMj7pup4Cu6i5sFQi9ZOAdZwnFetNHoPN8lnXl4JdJjWD8OFstLkfYGKyLhe81j3BRKat0WqyvoJHcN9jYtGfhRm1DFSzLxN62WgAAMn1c1fTeL7bVSiUlbtDll54OLrHS6egcS/2f4l8Ha2n08f/ClsP4NwfwW234X7wpOiNIQ/pfCRnegao4VzMwUjn4E6Vk9PU4OD4yxcdZOthcOfWl3bMlFauiqCkzmtwtrHCZGADE4MFkwoBq4ZTWF5HwCW8Fm0NpDXEH5wPeLtDbkmgh+xoVDtmv0yF32dHF8C5lKMDbUsCjM/FkeYLfWG0CEX6tNTAEYIE8XetiSYLEhKCaleMRinTgcFusvTiQcBOzgo8ZPQcN+u5tglwOfhW3ZviHQ6whwIsLfSY6gNC8XBnxfkfjqdPK9uVKhxnOGKvkIVZN4Ot1WEZmhx92eEDl546koo1svuwAofpO3IaXKCJRWcHGm8qeZuVXWqH7NH6M9y5GnmiD6TlmPfr2Jwv4nj+YGhLnHKytAQOEw/PI+TaVff8r5HIoacJDPzYMQJufJiAev/ucK3jN5mfi+v4voNd7PRPVfLi9BKuyLFKNd47X2HR3+XTuvsgompHKZXcdhyjrOyhhUOlx7ArDhoqhQduBtRh5sO4kYH+E0KwXGJeVODIV/U/7wJQveLXX2lFEG5c5OFolgcKOm8E1Ycb5no33dl6SgcYGLdO0kSRifgyI1yaOZmb1Vo5a4Im2Z3h40LuMtojY8moj0f+oQVW/9aKMfUXM8iU5qsuS670rKpI9E3ePx03TKzB1ZaDixQDjcah2OM+djMcPbP72QOtM/Dpc+B8eFwq3TgnenDtdWB8fNwL3YgPjlcvB1YBRxu9irm08PVYUX7OdxNdmNRh8vPiiPbp1EwbKgdbropDs4f7odfaOGmpGcX0BUvRxxuuOuylhs8wAoGxXx9uKM/kN46fATAzQUdvjIwsDY/fMZgODzM8Ziz/8OHGAbivcOXHpy/vF5E/2P2//ptiUf5JePzrLuqeDN/XpdmN/uiuwnCrwcld/d3CrASxl1OPAtUtwe6pOQO4bDpjCj3oFX/SYXDsfkvJBzs4n/6xMhBwP7x+kWT758/fHj5IMrt/8cvoNhPL19PkW9+Aw==);lineShape=1;" parent="1" vertex="1">
                    <mxGeometry x="64.54747275748122" y="7.184216236530261" width="12.598759725164058" height="25.522058537997243" as="geometry"/>
                </mxCell>
                <mxCell id="4" value="" style="shape=stencil(rVrZchw3DPyafWWRBM9nx/kPV1mOVFEkl6xcfx8wG6yHzZmedVXe9gCGJI5GA5yLfPj2+OnrwyX6b+9vr78+/Pn0+f3xIj9dYnx6eXx4e3rXTxf5eJEPX17fHn55e/395fP1+9dPQ3J8+u31j/GEv656pTofh1b0f19/ESfh3x9+vso/P71s5fXvAvIpHcvn7iI+vxcin11ok3xyuRP54NIsn12SY/lUXZ7li5NI5MW1+bxqsEzkvUsZ5DuxjxT72+Sbq5XIq/nCJN9dIfsX71qf5IM3C+wq6PrRzwpqYhIRavD/NnxTiObzfYXo6nyEoDFEfBz0iDIrJBpEoboEWyoukkOH7PwcFfqIRtymR+xzWI9NsjOoH+a4iMFVf6zQLQ1v8uIyCbzm/HzkkQhkQ3WRr07IiW9pcstjb4Gyn5gY1xItkw7k6xynkk/kC8h3el6Vn/eTeFir/JwGigRC7K/ys39TpkCq5wV5bn+1xuyv1On+i/Nz/AykJFmpCTLvJ8vJ8/NsT0VuIcBVDZZv8s2Q7CCe44y7JVqlOsgXyOCihYPKd3h+MZQ5TOA5AUqzlN5XCK7MHqieZrxiSp5dXCOF6rDWJsXFE5iDFaoL7AwFgbR2FxjMNSezG1qgYR09lpsmdAWtHhkU9NAk8DRzAlTYQjN5ACGsULlCR2xpjeaCBCzKTWkSYwkJs6176jhpLlRUYCVT0RBCowdDwENiBEQkWsruKxTXBBUaqyDeavZNQSGJlQRBjOzJUHBfoSJoq0ImjisB86FrdDGUzBhLqsDOULrLARUKyWlNeXSclhayQlWCmVCB+UET0udFgUF3sQ1st0RyWmPTL1tiZ9DI6esKBL274tyqwMrDwqfGodkKWg0gWoutua+welorEFfoEEvVRco51a6LBisQukQDhWYpcqQgkNTdiMSRmUpEBUacdcfQXgw7sBUKMu2hwFbISzB1mhCqADWrcy6mqAIFYkQLc3WygrNRiHwFVKgWXvduqfAtrYculODumDVb03Sv406TGkMj0+Z5BJ/gGTxbYQ3vYvOGexPo1mj9QI5WnnIIA42OPHaARskyc/UKZfoIroBg2Y3h3AnHGzv8XxprjTjBgbUKdcqZduqcKhBP7FTSTpugnVrdaQ4NNrDgMUPLsswZzhSS1c2NQiUpUbz1nVu0ZJ1usYnfJsDZDC3HxQ88I1IzN23rIiO72eVFQZhCXPh3oVgm3fj8ndAkSwM+mCWfHCJaJuPLR6NDGIEo/2YJpI0ThkbkCtn4y6bpYMEXgz1v09YwOh06jpO1NWMraMcLXXs7aZEThkbTloANEiLit8ICm8yM+St0i4HS6eBtA5uunTHLhgPZWulsry7yiSZosVnqTV5o15QXec8BAJ08RjMksheyNGY/LBPQxQqCgQ01kMho38ja+2ADjNtsrNqw6UAeCnrOJ/JgH+2UWQB57KNzoPHjrUPdzCYLOa/HO5txK0NyzCNMJN5Ee5z4nMxuvUXjdjZM4t8vd2aVXlItFE8SJWDeouUmH+gcY7H/mJ4yzMJB4/dp+lE8z/s5ufRLLs75oisy+5flyqnT2tfMOzf5Yoz1CBCBCipqs6FKEKxkIfJhr/ZCcM2mKc94f0ObBs8xJWCQdrPyvrwgP2h0WDAuDOYTVDo/jw2HzycEJ+CFEB8iSUaLJsqtZdlPMgp2xNAgCYQzuoIX2ZHWjLyARKBUP6clCXiNbNaSmTy/1y2C/vV0oqAlEVoP3m6VavG+kSfxo/K1gTyLfy3pEfdDMaUhkfP0fmdQBrQPu1bQxgl6uROMWy6oAm3zdT9AdSPloaUhvY90AKTyCUCdzjdVfnlRhA021L+AP0I50A+/iHIqrx++v/Xy5en5+frSzPZ/fEtGf7q+YSMf/wE=);lineShape=1;" parent="1" vertex="1">
                    <mxGeometry x="82.12771288526864" y="7.242163850711677" width="16.42087231229859" height="21.85103819124309" as="geometry"/>
                </mxCell>
                <mxCell id="5" value="" style="shape=stencil(rVrJbhw3FPwaXQmyH9ez4/yHAcuREEUyZDnL36eYAVvD4nR1HOQmz7BMvq3eNnf24dvDp6/3d5v/9vb68uv9H4+f3x7u7Ke7bXt8frh/fXzDX3f28c4+fHl5vf/l9eX78+fLv79+6if7X7+9/N7/hz8vuLi5zXfU5v+6fLI5n//54OfL+afHZzofpvPR1SLPW5nOV5eSPB/n82FzuUpAijOgOL9pQJolDq56DagzIDvTT8o2Acy7pJWUZ6EtuhIloNAN1UUtQ53NHIMr2g41z4DomnaMNj8plvHIQ0CbAMlrtZrzs6WTaUvj69lwKbmshDYXthlQ3aafFOYn5TA+OQTMas1xPPIQMLtGhnsrtS5aKl7fAOebn1TwSdMUQDckzRnBpdnSBSSgDAfA7K01uKZkCKzWGjVrQCczjdUyiOcmwIrbZveuzTVhaVt4qQW3CS1txeUVIGIaTF1mLTXvgnDvAGee7VDBGsLSwUbI74As4yF4F+eIqyYNV5zNXFy3YZjbduOILk3aOYx4388XyQBwi1mlBfEnom0bvL6fh82EG5Xl/J5PjxQaKj+oKRvboPUdkF0VEiBbUjqsuFO53S7hlY2lY0d+UvciHQmJgrMOv7oda37kgatISAqwuTDf0FB3CEay5MIcOi1KGay5NPNFM51K8IA51hD+WZEk7EpqbZKGU+AaAHZQzp0iRw9YVdkhFSZ6hHMRT8p+IXrvmoifbFyLgQAUSWaUapSsiuS83DiVILsVRWFITbPzlTjKiNuAyCUuSCAJGSAi1wDNRUECCMgwqxVqUDRZ94L2qiwJwg5wtTC7BgofZemey2ZAaiPf3QYY8xK8y4SWEJAkQ8quCDu0NEL+CmBCrS0zewOwKUDhDA2AoplWbwCq0lJj1ki6jgGg0Q11lHOHACrTm6wnAcgLoIqIaztt7b7kB48caWl1viCyKOzANwRn6obkWmCA6q/gfHUBqEYA7l0LC60qk54+AqtVNWTIaLUyIGgAdXBwDVPeasytPQEooVG+LQEkXQONRWKAYj6EaFhI4CREzRhgIinC+awxIOuI2xYtnUQc5WkAVFIMfilbYTk10uhXkNRtzCyOAEb+7cdg538C5NEo7IC9MT1ypkhJbveWoxQUl1ZasTFawrq20uJJyLtU9CGzy/anjqR5Va0rGfA1TShQzqhJEdqFONsB1UQUXAkRCxXfmlyhRK5DN13DJWbjk2YdjhCo987SNdLifCcNBEKYyko0ECpG09KIwrtUokbxnalZN8lksfAQ8T0pHQ1+MvU0VZbGaFEoHt5T921AZNa4Yp6jxow6CLypCiF660ddUJEDgS1xqQteaEKIbRkKNtP9rl86OS8nP72jpqYGOUO4a+/Z56CuSecgrh0QcUH1NNw/gANMTSl5ilN0o1g4S4N11CS3cXWFFqsJIg5Lb9xZTwES16CQWNFkqMsUJEiK6WsSApisEOGoRMSd9QRNQkuFmuk05iJHQ41W+AY14zfjYKtB2gEA4qST7huMQWNWeFJSY5PIoVBMNtOWeIKI3rioJ6XR/v/LgToAFM4nI3tLPL466QU6gCpEvXboAKqj9WIDgDyr9WR10gF0g17OAFB+aP0DAG+k9IKpA2gjpVdYlngwc7Ik64DZNU7WcJaH5+wAvejrgB9aJQJAg8qTZaUtBeLJOrQDZqFPFq4A8BZBbnRxPs7erTfG/fxsZ72RxnleAJ/ZgHg1yPxvhVtKr6ukZejj5VQJTknFqteMV7lROqnBGoeyPh89M6p+D87TkkjLi6iNP6JPnKdqR9srLrN97Q//5RcQ+jz+eP+5xZfHp6fLrzWuv+efZ+Cjy0877OPf);lineShape=1;" parent="1" vertex="1">
                    <mxGeometry x="46.10988048250124" y="-15.604367084383512" width="12.603351299209283" height="17.38134709849336" as="geometry"/>
                </mxCell>
                <mxCell id="6" value="" style="shape=stencil(7ZvZkh01Eoafpm8V2pdrBt6DCMy4A2MTxjDD25OaDhWlX6e/xpczMXft48wqKdc/l3pK3/z6/vtf3j1F/+uXz59+evev5x++vH9K/3iK8fnj+3efn7/YX0/p26f0zY+fPr/75+dPv3384eXfv3w/KedfP3/6fT7h3y98Y7ieJlf0f7z8EpwP//nhuxf6D88f7/TdlbjRRxc70DdXw0afXKTnV1fqRp9dTEBfXNrPYz/QeZLrbaOvrlagjy7ljb4774Heu+43+uEy3LcPF8Yuf7808pjhEGgwDTRgqM6LhpOrAxiyK/sVQnGe3pCON1SX6A3Blb4z2K0KMHgXys7QXYc3tO7aruZojwA9tObyrmdzhASKblWPZJ6QwZJadmMXq7lCjcBg/72L1XyhgR7aYavmDCil4MLubLE5T0fyy/gvhr7E8JChmprkSAOttbZlm1e88GhL1QLGLqUUlv0+ZrgCxMUQXaE3ZA0xyTSTgcFC3G4ayRRHR4orJl4MxTV6Q3BxF2uqrkHUqH5F0YuhuQb+UC41XQwdA2Xph5TGilSPGdoKjFek9yu3PGaoLu+mkYPLYHylaJjJ5iEgpZLV+HJyAbJJSa7tms4Z02eJrndl6HSH4IYcqWD0Noawm0Y2uYHHFa+azm3Z70OGPDQ/GMMAKeW+bPNi6OgP9jwJZHZIT0eq6kBTDCAlE2LYL22aiWDepqa4K850H0CsZjlZgEl2gS5tUUjuUNCWzPprUwayJfMv0YO5VINLmwc3uXTDyGcxou/+YGGhgJQsCgkcs8BT6A1VE7uFNoreM5LuerDgSYHMYrUgUAvPAxRn2SDtYrWMEYkhLjh1MRS+g0ERYagr2j5m8Mu/Loa2MNprDP5goAwUr2xwMQwMlYYsRlOGQW9omuMMfTS4tCF5KU0M3xAii0Wt1RAU3uGIGsYwwEUNsGVhYMxnkFCy6ISN9IaoccmAKUE4g7V6JDMNkpJf0Pxi6BiMw1jI4mIYGPkMywvDxPvgD7Na2D3OKgqqQq0eKfsduoF1OlJRrNGveP6YIWtZZmVUAvOeRdiuuF6WwT9mMFOTO1TMD+EwDWPodOmgkc+KTYreVqqq4jpivqH4yspfyieHYVh5Tdjessl+gRGw6rvS340eIahLBz1F+rzw6e2+VJBlRemdy6sDlJiGqVuStcg1I6Vq7EiF5gVML2nH3IyK6Lxw483xK9Cb/M/IQuh5Wdct1pH8ixsSfSvmqLoC4d8MvtUFeX5BAFYXJr3Rk31WtTejp4KnagwyekqAlzRu9J4aDArLG3eSrCQ8z0Ndm4VRbvTUXTQMcsgzUWdLa6l2lZSv0MdD/tjMO+y5Yqbsy5tu9HT+pimjNUxKTbOepfoK9z31OxDeWP45Ej3bf5J8YeUwFfCqX4tXAe5bFAv1K0K+Qu93/7WcTV2UvGD9LT4PjJ/Sj5vxn2oVtX/LL1S6G4bZ84vlU/KXo1sxWP5XB/SiT1hVR4X4w/IRxJOo8XOUt+h3+x+V4bdWo+OKSK/l36L01Ngo6+03+o7xytfj+YiXyvF8qqaHNpdGQ3swhCiNGRNoI+AdtUw0hkTFQ9KQZSqmAsiAt96hrEbKa7VAPowO73CixIxWZOVJSMqAOPqIu/MN4GehaSA1BjIkK7HUkiyW0aX7ArY3BhpkTYasDDStCP2Bcwa+tJpGxWg9y8SmDJX1INX3NG8qRKsmnPFGiVUXvr2/gRnSwZD5SH4cYiWGoiB8cBtxMhweR1HSjhSCMlBanpc+XLRDHpliLcpATT7TtPS73nZRacHNN5Di2lG7ZozdoR16yNhWnw7UVKxUbT10URq7zjcctoQth66T4FG5C9K0nTvqm2L9Ooaq3dnREDObeccz6ZIesvMi1s4eF7XsGjxbm2lXbGlg9D76LEZfsA6RhvRcC8G6N8uGgPe4FpH1xm8xJO2EzBNRztXRhtGTlr12EE0FNEv0B/Jsqxf0Cr3Gl4rjIr/0eXd+sCGvnR9D2jSkOO8b2fWP+wacOASdsszOHiJ/sbjZOeTKQui5NXkgeau8Mg1A1Ok7p6ikuNYqTar0s3aKekRknnU4Pjvc2DmUQfRsoWOlrJ2rgU39op3A1vD5/++M/c93xtIh//+iztij55M99MOe2/KI1+Qv8uFBeNNtgdlJg/O0JY2bvw9axNJR54w/tId1xLeM5V990OkiLFqPCR7vVZ7n73jftuq2v9lJ68fkoqE9DN06m/mFIJxX7G0JBmtRv9oeNw3QLMJAog7jMpf4Udej5nSHR5YShOZ4hy6djylqwGU+w94qVo/rvOGwo8Yd0NCOkZCFJgI2XS17Zj5S3DhSTcUh4YnlGk+C41EONF4tmuhJGCKiy9lYFoaAGyoTr0j89dhEiOXY4xk4kY9VEWDt3MttOryp17LRawyyCj+XZojh2ni5GLieTl4dqPJ2ezqW+WrCMJOiTqhrRNNI6dh28tjBSkcpNze23ljAkhWvjlAt1VXpXQwNW16pHWtq177HY4ZjO7wU3FuYi3C7eZeM8DR7XQcpXJ/NVdahDATw5irrucFIuwLHmlq54shjhmPvuXjEALmoeeeBRWM+5oG5Y1WRm+7x5IYt4HxsJds7Gy+3Slc6FwyVczM1KAPNvIxBllRyxqUWU5MuGSecypajv2TGQs0TMzXpShsDrQuWI7Gb/VJ5Yf4l+SFzYi9HC9h8kCKfxYhzYZ0Qejm6oakh5J4r8bJDX1EP9cB8X7/Wz6OpGrXsSQnN29KHTNQtY+CnCYemE6/P/pUCLwaPlWGt+sVUHPwBx7FJOqs5qmWGZtFZftNagz8+pKm4ZzTRkRyp8Ic0UYOAQS6arE+EJ0eKOJpqRTGfwUYCJ61qyRrfWLbr2rM06IvbJUPzwxwwgJT6UQPNgRt1AeIaLl8MjMhm127PD1azYB+gqGnMvUwayde1cXYxBJxPW6EqQNdKQU9DfK/zhzeWMI81z4al8Uj6fB7sjqxbJhlb63MItZ8n8SelVXtbEXHMOD4p47Xw0XUQ57Hgm7OYIfQ4nBmr4LzRU6thKNLj0cmc9QSlJ/kMjdj8sY3RNz0PgbY5uVF6/KR36Jzf48rIOLZYPI+j/TGc8Zj45wv0AugAQ8OWx6j11d9gv0lvf/z1wfePzx8+vHwvfv9//UDcfnr5uDx9+yc=);lineShape=1;" parent="1" vertex="1">
                    <mxGeometry x="13.61119581506378" y="46.887044255383444" width="42.048210643980454" height="42.4866632011091" as="geometry"/>
                </mxCell>
                <mxCell id="7" value="" style="shape=stencil(7VvJbh03EPyadyXY3Hl2nP8wYDkSokiGLGf5+zQjcDSsnqmBbzn4Jssscemteplb/PDt/tPXu1vw315fnn+/++vh8+v9Lf5yC+Hh6f7u5eFVf7rFj7f44cvzy91vL8/fnz6//fvrp7Fy/PTH85/jL/z9hosu5gEK/p+3X3iX6n+/+PVt+ePD07K8p2V5cKWfL08urcuTk8CW97Ysz6608+XZpb4sry758+XFSVyWdxfIYYpr69lF6OGry+tpJDpP3qa5VNb1mf79Pi+3ra9OyOuId7GuAL2wEIC4AMIVDghO1h1UPyQRwPbfGyDTN5LkvKyAMnXkDIAK2lwjSqGP3sMCiN5ldmnVi1WN4vYMx4DqKuwQXWWv1FCTYnahEICqxmrEsdAd1MgjHKlRwakiyGqZsdNXUkBfXyn5aU/HAHUkAAj8SOq5VntIkZr/8F2rtqbkCgMkc6TsaiQANeBVcGlTljNAhTtU14gPGD4MdmiuEtVQQFm9TOquZAKoLq6XzjIf+gzQ1mfNgR9J1Xs10axRgelSd369Q84uEiegANyh8Et319dnzc15Igf1EWn1S5nbgwLaCihC1TsKSroEqksKKKuJljQjzDFA7Wt91lLmQ58ByqqtRWMeUQ31c36VQ2lTWc4AcT1S9S5wABCMKlTSAwA76CEvAEAy0oyrZ4AKO+QZAI4BCXlJrZQIKKCukq5tquMxIKM91O4aCbsaPvy6Q1MnwLRV7WtV7xam4zkG1GnyGyBxOVS8Q8tTWc4AfQ2KrVCuqiEwAKDxIzWMoq3zI7X5iBsD9a4wSTekcF2ob1UAkMQeuMUpYL1D3yj+KWB9pZ5mqD8FrLrUN8p1emkAFH6kap5VBceOpCbaEdB4QMHUoXGCtVH5/ZFYYJfpSTdA5cy4mR3K9OenzLigHChA44ORtJBn7a6uJq2qxOK68mL4+4GuL5htqDEEYp/Gr6q1sYQpzmRnZ86Z5sIQ3Yb5M8U2TrXzeOsinKdNEnGyvkZcn2lybv8+I9B5avBuPUtLMlIeXc/ef+No+/Xk71d0LOM85PxH/p0x24aZYWuUUJksTNezGNgP3odFZcPMx32JvolH366AynzKVrDYaWhluXBGRqgmxkxGbDCQGdfPMlUQgjqJyKi8sUoFdHJpVdMAwSDSS6scwE+oX4xsB3UjxvMGFp8ClknUt3vmiRJyHQU0zqagiKHhJhE5aPYORQwFVHIkTcaBpPbN3x8DitElpXxEvd8T2X3IJEfK0Ui6zIrXMSDPA+wExyx6ZI2CAM9CmkebHrrEapgBs+2+JSjHgIwZktpDZl5YnS7IQWYd5NgteYw7g9USSdejQEsBKgfj+QqRtCZQULlpldq05kOQPGuywIi25kPoW5XVkh1anLq5AwiLPkZwLfIjVQMI1BmPcAMBS2hBrJkySVNJEwNSzYEsbzw0C4kyH3GX2rJsW5UZEk+VfSRy6FvtdZ+eszskrIorgNKAjE5AAczNjHyoIoAR4eHnPAI8sen35GO/A7E4BXSzA+O2faPKOwBTPgV086wsUx0AqHpsxdAzQDEAVq5SgDcAZnH6SqgaZQbiM8EBBVVtZSWGEaCMenuuSyGYI3H1hopB5b0DNSCgDgpgLUMFoGrwTFUBxaoGv4M3AMYqFQAha6g3U42MAWUYENvB1N2vTLTO4tR+B2Zx7eBILB1T9Y7GRBM7Usf4MFwlY/feG8dU+K1NDjSUidvoDwJMm1UjCiPf3VBjjVksrRxUG6iA577S0hneYukJaz0a2WmQC9gba7w3NiojsEOiFqRkA+YGBv9h7CSjQTTuZ/TE+Kx1xvozSlZNPSAzWtkNS+QFn2oy8JHusow9GbbO2xM1mFImH7AoxkaH92SAilWf4QxZipJMqphp0VpTFCiLdx4gckfSpzbIInuu8wA7AAsQmvlB+3oQHOIE0laJ2QCd19ISTosMvsJ28HiHnfc8y9mD2YK545iQC4wQwFuImO/ygtGYoDGF9EB0IxRzh8q7y+q3QPsK7bEEwRpW53RdbI+Fuz7Jc6BkXzAiRi3xoCnDfOUo3MGlhdawKjJdXc8qIaa9p36MVdJ/VsZ/Vsb/z5VxMfNMqkBsbmD0tkwkpyNW0dRwuYmJ7QAKLRCJ6Yh3PkcjHSsZV4XrgNNGPdHKXig4eNMzLcmOPqkpXAfWchPT6+X5rQLw0hfdZMFxjKt+tZjm8EVHXJCoXvXcxXCFi66+GBp5MTdgAK3zoRVzpOFhLqgC7FBoCz2aCULNCBg7jx7loCkJDVIeubNmSUxww81AlnTRjOrGzXhKVMeoG+SSjU8QVpSD5hzMgIarN3WGxvhRRTmMeSa+Q4CcPtLgfAAQ6u0PjuR5j6/gcKmmQcxrKAC8t6ZB9EhmzrIUTmwz+iXNm9js+mg7wjAdJ4VKSsAeinDVSOhbMy++BzNsnTktUV4FOX0ufHw1muHSPCVzBoCCUub9MY1xOPoZaNhVAGQkWSZbOUswmpmopRYn6AQ0u6SSNqOfqdEuYvCYoqd6BYDuVcrUVSrXaKsupcRHCTo64xRp21EaqncKNGeQhtltEjpiJRVbRfFiuqHgpcdoGvHeCoCJqVg458s4RhzzlMwxIKHFxTg7NWe8FQoZkZcOJSLn07jKeq1KpSHhHukB0yUxH4FU2u6SbQZ4A/D5CVOVGAks0T0zlqkWyORsYu67tp+kbwk+xOFFD/Ndk/AGYsLopkJk6V7Ewbvx5Q9jJWZykD5PQPfFp8QNk8yzjnuyHProiQZmM7cS6F83DQxP45PHiOnpFI2psvNGgclqPf0cy+MAjacNJI8NWE9bkWIPw0KMYMmFFzdNPu75uCxOy3qajAeMj55/e4EezVPzi+ieOHv94S8uL5brD+8fd355eHx8+zZ0///4Maj+6u1D0vjxXw==);lineShape=1;" parent="1" vertex="1">
                    <mxGeometry x="71.61926195883558" y="46.897122722259155" width="14.352679598638503" height="46.6481814794016" as="geometry"/>
                </mxCell>
                <mxCell id="8" value="" style="shape=stencil(lVvJkt02EPuaubK4Nslzlv9wlSfxVBw75Tjb3wfMFDUi+ATFN8cRLLHZjUYv7yl99/uHd789P0X/+9cvn395/uvl/dcPT+n7pxhfPn14/vLyFX96Sj88pe9++vzl+ecvn//49P71v397N54cf/r185/jX/j7FeddagMU/T/zL3z87y9+fH3848un0+PBlUyPV7t+PLnYl8eD6+H68exsfTy61q4fN5fD8nh2XnxMc8mWx4vL6qjelbg8b6578Tw+Ni3Pt/kPPH6+uFhX4/hprseA6mw9AF7p0zVg3KVfAUleF+ydCAAbZQHIrtAZqgsKYGyk0FxTn9TnEQ+fwL0Ip0jBxdUr3k71GJBcojdkGQOpuLQeGp5UxaFTdWmNmlhdVmHTXVxvGmYI4tA5TKtPQPLSrDm6vh46RemtGbFZVkB2oQqAuUifBCsJb811GvEAVBfFxeU+P+AANOkaBZ6zugYM3cXFleDqyo7D0CJES5z/3gGA8xUBOCjrACSX1RmKC0R62WX1SebCenG5TDM8BtQNYK6IiyvN+ZW2cZVZHbq5TgBws3C+0qczHwAdD4a0tFoJd6+o0gK7BgBNfJJFTm1wliLuwZLzq2vAWZIIUTu4+gDgnxARZ3mSyglQFaAwa8Ads4g4ANqaH+COiioNKToxwETEWZ1HPAAmIw6A6hlQFQCuRjcNmlG+BG8tDGgigKw7o09q0qzVM92PCBGuAQB/UndFAQKzNyJEBVA9aOsEUNKhJr44hFQSzgdAI3kFNSNYo+Z5xBOgKrOWSSoHIM1E/BhgTGQIKa+stKkZAJQSqHVyxAHARwpvrZtoRUgFQWS1c34wHQ9141aEVBZvaN4ZvaHNdz4GBJY/AFRx0y0yVSKkkvqkOHnuBFCJvaWZMycAIVXUJ0HsrFZCSAXBfACQe48YFPHQCrM3YjAqs9r0zRPAxE0DQOUVYjCogqlyjgPA1KFBjOs9VB1ArXEJB4CSPwD0yABFxq1zBgItKObrnssBAFQV2sPmGibPAEBf8wNoIQgi63H65glgIh56msL5ADR5DwC0zgBTn5S5EQBAV28onONAPEqsA9BX1wDxqIjrxlYaTKXeUDmAWpAR1w+rnwAqpntj1xjUJiIOAFIzTZMAAMXzoZV0AIDKspEA9KEb0UyTxSsA1DcZ7i14qW8FRy2yTYSbJmU8tIGKh61TBCJTmg8Av5GxPEPhRggSiqp2RzyQOLm5h8Ll8dCZyvmMGyH1aPZdBhDddJh6/zKAMptVCd3hGmTWGzJu3P2pWs0AkMmX2vSuKwAzX5/65jGgu7jRjLzpzpoPrNHVGTZFNuSKUDPBb40+yA+l1vEKqsAhDlSvZXwTUV+9MxMTU5OSrG+NPmRiJSt36kNijeoiKmeUHmXDFQAqILouIBBBtkYQ8qTqMQ+eWSMIYZ41C2QCmA5qyKPVXbsudwEgtT6CUEUQtMMGaMpKifPum8df6R+K0Tf/vQLYDlCHjpsvHQ5/BaD6eDi8YuPIeXcQiRZ9obNZJfVF5vveZIOpby2sESEakCMDVDdnmHV7g4yHOI94AsiIi/Nez29QZk0syXqVfbsR8p4B7QawXZyMuLSZtcnGxnjDFkCqKdC3OdwbPV9aafPWG+frxoAbXyINd8pil860v0ID8hbUUjFFnsh13XcYAHpDm3OV/w+QFxFZbfSj235JTHSGquVJnNL5HEE3XPltgMRzmpEntbsaBUTR2iFPFXkCSO2QZwPqlKijSnKFuwJvMXVZvtIbopxx7OXrkDPKWyt3+iCY5BkqN4HbMWe8LF+pBG/6kxpXQa3KkcUgOpK6RSfqHYCrVGZtW1fgpvRrTALtpvTbCuRRgitvrVvz8abkqFsV1OSUffgSFWZ6hDd06Bpxo62m3TtTrZj0J5Wtog53HSYKUZSvsneSeeZneqrYCydqu5HGxmWWHSsZl32Hwp8kK2rbmi03RVDd2mrhlgTIl/Tgf+Qb6iUmLY0bm3UU+TdNr72BqkvFQGeo2qydUxYiTsrKoxdzjmnlGp0732Mmoe6hs+gDkalNgWGlzABZNR1l25kqv4mXxidp1uAWbdKVn7EOHWSszlC2e4ia7suDjqt0vsyD/xZ0Xzpx9x4AGaKb/Bl96RuhuzmfzKJhmzV1uRMyRhbUrWyzTfAY4FlKjwykZk196/TBu9T4q7E4qaanWZs4AUDteUGK8BSlyEM34yZZLXKkDQBbKcvREcQO7RcBoLo5AHCrPOkz5I35tG4dEUyuEWdevQJQn2K0ykWIIiBZ/gRZAyG+OD94KU4A8Jt0UIkd8UU7IaO3rqfsPMe/2dho27bDsYdyBaAzmO61IL74DCZlaN1Eopl0DXg/T9mLtlJh3WpZlsfwftLeAEgrJaZKS7LEH87cGKAWw2pk3WpRihM4M1WKFmSehm/aBlASbuw2bLs5SoYCEBsD1DgYvmm0GKYTCgCelqp0tx/OTG0KABTz2TbzK1Uvtxnnh7fFxseAwrxUTPKSba31UqQytm2JpBRZNME3eaPvZkEvctFUkgzRsXO18lKJeu8xcEMKANW2g6vxGYJUZHA16v4UL7sO8BzipdzlUlXZ1lRy00u3xtvSucp1IdwrAw62fQzIrCrHlq64h7JNXXKW3loO4XwAkoy4sc9KS7dxzqwfAzzTTEbRpFbEt83K1OV+0bA6ba03OfLLW18jmRyMjmXqbWtdLqHH2V09AEmuYmbPK+JJ/ygGNqEMlLw8dNr2KcYvUdQbCrdPo56y44j8hiITCo5Ic86Y5GwqNubWGKT8wRdT/RC61Boxs1gPTa7axMgzkWDSrGGbmYcsy+OwFeAhydIylLk3dgD00m2IUx0dPWPZeQye10+bJPvG4w3ddtx+IqK3QbZaJk/V8djpuEuk1+cDD9WCVPSep61BdjI8R0yQtOJ5EznIDUHPxYLuVnlWa1765bZd4mVl/uBxlfo8U7SXydszG/o7u/NRlQj03BjRPeeDiE+PC4/cykw98fzG32bePo4/vP0M9KeXjx9ff0V6/v/8s1H81etPTtMP/wI=);lineShape=1;" parent="1" vertex="1">
                    <mxGeometry x="85.1078971804555" y="41.87779460231877" width="79.0553414719166" height="36.527323325350935" as="geometry"/>
                </mxCell>
                <mxCell id="9" value="" style="shape=stencil(7VvJclw3DPyaubK4L2fH+Q9XWY5UcSSXLGf5+4CRyXlszGtGOeXgmz1izxAk1gZ4Ce++3n/4cnfx9uvL89Ovd388fHy5v4SfLt4/PN7fPT+8yL8u4f0lvPv09Hz3y/PTt8ePr///8qGv7P/67en3/g1/vuJcMKV0lLd/ff/Emeb++eTnV8Dnh0cAhBWQTA0c4FdAM5kDalwA3puQOKCtgGRy4YBVaN9M2GxpFToE4zZbsisgm7Y5pbwAojWlcUBaAdGkDWA91lhN4KcEW0puJ0N1KyCZwHUJLi5VEz0FtPXisuO/EI1dZcjyCQd4AFSTIwXE9R6K5/cQTV7toWTj+C/APRTRVg6odQFUbyIDJGNXba3J+MoB68XVaixTjWTcuqVmh1RnAL8eawsmsmNNw0dMQDaZyxBgS8U4Zg96S8VU5gTi+PMEVJMsV75VNVob+ntmDyhDM4kZkHjShoDKVGPa1/Te1g5tuY2wxts3IZpx7i17qsaFtwhdjFcys1MVvVntbXNtGV3GRi+y2j9XvGQifH80juxf9HR1ks2ZTExHbHPVOjHmSixHjH8NJOItMjmfNDzuXC9xhJyPWl8KjTtpuM+5fqYcJ+vDqqC5mUjlBQ+f07DTk/UJ1juqb/P0ZhQs1JmmEV/m+jA08Gw9pBbNFHpfoP8xb74fkqMY6P4zRhtJdSw5/zy0feZShYazPKLjXB9No+shXAZLk4piyrr+atEn/qqofDZSf4gZdh2fnHnctipED7csVnrl1P3wwadxBlwKz9MkZVl/II8zu72+mABXTDMc74wHAWg6LlcGLotHJMnuwYXKevL9osARqijjyY3FMnLKg7zMIzr8/kgj5DXvvp5/IvebGrrEStfnWf1cY/xQ8tuArMrMQGNYsZgKiU4zpy4+P0HaUalXl6w7rb8glxaZ2Tf0K3ILnmhRneXSBBRqlzUqT2dp5KgZU6fgafVeyygqJyDRYry2seMJqMP2bjsvh8caPbX9JjuGcFNoiSaFAPjfZKm2SroUASDKQoQWAJxSyiOGngHaKnS3KGLQTVVc2Y+S6hQAla+4AGIPAoAsM5eRl5wC1lPqNsguLg0fd8i76MUlTJRLol6jA9Z7KHU4wjNAgFTWURNtCckpsUEWa3tRCYAyyKTbgIqhRypfRruIAVUFYISC/Bnz68IvTgBK6LQBRDxWVr13wKqthacwAnCrPRRO4YlfKirpZyyKAFBb5VjZL1TUpTyzlDNn3FYDEhOl7j6oX/C8kJV7XYWWyoJxryIiljpuMAa347THWlAALLeVUiWrX7AsNfHqlOwg9W7nSlXJIABi01HxlgKo5OJCQzeTeTYT3NDNA4BVJL3kDAig/HFDolMCCpNBsqMYEMBS9GYycLV1xOHbpzooiiNVy0RGelrWe7IfN0L4oQhmd2BVEVyo3s0S8xDSWWRQLi9N2uBkPZA0KXLOFTN0yUkKCZ5+sJ+H9Y5YsqbWeWao6NO+nhbxEDg7CUHkLdhySbNFclI0Z3WeNAXDmJamRZx8fwPSJdMWUEULFn2jBQxWtLKeueqMjHq3F+YWTVb2FYlHCcjKpspbXkp/OAk3XexhPbcX3E+m/L7FhDlx0tFiBS/6w+pHxaGIfjJ5PWY4sp6dZxi15dG+6P2ivfhxI2fr81vWO4/Nie6AGK+f1Y4iTQ26SlQEZMbSaBtI1KdLsQsFRTd64uQk0iPVmqjXjao93gHsGqry62lEwtN8SAlN2fqiLD+NmuQsp4PMNyXqSnMelMARwNJMd8P5JhYMKrahBMCq2RqxKOrumuXWDbmXfm6s7IpIdCTehZJKMEEy7mlB0QqGnJyoi5HSMUNeWnkJr2scR3ndpquoSKn7po611ySswG7I7lQ72qinAGgtB544WhUaaqJ8/y1EpSZ0bUjOmtxzKYrqd/P0RTbQEv4C21Kv8aHqbzRhkPIU2ljyCXPH/RRX31cjZyOnDf9L9qUDYHaC8zsdABwVZ5C6DOuWNhxVBwBHxVkwOURgXzY8Wwe8icmrGfubG65QAB7ccaOUUweo4ojNTnQAxKDI2ZekGFXHZVBN7FhoHBXdBBkid2XVowzX7OCMzocoFwotwUrDlkSI1KbFlxYAOJokFtUK9pPLuA1QZUCfdmBND4t1j2SyrI4U7Qc303thZEui/fALrtLA2wkm6PRkanE98q823Ye22MBFRBbM8ZmuZLHD0HuyrAEYFI3Mq4eCP8CvLag5n0SbMPJ1ERJjegeiBJAiFp7aO2wIywGxcljzKS7Qdp5TBIBoBdM7V5AB63OpjGLLeKaez130Lvwqw3XU4DYgIDcaLJ8wC0ibBz6aInoMswWiWaza6KMCai6VHqvHe4iBJgHO4ZZi5nOpusPI51kEoPt/9OI0gE/k9C0pYp4NDAgAXFKfKWITGA5TpT60xH7BY2tYfD8dZPUodA9HfNzXrhdXHS2mBQCDUTVxDiqqRhUvgPSobNsI/WMI9DvgxxAo8rH/ryFQNQS3GW/W++Hz0xmzsM2Adh7dpYNp8qE/6O9sRsx1n53PsGfsN22G5DPy25sp/IIPCTZj/rpVy98RzJHGQ1XICtUyGLlDxOFDi3Cem6cWBbmnzVuOgkzS5rFIQWJ18xqlqPcx/LmL2s/mPU3BBHXzYKcM65vr+YsgNfG3eXKk7mvzpknVOJtHU2oQbPMqSw29bp59qfPfvCsrOETckzBGNmGvwPGMq6rxQEv9Z8P+r6xnkxMN7UXW00TCYhB2c2jmLAhjUboFVAWgW/Kq5uIyu4Dc1+ZQew0HW9rkyQHNbKMW/+k94wYg/7g+n/z08Pnz6+vL49/xuaV89PpUM7z/Gw==);lineShape=1;" parent="1" vertex="1">
                    <mxGeometry x="16.405556478889622" y="49.655788662894565" width="5.283830618035284" height="8.581623535273893" as="geometry"/>
                </mxCell>
                <mxCell id="10" value="" style="shape=stencil(7VlJchw3EHzNXCuwL2dZ/ociRJkM06SComzr98r2GK1Ggp0Tvvik23BYOUBtWQsu8d2X+w+f7y7BfXl9ef797q+Hj6/3l/jLJYSHp/u7l4dXfLrE95f47tPzy91vL89fnz5e//78YZPcPv3x/Of2C39fccFC2UDBfbt+kYLl+M83v17lHx+eDvLdXGL5Es7lfTRfGeCbAFRLeQZ4q+JGwVsPDIheAIpl0sFZFTpEb8kzwAkdYrE4Xyl2C+IE3JiUjs1CFYCyAGA3cUKGTQhQrAiz5mx9tlLM1gSgOPMLwAk/lGQ+zoBksQhAtTr7IUZr7hxQnfXCgCROqMUcXSlYy+eABqXJ0whHBYjWIwOccFyrw+oDENr4ibcByXKfAdlilzpUOsHfstK/Vh8AJG1LAhAstRmQxjdve7pbm83q8RMq+GATOgGsIRIIgDDng3fWVLRWK7NZu2WlQmUOaIMJz+SJKJGfIpAgH+Z0yyMUz+QzBZ7+/TbCco+KwSBn8mQfb0G7OM3yzrLO5cjyTtizerY/5NXvoxJGko9KHvxIhc26iJ/aR8n4ET+KHUEUjuyZRhl6G1D4Qh4mFhp0GJw8DHYUadyj1TlnApJCAcow4YHsguouGnMXqpQTJ3i3e/XQX6gy1btVqv5dMjbuRC1SLpLtoLWfzVSCVcGnsCvVZiRrF7nT/Qj9AUD0enFCa8zYW6XTwUTZgPjtqohEDibUIa+rTpuLeWuyENY2VNwTyA/KOcvQPJu1J6kDKKPMVkKwRMUxCycB0BXJd24XNoDI0S0QEgNkGSnc8vQqOxgAAvFSkc1tyVxqYVaVoziBmAyO66rPK4sfnD5hmRkQS0l4GsWKQgNtVtKOowQCwOlYcssJqgur+1h00CEKIquRSaDtXdMZoAT2Q1UlDnxPjouyqQKAJque9ZXCqJmHaFUVBWalIod8cMpKjh0HgGJveJp0ONSYs2CKno+Q3W3l3hM1JuoMSqR1GaPQacqRI9Ioe6cA0iFIRwDA1Odu9as07SG+JQs0boiRQVV3oFQgbgAQrpxyXodrXsoomgPV9O1+3QFJTt1bVZxDo+rdBOpumP2wVQARfKjsNIsVLwcZsAqxQM56RbRPXocOqwrqQ6hl2q8kOcsg1HiZgQZH9T+VHRezrOzbED1zJTrXrABuGHHvjdElKq4szBoYmCT1hbEc2YkJdVIl0M8h+n8ZojWH/Ryi9X0yy1ehLwiY+DRI+4N/aXObrags9uPfh3hTvJK4MCNjlIFARGW+EKb6oKZPN1Zxx12bUAFk2pdtnqog6AzarAOmetWNAEBJFpPeGzguzPHG7mMZAJKT3NgCbya2jboi08Z+AECubyKvYbd3DD1i0L5nA6jcX0oOAEqHstvkuPoQgLz0bCnKRjX7kY3HwqyfJfgtJo0B9m2AHxP5DsiyV4hl8UORpR91m9qXVGWN2uo2Kd2klcBBftkoqZkEGVwKAxRN+mVBBEAWOnTutSGv2s6ltcjOgroQt1OQ9+I+fjxmHe6jHm6W3RDkg4gKN/qag8uKuM9CSKneuA9NR1ugy9/npWSWTfnyigR5tYNxo3k9pJmqIssLDxI/C3k/qO0grwh73yMcmEjV5f/66nxbHh9+PHF/enh8vL6QH//PT+L46vqcHt9/Bw==);lineShape=1;" parent="1" vertex="1">
                    <mxGeometry x="23.146028660784964" y="51.50158030903356" width="6.675482359732822" height="4.034702020529856" as="geometry"/>
                </mxCell>
                <mxCell id="11" value="" style="shape=stencil(lVrbchQ3FPwav6okHV2fCfkPqjDBFYIpA7n8fVpxaVi1ZnrDm717ekfSuXUfzYO9+frx3ZfHh+i/fnt5/v3xr6f33z4+2C8PMT59/vj48vQNfz3Y2wd78+H55fG3l+fvn9+//v/l3bAcf/3x/Of4hb9fcd55P0DR//P6QW+u2X+f/Ppq/+np82Kf0mpvrkVlX9tqj1/w1/bBxb7Yt+JKv7aPzq/radFlad/yYl+bC8LeXKmrPT4p1/ZpfjvtS3cxXNtnl9f1lOx8vrYvLq/rKWF68NS+sr9ydaFd27f57WFvrop4aK6G1d67kq7tuwvrelKV8dZdjat9dqGK+PG8gRRdFQsCoK4Rl+5EKEJ0dYE1F0VIhOhs3bOl+RPnAHPeVkB0UTgtJM6aH345ByDsVrchEE0BiuvrHpCpTe2hzbCfAHzS1CltnsYiVWVBaWkEMBfEE8aK11yD75vw9CgWq6ebK2pFKIWrG1C7RGyP5F+Lb3JZuBnJnNcdI7TF+s27vm4YH6hal3m/XtaWdPzcjb04n1RcWnMTtUs4LAdnhfbbxPnkMn/uKEbOxH5z4yyouvZ6DiBkmciBgnhc/TsCTmwAtZ+K1ygFIi1L5VqEpFHFC90oraUl1Bm05/0juLTuOeoCj/5oFKTmknoCNk2AMpvWOaDMUz8A3WURR2jxaY0L1FPVxJtnxyE1ZBfcTgk9QXUdsJSyAlLQS7KtTSWXRPC1xMwr3en8malF6pJ6gZlR8CFhu8j/tjURkAvVE9rWRMBeksiH1jmWkLNZ+aG7TnxKZxzoa1+PFUmbxaY7us66ByRtFo4DoaZorX4SiHNAYn5RowyNnmdsHoAsC30vzCKRg13EUq/OiGZ36WkAyppxyJCoeGFjjoT49WrTjatGQz6oJwSmtkOK6NCItKQk+yGCr9Gm8UzRgACwwMca1BMOMXfjuCg8DUCg4DPZE3GIZX0CWkxXOV22BEKwqLpUWKIi46La9K7BouRVOHXiScVL6lkrZ1w5OsZVF6XqnbtmAnWq2FuA5hoxMqCL8Ab5sbbtQXg67+zWy7aL9uEJEGSKjo4WGCCfAL7ZGKCOFW2chBJCQ1U+UGjedJQ5DQpvO0CJgE1kYA9dqZLAKmCckugPY2ZD+eBl9YYUI2UFgNSfndkMgi8rOdm5CCAcVeUbc6TKAK/mPGHjGlUPhozFBgCm/JCmm24Aag4AWmuVAapPQ46UbQ8yNBpTuCFxVLT2TTF1F5UfNkDRmm9fEgBVndK2aYS3qVPajrUclOt/Om6kqALYyRO6WtIWfAAUpey38AZAkfU9gUYxFn44TVElXvciAIAqlXuZGS3mpwoZwluJpr1UjhRVfkjc40aKqvD+WcDoD1uKSkDeMg4AsWn0uLo9wStA2gBFilf0aZpBA6BmrDltsZTlTGDUiMoANQEFwzPPADUqAukkonsHULc+DUAQRQBMOzYGqFELFDtNx8Z8Sin2xhpo9AcRS1AoaUtRNQGFtMwbwZIqK23V22R4Q1rSkoYrFaDMQzwATVJpAOhYQa5VPgxpuToOvpdPaLMrH4AqBUfvUyLdyDKlgQDY1W5Sw3G/3dNB5XQlRjsXJii1KvgPjqmSetUcru2baDKY8DVNpCDZlaAGgGIDOSWlYmN93LzeQ+X4hquLytGyCep8b6rGF44mLxzhV3JcvbMH2wREm0PeK0AgiVJkQozgJLKhL0HbocJuFYcaw4UTaiynCJ4HrjnJIVndBn05TsJ/BeAn+Hl3eTVlpkFfqvISDqHWCaBHWGPwTTNgfS+I2KQUtT7r81VXjDTHLnq0HrlWmmmA5xYECpXUJKQx2RjXYCK8yzGlOwBJXpOVNOXzAYiyo0AuUJMDWVYj3Xy0gwNQ9aylTo10AJJUHNm4yQWtmkD6SO42OURAaPLIS3asFHg0k/Rkpux3oao3jDAzXo+ICgs8FNR3d+ZZnIwXBZSa6TzyDlF26PGqBd2QZ9ndxrsf9IQma15MXPPG6zUKYHw7OASRvlLn1wKqVveeaTcco6bw2CK9gGNHgzwH1KldDkCT11ihcDan4573HLBflJmcRSF3ac6PbFIlLBgfa2ozna4A1NKzvmke76RQOzT5bgDKCYXGnau4sCXQ0BpKCZy8CaU0YpvpeNh3WQEqs08QMRVIlS+Y0OBVRS1cIEGbVIXZLuEGtxTryXzb2vXV5nb/203e9CduzNBBqn4lThtIDsWEE9/ldu2v7bqhHyOsC3tiIr3LN8siT9BgrzhqZD54I8rOM4DHjOMBKsV49jTsBVnzTB9hX4UDNuYFezUR93yj1LtsBp5V8AgIcT4//+rpPXv88eM91w9Pnz69viZ7+z2/F4uPXt+ptbf/Ag==);lineShape=1;" parent="1" vertex="1">
                    <mxGeometry x="33.01863545864117" y="46.84334597752468" width="5.420348232775156" height="10.751001106356266" as="geometry"/>
                </mxCell>
                <mxCell id="14" value="" style="shape=stencil(nVfLctswDPwaXTHgE+Q5Tf8jM3FqT90447ivvy9UlbYJyau4MzkoMlYAuFgAHMLD+/bpbTN4fj8dD183P3fPp+0QPg3e7163m+PupE9DeBzCw8vhuPlyPHx/fZ7+f3saLcenb4cf4xd+TTgXSCHjH/+e3gQK7u+Lz5P9fvdq7ENn75gqAniS2gE8N5e3PHDsAUK8AuA+hdQ+8cGQYiARCMipAyRPEYU0A2Rub24BiusBhRzKIZDreZNICXkIVPqQpDafy4BMpT/Wom9A0j6S63OoyjQIKRTKbAEFAJIjMSFVSuU2IEfKzuYQ+TagBIo9QApFUBolkfR6EMGAQin3gEwVhFSdPSXBPFQthGhD+ifaZYDqS2zSXAGgNMlf1VJAIWmp9YorTAKIWwB47EFD6vWgVEIPmnTpAdo1gB7qWV9XgAKYHokzIWXyIKSxNGQGQNWqxRdtSBkwPZa3CUkVAtpMcVSiPVbEgwKcIc7BNqM/JyNRxqc0695arQUBoq0l1YNkAJDWVK4AaKBo20rGQ25BLgPCTNMrHrQQ7spB9RDuOiVVXJYZD2goMtu5u0K1ughGQXjZUI2K0WiE9X03YKy+XhDVwxx0opipODYSNLMS1V5BSo3gqeh7Iq5OennwOgrBuiiomlqjO9tHqoBqT9x//zLEFu2ZnLHXBLC9GSd4l2HbxVaWJbZ6XtnGZvYr657G01O8sk+y3aFXFla2PXVlI57Fs7Jyz4S8stOzrR8sY3Xem/vW8m+Yi6l/2Omc7Vs6gZBY2sxu5tyG7qJ5tGI8c7Gs9raZXcyRcsVum9hcd5x8RzDKYrD2KFfn7GqKj1IvLdHaQ6ZCq9qPFcL/3E2xvT5cLsIvu/1+ukdf/24vzvpqunSHxz8=);lineShape=1;" parent="1" vertex="1">
                    <mxGeometry x="50.448320910527286" y="-24.6810210416711" width="2.2406989572409577" height="4.433107484573295" as="geometry"/>
                </mxCell>
                <mxCell id="15" value="" style="shape=stencil(fZbdcgIhDIWfZm8zQAg/17Z9j85U606tdqz9e/tmZ0c0uJ47xP0I5JwEBl59bp8/1kNwn6fj4W39M76ctgM/DCGM++36OJ50NPDjwKvN4bh+PR6+9i/z74/n6ctp9H74nlb4nbmSKZeJCu5vngmZ6jzzNAO7cX8FVKEsBuBKrgKg9oAE8gkCbLeUhEoEQKSUDZDLeWYRKIl8MEDRmHwfyBrBG6Amyu4+kDxxMoB3jhwgYu7TVAsVkFcWCs4CTBEoF4RctKeOxHIf8IXYpikHikAIf+MNUW94AGSSaoAoFIE3AlOyeWU+p2E5S9yfQZcQILVuQOwZdJNoS9Ls3wA5u2XZTIHECqeJ9kDpSaauRiNVcAY1QhdBzeLBli5WazpkSsBLV25uRaqWRyFawTQzRRIQYirJzq5atkBqLfouwqUxLBepthWb10vrWZY6UOAeyKCCtDV625mm9gmUC4Wc3VLJMMIE1BsA2FW9JraVlQB7n3c9oMKhCLEvIM1zBPZ25/umNQ1tVEC2G+fFCC8g398O2hNQuQlVu752DBfA+q0ptnqO5JFmeuIuo9DY7KjY71UxdJV4EntifPWorW++R/dC4t7V3DlIB5cHx2bc7eb3yvX//QNFp+bHDT/+Aw==);lineShape=1;" parent="1" vertex="1">
                    <mxGeometry x="50.5330134010606" y="-28.111685960049954" width="0.39597794678936715" height="0.39535900138616853" as="geometry"/>
                </mxCell>
                <mxCell id="22" value="" style="shape=stencil(7VnLchQ5EPyauSoklVSSziz8BxGY9QTGJoxhl7+ntBMat1I92eHLnrjNo7Jb9cp66CTvvt9//HZ3iv77y/PTl7t/zp9e7k/y1ynG8+P93fP5xT6d5P1J3n1+er77+/npx+Ony/dvH7tk//T16Wd/wr8XnFRXSkdF/+vyS3A+/vfDh4v8w/lxI5+8Ez/JZxeFyNvjdH5+cJkDpM0AdYWdKLgyvyFG1xIFtDAD2iFgfoMUF5UD6gRIyUl4CyB7V/KbAOrk4Eizn9UPrfYB0QUAJJfZkaLLs1m1DFfeAlR4Q3NaCEBcmkOjCDeruDIfqVgsMU+bDrNZS6VWEnF5TodisUSsFNVVOJLFUiUAs9IcfCU5T3QIbdjkCrAcJG8IefFDdYm9wUJDZoA6728DiquzkVSozuI0Yawq8YLpl+dkaMPxu/LGYYLykVCMH9pd5atTcn6TbygfiEE9Rl0uTsn5g0sZ5dnz47Dehiwou7gQUT4R++fxtC0Z0XhIBeUZnzYXlvMLOX/wI8s3gEyYpUe0R0AjGgRxYXGZkLIWEtrIYlpIzFnV87MTNI5Ctw8orsxRp9wLPQ2AWfx4xD7A6BTYMVM6NUdDIlc/qGA/8cMo9VdApo6T7NqcyrW5SlLT+pc469CshrCikzA5W6Y6pIaVtvHQsMgBemmc4TU4BYA1TURpCwQFK9VBUfsJGrBKVTMDCT6rqzqHdzVSJkq//r2pg5noUBc/WB1MxA/Vqs4cfKYVy4dmsQkJVGjZMasnQQCrIy0ON21StBIis9gEs3ZXMh0yEpkBMgMomrUDSPBZMLeEAEYCraGnzUqembUhexsgsQbGLwVaC+3o+yvWlodU3K5EQ0Al8d3qQt/XKnbLEVoRwDp6c3X0CEgs+mSxa6MlyMIV+gwDsE6yJ0RFKxVmJY+jmAEiIaaeo8uQUZkOYbFS4WaNi+OUjgBmVnyD0jHG2F3XHGU66BJ8OmatWzmKo5hyJjM3LUc6SKCcF7MyTy9V0QCFxVIbDdg2NDhtvBGQx6R2LRDWBrLgWyZc63/Y/GlVFhumSmfoXuSgYbJwJLFk/ZQHQB6u3C/UGdcr1jCxXrp4HB7MDI1Eq2ZsNrqhiQ7WCMfZDxaOrFBnwYHVfF/ZLsPGo9lxm5Jxa12SljNV1oiW0UVuuj72BjHamM9kvBDJG2Jd7OpHe32rXW/QTPOBIDRkssp3dTbUAN+Xg24DHWctWSYZl5eaWGgRjUv9sQaKxOqfxcHh4mAZ7P8sDv7fxYHghJsPuuG6E6SNbxgD9IWRZkFUdINxPjtSXIt/HZx/ixwhcYwoWKCKjtZ3Mx1GBmi4aeh7WM7XAZbPSkdiWRx3sK2WtPRUfB9uAOye+cZdMlbag52+AdKyiaX78Iwj8cG9RAcAZXi65pKlgel3K4SDO2DWod/e8J1SnAE9fvmRYMLtN1DMD2mQyrUf0TGQ3gIAsYZAC1vvLoDI6MQgAVM68FjdkWfrHpOHSn7g5YiV0PPzx5Epr/KskJh9kgd5yi9p3HK+ylN9M3acvN/se0zUlz5fx9S7OT+TL8gtns7ZUrEmeNrYSV2fzxqFt147H8vbh9c77s/nh4fLFfn2f7wTt58u9+ny/jc=);lineShape=1;" parent="1" vertex="1">
                    <mxGeometry x="15.359517514319364" y="37.788166160787455" width="3.2622306444576776" height="10.266433354150278" as="geometry"/>
                </mxCell>
                <mxCell id="23" value="" style="shape=stencil(lVbLctswDPwaXTEkQPBxTtP/yEycWlPXzjhOH39fqKoSE7I2k5ssYwUudgFikLuX/cPzbuDwcjmfvu9+jY+X/SBfBubxuN+dx4s9DXI/yN3T6bz7dj69Hh/n388PU+T09OP0c/rC7xlXmFqbUBz+/H9Dqfx78XWOP4zH63ilJl08K6W2DaiBcg+QTCwAkKiVDpAyaQaARiF3AM1UwjagiQfkTJK2ATEECqFDtEgBsG6VYp/CklYEYBLtAZkSA9ZCsfaASgmwLpEy94BGGbDWSrUX4qoONxEmFBefIoEUohTFkwjAHJy9m5oZEhyJjfVKCAZCcKDiMgRKwH4s1FIHqIUKUE4CtV7qqtB+ybzmMggp4KDmDQfgpW43AVn9FDCAVmCmSrw6ElK6Vu8+Ix0jaIhMgX1ZE+AwubnnYMJFcCQDsFOal9FzG5BWGXRhdZu0DS7X1IUqANh09W5tJACQZTVnGjUgnAaSFaCAsooJ50Zfhdbgtuh6NckyKCszVTfJEjHq6UDqxkykBLz0aUC0Du7tnQspOFJUb281pRHA2qUnnQplBYDoLwgpcGpU39I2OxXIsLriKjxPWG6ntwrBO5f9kExUweHLIs8b2cXnW9V0AkcqyHLRbwBhEXzL00ldPBot1jTs4z+4OF15rE1BU6out+Q73wi+n9nfIEwMenhye3H1R2623YJ7sylc2T69dX4Ybw/vK+7TeDjMG/L1/34ltlfzOi33fwE=);lineShape=1;" parent="1" vertex="1">
                    <mxGeometry x="17.03136718917287" y="33.39647568088003" width="0.4841730609700789" height="2.1960045126366294" as="geometry"/>
                </mxCell>
                <mxCell id="24" value="" style="shape=stencil(fZbdcgIhDIWfZm8zQAg/17Z9j85U606tdqz9e/tmZ0c0uJ47xP0I5JwEBl59bp8/1kNwn6fj4W39M76ctgM/DCGM++36OJ50NPDjwKvN4bh+PR6+9i/z74/n6ctp9H74nlb4nbmSKZeJCu5vngmZ6jzzNAO7cX8FVKEsBuBKrgKg9oAE8gkCbLeUhEoEQKSUDZDLeWYRKIl8MEDRmHwfyBrBG6Amyu4+kDxxMoB3jhwgYu7TVAsVkFcWCs4CTBEoF4RctKeOxHIf8IXYpikHikAIf+MNUW94AGSSaoAoFIE3AlOyeWU+p2E5S9yfQZcQILVuQOwZdJNoS9Ls3wA5u2XZTIHECqeJ9kDpSaauRiNVcAY1QhdBzeLBli5WazpkSsBLV25uRaqWRyFawTQzRRIQYirJzq5atkBqLfouwqUxLBepthWb10vrWZY6UOAeyKCCtDV625mm9gmUC4Wc3VLJMMIE1BsA2FW9JraVlQB7n3c9oMKhCLEvIM1zBPZ25/umNQ1tVEC2G+fFCC8g398O2hNQuQlVu752DBfA+q0ptnqO5JFmeuIuo9DY7KjY71UxdJV4EntifPWorW++R/dC4t7V3DlIB5cHx2bc7eb3yvX//QNFp+bHDT/+Aw==);lineShape=1;" parent="1" vertex="1">
                    <mxGeometry x="17.144540666189044" y="30.34741945076837" width="0.39597794678936715" height="0.39535900138616853" as="geometry"/>
                </mxCell>
                <mxCell id="25" value="" style="shape=stencil(7VnLchw3EPuavbL4fpwd5z9cZTnaiiK5ZDmJ/95g1hwNwRmofMnJN3m9WLKbYAPdvIR3X+4/fL67ePvl5fnpz7t/rh9f7i/ht4v318f7u+frC/66hPeX8O7T0/PdH89PXx8/3v79+UP/Zv/rr6e/+y/8e8O5ZFrpKG+//fjEWPffB7/fvv9wfdx93wfj5u9XU7L4fjG5zr8fTQ7ngOCNnxfAjpwVgGyamwHVRBFCdKbZCYCfcEkAirF5AsRobD0HJGeynwD4pIigUzJpzlKqpoq0pmb8DMjJOAHI3tQ5rcXKc8h5ZH0DJBNE0LkZF2dAM0GcQ9lyslHJyyyVYMocdE0mi4PDjuu8pVoHfY8BzeQ5Sw10bOcA7NjO5GtpEP4M4GdqNNwQvYKbs9Sq8SKtFeRzDCgKYPmKtia5hCxFx4CkDq4MMu8AVdzpAvJ5BjS1pTiotpUZa41VS3iTliCaoqtlMgFQxAq4EKExIIijzjjYxCfX1JUrJjYGJBEDAHRHwb4mtoQ6E+cq0PLg4zEgsj60YFIUxbWOMrQBrCwbEZVszlLN8gahulcqG34owDEAEjhvqVcyJXLJxJnfILAXhckjxJnfqG0/JOMQAJmmk0b1TGIFUGneUWejWgBUmrMKvhfBPe/Hse71QdRWj1MiQanGqnNzHAMqVRVb6jI+J6mGseaZE6DqXbP0GskaP8dQm1QgyHjzDKgCkOMo7hsAxVMcHI6JAdqcgGlUZaAYRakoNkDcK9Iv4ZgCnbSXK3QVnQEohYpLAMQ5rbA/Kuh+4+ey1BOtAJGLd0YdU1vKrCcAWFEpQQQSdng0pdPNLTF4Sb4W2WBlL8kHMSDZRQzK/kBu6pKlJoLuup/5HJSIdlFeTlpJHACWspR1DGU5aXQUKktpWaEMOh4DvAmJAergQA3mUpHyAPKRNwEgCNWtkVUXQVfFVvR9jgFOrYArSltKIw1ngEznEKVzwJYqxYAGQVnpZEpkgFOAyma9X1HFJQjKAsgiBpgjPjgv+2nYr1CXGBT56gHgjRvH1IgmCmrsnPbuqL2I+ucR2BQJL/yMqq79VpMlC7J9RWL94mdUj4LqmmiFKu9cLwNkHqxsanoZIAMUhks7KwPUmIHyqoGoG9l2DbLs5JYb0bQn62WF+oEo29c+KXEMUC1KWOwJEq2scfDjmHYxqELjFy7VzV6feWOSlF56BJfgvi0NKvyI6hjghinctShN2JM8crjrUBT3AhssdNjK860XGuQVZQk2YVEHtX9XTVllXbUbZaj+bkdKpfvgcSZeH1CJFUA86k+QIxUzOlcKuujZT2yLt3ejDp7NEcleQejVHBFq42kGV2WfCF9BMzhonjLSqKIk6/BPSuF+Tcg2p/zGhCww4NeE7P+fkAFQKUt5EPhUEWmkFsb7wtlIICx3VLnQ3niS0dBePbtlpBakHct2TG528qOmFGl5BnqdzZ/NEXmk5vSbi126gSQb9v6qM8fQH1XUM9DSAiUvNTFsXmoAou5oQuA7GvIoVcciV7l8e/1uBN2lO+2dXAG6S2x1SUqQi6MybvQeJ3liTDK/P6o3oGwSbWcMqM9+nYre6N2PKxhfHCulqoze7vXrUbltrkVWusjGoVo5LnWW+zYrX3JhIQtvR8mB8zyJsTKXLgw92oUrSgSIQ0XI6rYz8e2y2mP/5Ev329/HH6/P6p+uDw+3V/n9//MzPD66PeGH998B);lineShape=1;" parent="1" vertex="1">
                    <mxGeometry x="33.093454911306566" y="37.437276076585135" width="2.4886709888948326" height="8.701727850179156" as="geometry"/>
                </mxCell>
                <mxCell id="26" value="" style="shape=stencil(nVfZctswDPwavWJIgOdzmv5HZuLUnrp2xnF6/H2hauiEYLR2+iZTXOPYXZCa5O5l+/C8mdi9nE/H75tfu8fzdpIvE/PusN2cdmd9muR+krun42nz7XR8PTwuv58f5p3z04/jz/kffi+4mCn4GcXuz7ISKMV/C1+X/fvdod/P/X4fyAkAFIq1A3CkACIkJu86gAhJBoBEnPoSmCKvA7Kj1KcUmRhEyJFS6ADJUy7rgOLJ5Q4wxwQRSh4AhbiuAypT6QElUE7rAO8cub6vVan2IERtxF4A2ukAAIEq94BMGQBKsVTXQhUAciUxgEoZUJ0qhT6ld334WK+Voh9CIEcos0NOKEIQSmLbVICFRKtmS4SAlET7aiIE2KbgyJceIOQRIBLHHqCOAGJShxVTg2umunEMKMAhVw+AUqmClNSkudoIAnjQ134oGhoiDXLVyYQi1EFLoQ2GNUA2ao2QB00pGUBu43OtaKtWneho9jGJaevFUmvE5WQBFaSk0sjRAgoYllEoDBYVZNFoTwgtGnVJDRSGWVkAcbNF+/mtxKEz6PMAodqnVCLskqj6ex4y7hKnZsgLwEOmWe3SA5TKCAzkky1a50gFRXtP3twFpK18LD7yPdHaNjSLVRj9/+sK4tkR98q7cl0aDml8HXMt2Uv6cL5Iu1NcsqeA7j2WLo/ZYmszTQ/ox5eW7Nt+pGgeDh18lAtb9VzZX5o/bstHp4Tzn6hXbwpGbLifMbQz+Da6YmqD+TY1/Mfd/8p+fXj70Hja7ffLd8r79/bDRJeWjxq5/ws=);lineShape=1;" parent="1" vertex="1">
                    <mxGeometry x="32.27635031371969" y="30.367103380852313" width="0.5628031985394831" height="3.4483612255739975" as="geometry"/>
                </mxCell>
                <mxCell id="27" value="" style="shape=stencil(lVfZchpBDPwaXlUzmlPPjvMfrjIOVAi4MLn+PtpsDUZathO/LcP26mq1NJv08LZ7et1uOLxdzqev25/758tukz5tmPfH3fa8v+jTJj1u0sPL6bz9cj59Pz7Pv1+fpjenp2+nH9MXfs04SVTDhOLwez6JkQL/Pfk8Aw774w2gCXGygERZ1gE1kRQLaJTTOiB3b4EjSV4HpETBxsCVGLg0fa9ZgFCvwEImYQNIQiWAGJiKBeQCgy6Bos1SicPmfUAjsVkqHVqoZXg8AHqCstSYks1Si9QRNTq1bAFaaVC4nqnZLPVEEVhQtrq09k4CCieFajQACbBwUqk7gKahQ4CIBWTK2EK0WdKThGLIlCw1pFMAaZVIzbmkTdtAHbRwxQMQ+bpyKS8AgHydh0bcuoTIJ77jpqBBDEq+GBdpRRYasYshQ7ZOZLYNpNTIuB9KX5APZSlQtXWY6A1i0HZxLvUGpbJXXzgFIPXu4ntaAS0C8jHV6mMoBbaoU2+1iWLQujoRmAgP0iqNgqN3woBFltRJCCijIa+ANpxcy1JzbO2443RAOfJpZVBP18VgD2FkepVM1ZsoyESgFnwQ/+D3xwCV/e6gI6MArSw6+G0M2oQVyHcWT6bGsHI62aO1UCsUV91OXOWK1hK4xIsYiq5QABBlbGzXZaPDHtUVT6yFjC0E36K6EDFIEvt5wmmI7X2H2GtxxMTg4neTmEea75dNqWe1OAbqQJZ0vwquzjCnLY814RrzWDLXZm61RQswpTo6nBDjblaF6eLej0i3s98nwxDBNY10NY6Dtvff777EDCmh2pOsQqo8If91aNj3M+6BsCB1hQvGuxhelQLuFxqwH+aj4mtTit2KRBX5U7w/yuiMNtWPXvX+A6AP7zfLl/3hMF9Mb//3N1E9mm+x6fEP);lineShape=1;" parent="1" vertex="1">
                    <mxGeometry x="32.763162846836366" y="30.341563482518268" width="2.0861138517460343" height="3.309969440828107" as="geometry"/>
                </mxCell>
                <mxCell id="28" value="" style="shape=stencil(5ZjLctswDEW/RlsMSfC5TtP/yEyc2lM3zjju6+8LVWVqgtaV1Omq3ckyjwQSwAWgge9e9w8vu8GZ18v59HH39fB42Q/8bnDu8LzfnQ8XuRr4fuC7p9N59+F8+vz8OP1+eRhXjlefTl/GJ3ybuFTIxpFy5vt0x1LknzfeT+uPh+fr9YmKWu/IFwhY0wDOU0BviORTAzCTw4CxDeCZOAEgUMwNEHx9xBzgfQNETx4Drt1D8mQdBGz7huwoYsCEFijEHvrBlQYovhp5E8iWfHtKRVyJAKbUmlQyBhwFr4GIjjXr4CuFDAoNiRynAQbRGiU0ujdEAIRIiTWQAeAjldYkawwZM09wpMybCJfIdNtGRtlMpmzZtjU1h1cerKds9HrkOds5DofG24GsjD3buc1VUZjbcG5FJqdq4m2AKbfpkyNF5DSrE1SAXzl+Oy6cFpks0QskwHe6J4AHJkWjtVsAqKyio14DAZg0btFpAEVq6QJJHoH2IHHmlVAmmDwjUDSASqKYpDI6Z3J4085qICHt9p2nS/XMnOM4agCJvYRG4Q4AJrHrTqnAGirh7aPeNMoHSaCSNIDyYUxRtYdEHmmMI1ahEWt0zckkdzmNRMDlLqcDpQj8YKsqXqcoAIJ0Gl1OMwBioRC2vEGqNHcmJeAHUVLuUtSB0BCp9h2QYPXp5H50NVLjzUSJtcO7qhAZZfU/0v4kDfz19mdbM/Nn7c8mo/6/9qdrHRZ6+6jFe2l4oKSyDU8nb7tbOf5kXX0W5isR7vb5CwOcBER7PksTYq3fa0dQXRcWZtyox5KFITpU/Vw5pcvT1HrY8nSNpMUND+X2NE29sbLyG9hEyt8q2kwtinNVWZ2mqfl/W4GSLvtYf0TjWNuP1ksNt9p+ZE9kMtp+tF8p+Soa8HlKLmW9HvlL6pLZEg6bvzktrpeL3x+4ng7H4/R97Pp//UFMbk0f0/j+Bw==);lineShape=1;" parent="1" vertex="1">
                    <mxGeometry x="79.63282324095144" y="62.50822828668686" width="0.3216614196619156" height="7.315586375014822" as="geometry"/>
                </mxCell>
                <mxCell id="29" value="" style="shape=stencil(rVfbbtswDP0avxKSqBufu+4/CjRdgmVJkaa7/P3oGXIj2j5FgL35wiOK1CF5NPDD2/7pdTcE93a9nL/vfh2er/uBvwwhHE773eVw1aeBHwd+eDlfdt8u5/fT8/T++jRajk8/zj/HFX5PuEiFR1Bwf6YPjkr49+HrZH48nG7MvScJxt65bfsQSOz6qWzbM1P2nX2kCNbnSrl29qUFtGofmSR29j6Q8wAgFKUHFIppG5ASudwBNARXtwHZk+9DZk8MtpTnDcwAIQ+SVDToHhALhQgAQtLHoFF5EHTV3/0x5EARxFCFQh90rlRlGyDzevNBR2Jw0hIt80qlAqgnmWpPjao+QS1ItR5qaexaB0irrQYQ7MG7ubpmRGls2XKRSw+o5FCatIDEAmoGAN2A8SCUAPskUcgWIAjAlkw3eVhHaAkF66ICgNKPFwAGJzGebLZpyojgxQahiSuAHAowfWMkJPaQTQyJBAGU/2IBHvHVUTRbirB7j3ROFhAQQNe7D5ApxcWWEF2rbTRj0KgglAiLLEG6LprleHAYUE3QeGgpwBkuKfmQh7JoNAJHyhgiWwCMganeXaOWfbgNaI0aF2OjwfzmZNNUAZm0gnjZLD+pUZPX0jrPfwNYugbYXRWQeg9jGlCW8mJqMRQDOturmbw6ZBAgtiTOAB0BgN9V9Y5RD/PZr+sTPbh+LGaGXaD4RoRZ0GSoT3KyjSlqyYEYUqXU0zu61p/XAd62b9W+DgCiSvX+HEKGo121se9j8NKE4DogNBk5A1REAVEWuFFt5hKsUF3OzOmElW6bZx/mFaW0Ob8xB6RY2UwB2QlWHiZYmN624ASFm7MzIUL2OKupYlMPG+ZGRjJFUMHOzpsA864ywZoHYO4pGJa1O9xG3r25gMF2xXZ8OyiK7rz/fmquDx9X7ZfD8Tjd1G//26u5fpqu9fz4Fw==);lineShape=1;" parent="1" vertex="1">
                    <mxGeometry x="80.77587370839177" y="62.42130771121947" width="2.8051220130411387" height="6.303983924194114" as="geometry"/>
                </mxCell>
                <mxCell id="30" value="" style="shape=stencil(lVbbcuMwCP0avzIS6ALPvfxHZpo2nqZJJ03b3b9fvG7SIsekfpNljhCcA6Kjm7fN6nXdYXg7HvbP68/+4bjp6LZD7Heb9aE/6qqju45uHveH9dNh/757GL9fV4PlsHrZfwwn/BlxBbgMIAx/x42cAcP/nfvRftvvfthjBs4GQALkAFKAbAFYITiAXCBFA4jqU+YBrL+rAahLduwFCjX2Mc3bCwHaHCGgcx8pQGzsNclOwMJQ7PmRXA5EWtI0AsZFAD7l7JdXImVlUcwJXdKGpFrSUoXkBD2wlixAIBdfFtwCopMlxkkMBWKeB1S9gFWqil0cJdUK2QZNCYLnoUBtiCuuNNRDbLTEgNEBMFSb1qgxOACOQLZ6MgRHSpwm6nb7BXPLQnDbhSAEWXC+ZEi44P5aCiFOEuRXZ5YJBQ4ghnOEv2RZXUTr4oqOpALaJnxFqZIW1oKEhdW2GFDo1KXPbTWe2trll0fTbpVaVRqOtInat01bgqe9mECstlUtyblSxFZ8SqUrJqiNloJfDko0tjeqDm+pfTu1k39l7fL7P7HHk9wvRwxkSdP6Dg7LAai0FLDD2aR06lnqM/bNs6OaKB5jbT8t55duJj/FdgsVafXGo3Y6ytUVxNJ57bq9Lr6Hw8d+ux1ny5//22FSt8ZBlO7+AQ==);lineShape=1;" parent="1" vertex="1">
                    <mxGeometry x="80.65217953501158" y="65.46482944752927" width="1.5560167277538512" height="0.7287253813745153" as="geometry"/>
                </mxCell>
                <mxCell id="31" value="" style="shape=stencil(rVfbbtswDP0avxISRd2eu+4/CjRdjGVJkWZb+/ejZ8gN5fi0A/bmKDzi7RxKGsLdy/7heTewe7mcT993v8fHy34IXwbm8bjfnceLfg3hfgh3T6fz7tv59PP4OP9+fpgsp68fp1/TDq8zTqiGCcTubV6IlXz8u/J1tj+Mxyt7H8jxCpABoFKJFpCppG0AJwrFAiKx3waEQOwsgMmFbYC4lmIDSKEEkpZM0XoQIZFtQBQq1QBCpQxCShqxDSkIZeAhFYrWA1eKwEMWitkCtPdlG1AC+WQAPkFqVNdSXKrUqnDbnvtGe2LApCrElnqOnAP2iVzq92dgnyn7Lv6M4q/N/bK/o4AKVNt+CyBTABF553oXU9Owi2QBgUmA2urC/CumOgTIxF2XpXH3NiCuxJOooj4ESp0HLRMKyVPpAJEC0IIylS3zxJMDaiu1nxgqz4oAKk8L4EwJ5DABxHKjYnlqSDZpz5QQXTVpK4dE8YOqdtxrnd9qWzeRHB4XsRHz3T6Ckk7E66iNWaHMtuOiQLGpdLr4PZ5ft9S5jLQtF11Jg4Mn1TRibA4hkwNn4TTDLI2E20T4P4Di24xbaBThhMnaVjtWs1YJzPkUKNuTKmvrAZNiIrGdK0wedE6P+2pzKLkV+jZAk7Y5qDoEAHQ8dBNGTy8BSfOS4gLQFSAHVUsnByULGnrrm1vFE2Z1Nbwi/O2keyqpAwFk5V6gFc9IT0n6mqKbpKPS2XvyIGGtaEejRAU0eSV/pR06RVb2ymsP6rOKZxIO6PAq35Spoqt5X88kzePn+pV8E97n+KBPBXSn/de3yMf2+vH+8HkaD4f53XT9f/9Q0qX5kRXu/wA=);lineShape=1;" parent="1" vertex="1">
                    <mxGeometry x="86.27086543728382" y="64.1688812426155" width="3.5384809042438508" height="0.8599322917131249" as="geometry"/>
                </mxCell>
                <mxCell id="32" value="" style="shape=stencil(lVjLctswDPwaXzEkQYLkOU3/IzNxak/dOOO4r78vWJWyCUmb6U2RsSIeuwCYHT+8H57e9rvg3q+X89f9z+Pz9bDjT7sQjq+H/eV41acdP+744eV82X+5nL+/Pk9/vz01y/b07fyjfeHXhBPK0kDB/Z5eOIr+74vPk/np+Hpn7jNFN9gnymnbPkSKZbAvlOO2PXsqoz/eU6oAUCn5EaBHAo9iJm9OyOTCNiDp98IIqBR4GyDOxqBJRUFnT2IAgULZBhTXHbgDMAIUSmPZApMDaa3SvzcDlCkgS945cuMRrJkGVKqF3BhEZBLkU6RguOeIQV416hpHQKYAgiialJFMomcCMmWhMgK0lv8Esg5QedURUChmQCamOMZQpOdtna5zYTtAE41iSCo5A1B+gzpo1o0gFFAA+2KhwhZQQdCqUXYWkAQAEtVF0IJOSF3zMyDDxhej7TNVzwSVbgATQyQG5GsuGUDo7NoMOo0A7ZVAD5rWMPaZ6kgQQJt1tYAAXGqCzAsA4pKSL1lAAYVr9BYbdEEn8ILejPWgkh8Vp4UroNIKcCZogd1YXYqGS7krZB2g3d0IqHTCb9WhLhSHRlCsxGYq3hr6FpnKQqNoFYialEWfcZjftgvkPlm3JCfBFiIiyUXbXFupUZoi5XEsNjKBQmgMyQTtqeIusAJA3JDO5nmiVBLAPgm9THczCwUtujyMQetUFFCHHO160uYucEk9jgbgoEaL2BGkeyCauzrZ08hvZrjP5GTbNzNka8uJAWg3Rn2m2NWYHXk8qNPYZwKe7MpWP1Zat/UCguYFl9qaiNb7YqeirrpoO9Gfyxi0F9i+PfdxMAO4q3z9hB7hrB/ygHreriYz2TfMzYKYKYNp5Wyjlw/MzSBJcIlZbNzzjrJhHkZnuA/rDXMxNwBidDO0F0O8CM8fu907UdNiO57wHrLYvfAsS/b+NRdiXer/d2f+0Fwfbtfzl+PpNN3u73+313l9Nf0rgB//AA==);lineShape=1;" parent="1" vertex="1">
                    <mxGeometry x="88.03242074604916" y="62.92579104729043" width="3.550023652496092" height="3.5437838719103714" as="geometry"/>
                </mxCell>
                <mxCell id="33" value="" style="shape=stencil(lZfbchoxDIafZm81snzUdZq+R2ZCClMaMoSe3r7aMiZrLfwZ7hbjz7akX5I9xYf37dPbZhJ+Px0P3ze/d8+n7RS/TCK71+3muDvZ1xQfp/jwcjhuvh0PP1+fz7/fnuaZ89ePw695hT9nThqVNlPCf88jgWr8P/D1PH+/e13Mj5VyHucLFbkNpEopDYBEquk2kCNlHoAYSDIAlDSOgI2AI5VCeQSSErfbQJV+gA7kShUB5iUdgJKpAaAFamEAbE8FXmqZ4hi32qgCLzULdBmAFiGgJoTRBluC+TYQmPv/nVALfgVbKCUHNBJgta3H4gHkJo0URr/anjlAN3H1QAM2NPH6XvjhujgKNV5tgdQUeqCWRiCBV6+m2U0FAKYmXQUCiKMkqqOa5lADG2wHdX4tsNCURk09wMCGGknGrNZMGQHNlwEDBIU6XdlBgA1Ne6VbAAkAmroTF0ADNpjXNXsvoTiYclxW2xICEmLWZvCAKgDaqgpYZQJqNaOz05JSRLXPjpQ8gMqxBS6uAGSDSaOsAZAPJr4YPVBQxrVVPigFBJj6VzmdQZm5mqKo8d4PcO/8iw7xWace3Wo9SEHgcuu1d9HlUOBy8dKYywIQX5ZeSS+dulAAO9h9xsXBDhlAHFIgHjPObhsJHCmmfoALwCTgSFIpjoGzGxMSn3AvvZc7WYJGh1VnDxEW49V8geuz92mAFYN7TfyYLshcSqM/uYvkesB8wePOX099f4FmKDhzpcsBhp4MybdmfLsI1vvzHeub7wL784MWZbd39eujMiTF3525H/CWmNfBBU353gfM5/Pt4+O19LLb78+PreX//nVlQ+eXWXz8Bw==);lineShape=1;" parent="1" vertex="1">
                    <mxGeometry x="93.93736013782154" y="60.62921155122626" width="0.8562860208625183" height="6.312479600424397" as="geometry"/>
                </mxCell>
                <mxCell id="34" value="" style="shape=stencil(lVhbbhsxDDyNfwmJ1PM7be8RIE5jNI2DJH3dvhQMKStqPUH+1mvOim8OdZCb14fb5+OB3evby/nH8c/p7u3hIF8OzKenh+PL6U2fDvL1IDf355fj95fzr6e7y+/n2ybZnn6ef7cv/L3ghKI0ELt/lxeeqV7efLvIP56eNvLeU/EzwFN2AFDJxRngiMEJXKnUCZAp8XV5SeR5ktcX4PuByc8KBUoZyOfukC4vJOD7USjMHtID03X5JORneUcB6JPZ2uvIgQAURyl+Qp+SyInxvxQgn4mXjHDAQQrwJuciSQCASHkGNJORSiNCAxCoVugjC6hUQdLlZJNUAmXg1byoJJUEhDlVCjMgaK1GAIg2jzRzPQI4qmUCRNc/sZ/ZWlh5Bghl4NbEFKIFVBA4ze3iZkAiQcmqxWMAhSowumq3CnO3YGJQPjX3MA1AgpGumjlprh+GDca7UcADocFHOtXulA4ojHUqJHMgtMqh1Ynq7KaiKoHI1WC7XtVYAqur6woMQITJpF3AAjJlEGp1YpobpfrNgT6jNRqLBWQASLmH6X224Wbcaq7aIyo4IoY+DLY6ofFWbKNRQAQqCdu+8Z5e+wCN3GKDB6HmYidQHW/2AWPibEJdgJd05CdjgzZoRDISBZMbEbqVx/cGIHxkQzZeEkiUdOLwUkFoaGkcTI0qICIALypxp3/7gEAxWwBya+NizhodUC4peWDrVsQFFFCWtoF6paxxSLgedGoaQIaDV412czfW9A4fuHVtTOgEtgSolSjykqOydDJGJVo7J9zYUEDgWnovAI9L1CwO6lYPJspOiY7sutoEjJcibMZqg51ZAQNKr+BNeqMxqnGQpUQTMLo146XiIuBknwbo+mNYXwOASIdBqLY24JFlFqY6aN3+UExdgW3nA4Ac7daqAMYLQZ5zSekMJBuaS3OkC84lXWos6yv9zT6gLGuWwIory8qRHV7k2G7eaZTUNf6T59TQ3RTFQf82/Cd5Cig1xLKZWHvz3E++1CfaAER4gu48aV1qQOdrKs0n6JmMbMi9k24Wswzcqj5xc/IFB4lrWjifziS0USsPNZ1P20JETNf1ETj23QzXpraYmUsEXWhRLgXLpX2BbKbV9BwHjxczPcGQxAIzIy0XUalH/lrYgqloWG7R22W3wCuEEC0x8Q5OUNF9xgA87Nwillx5gdXGS8fwETIZHyxt8JqpqNq6SzZZgVpSWHxU8Di0m4bHScGW4Ko8g+97u1KqvQXo72zZqDwqG+ULZqFMsLc421pUHjHJ5aahXb2BeOmqZ+Ib4BLj7ARReQeKzC/Xz9IjciVepiZVHpHIz15vfyyvD+936fenx8fLVfz2f3v3rq8u9/by9T8=);lineShape=1;" parent="1" vertex="1">
                    <mxGeometry x="93.29715527397909" y="60.120380959317345" width="3.7507108536469476" height="6.27747722475637" as="geometry"/>
                </mxCell>
                <mxCell id="35" value="" style="shape=stencil(lVfbUlsxDPyavGp08fWZ0v9ghlAypYQJoZe/r04zDsdK2A5vJ47XllZaSd7Yzevj3ct2o/x6POy/b3/t7o+PG/uyUd09P24Pu6N/bex2YzcP+8P222H/9nx/+v1yt+xcvn7sfy4n/D7hqpLaglL+c1oxsvpv4etp/9PuebW/KOU07e9k9vH+3Cn3ab8YFQGAQn2+QBpVBYAcLdJECZmUSHR2makDn7NSKzOgjpXrACPNEyAlasikTCwTIAsl5HSNtC4r4AaPG88sFRsr1wGV0nyDrzTAUnWnZ1o9t1AcaieZTaqFDNDaOtWZ1mbDyKuAXmMc/AgFJgkzMc/pXUgBTb2NOJ0BFXrdLfK6HAGcaHmk/xmAJVdzVJADWgahziR1ltw7Dx9JKF/YVEHokl9hESAA4ArrJdKkCGBUWwwEvMGi5noed14H5Jh+3VUNWEpCNSSTQUDmkWsrAAOTClOaI9eVCgBUGamzBoD8bkKlXZgEfOg80n8FqKDgu8BKjbQWpGpPtcBSpoY02i+crrD2+XmR1gZzqTXKgaVO3GDtsxIBqMsVb4I9AjpgyftBvzCpAZNSI84RkFB6c2wpzlIGJtlZLqs4ZBAH02HxqhqjDvF5gIzOfwbwoOEqQFuUaEukgFYVanPgqncloAcfd3jOVu+sAlJD0jjv3Km9owCnhaPifBZIqLWP41bDBqr2Lp85Cj7NoJnPIqc+LnUQBI6pvcxjII84TibLwAfsuRgCfKJUwI8X1TDjepYgbcZ6JAo7jwhJmGPIgDLdIAkOkKGk1kH32SBYgbWQBIfHhdfjyyP8Yz/jfMhRlTwGuY8abbCfYX33Uqcc9+NxJ1Rrhor0tswt7E/A33Ix/jN8Lri+Q5kT+Gjzrh8ErNBfH9xLzJ+CutknH5H/3+8f7y/Wh93T0+nBu/4/vnB96fQ6ttu/);lineShape=1;" parent="1" vertex="1">
                    <mxGeometry x="80.19612405127162" y="54.625549708068775" width="0.5878895524002257" height="5.332391040394552" as="geometry"/>
                </mxCell>
                <mxCell id="36" value="" style="shape=stencil(lVfLbttADPwaXYkl931O0/8IEKc26saB4/Tx96WgrmLS0RS5yTJnSQ6HS2qKd6/7h5fdJOH1cj593/06PF72U/wyiRye97vz4aJPU7yf4t3T6bz7dj69PT8uv18eZsv56cfp53zC7wXHlXqaURL+LG8i1eXF18X+eHi+spdKKRt7LiRhGxATFTEASRTrNiAJ1WojihRBSJmpsgHoEQWEVJjE5pzVp2wDaiDpBqBHZBBSC5SDAVQFxG1AL57WpiyBkHobKa6AQhnQ2js1B+gjqy1At4XrQowAjbrNoSfqKKRC3dLaK6y0nifOQ6dQAIApsAd0UIdWvVpn3hoAJEoOoDQA8TVVa/FJMwBUjZg9rQXQWldOVgBTAywpIFoPTXMAAJW3Y0nFJ4gloWZ7WnljBoBMzYWkPY1C6sTJAwJSq1C+8fCvBz8GZMqW1hbhraF17c0C8qj9Vsf5kBpFEBKHQME2tZZaUExaatdyiQKonCZRLa/atQV5yCTRNwS8mPRWcYAOR5CS4kK64mFLTSl5F+h2VSlkq9eZByzwzwHKDU2qpoCmXKJqK1dlXJ8fz1FN2nooEVYu5nFbr2MxUgY5iCrBCjxpRyC9Nkq2hXQ7EJA0s5erZNwRfiqysgrsw5jKqz3DgG77jQRoO4ySrjUbA2zDvLi9BE5oHgp7X90yuFPjWLtWLikAOeQxiod5gHOt+gbQnQkEc7Nc4A5mGTxfHQ+kyTqWrT3DZHWJ9UKDW+1n1+b/2+vD+47+dDgelxX/+n+/0+ur5Xsg3v8F);lineShape=1;" parent="1" vertex="1">
                    <mxGeometry x="78.77223338382927" y="57.88215606307813" width="1.794406249229523" height="2.09862815895792" as="geometry"/>
                </mxCell>
                <mxCell id="37" value="" style="shape=stencil(hVbZctswDPwavWJIgudzmv5HZuLUnrp2xnF6/H3BauQKoLV+k2WscOwuyImfPvYv77spuI/r5fx99+vwet1P/GUK4XDa7y6HqzxN/Dzx09v5svt2OX+eXuff7y89sj/9OP/sX/g941qjlDoquD/zm0oc/r34OscfD6dVfC1UdHzIlDMAOGKvAFyotW1A8dR0hlghIDOFqABJmnLbgBQpBgXIjQpvAyJT1hmkqwCaZkexKEBLECBTd1UDCgZE4qYBlarfBnhp0QDkDcjgo2XaO0cOzLUtBawyQB4oVtsC0l6gYL6fKQFhiPJ0Ay0utGzEe6fjbxnvT2ggWeYD6hfKWKuokk/AOsT6+zVTqaAeJl8twCGKK4U0AMCEApOLFlABxaEsBax7Bpx1EbVhqKAk9hS0mTtr2JtN0yCySMD9UpJpWnSXESBRMQChEpnZD2YW5wAl+UxRZ3jkTS9iHcxZgPiE12B7QOLjRcrrBQZacItu1hsSmO3W3ormBmYq3zccOCq4njEekNwp0AWVBzLKNkOWDYuULV7UqpCDqwDvxEReZ4gR9px4ofR2NkcKgOTsKWk7C+8oQ3FW2QluJDn8s45nShHE83AdgSoq2e5sTx6QVpqtRxoCA6pszyhsy74+2caD+ttwprlFhvfj2V7vpF8wf9lsYZgnmH9fbNoFkhDMp+81rbi0HLr3XeYG38sZiAZ07z4LCH58/5WH/5fnt8PxON+91//by7a8mi/q/PwX);lineShape=1;" parent="1" vertex="1">
                    <mxGeometry x="80.45655193309395" y="57.6569565121348" width="1.1193368563644364" height="2.4969961331192017" as="geometry"/>
                </mxCell>
                <mxCell id="38" value="" style="shape=stencil(7VnLThwxEPyavbZst59nkvwHEhBWIYCAvP4+NVl5GLdnC3HKhduydM26u6pfnoNePN9ePl4fgnt+eXr4dv3rePVye9BPhxCO97fXT8cXfDro54Ne3Dw8XX99evhxf3X6+/FysVw+fX/4uTzh9wkXVXJaUMH9OX3jpfp/X3w52d8d77f2UeJo36Q0Yp/Em+c3qZkC0ggIRdQRQJZQBoDiGyWAIjEOADzCFQKoUt0ASEkaOVJyEsZfyEmUHCl5KWEAlCguEYBKGAHViyM8JPA2RqnmHuh9AE7sR6KdpEB9sMpIkhkPodO0AiLVnkbrdPNdXbuAkKT49zjtS4/6CgiUhyplVEYpkpkL4ox97E/YP5DUZO09yR432atEIgtnI1qCFMKZm87vpRFR4Pne2nsSH5x/TJziRCONj0m0Jpmksvbobew902iPxmoPxokesi0tsGeCqzY+b9g3afN5WHy8JDc5TAjzQWqYIkoU52uvzhvJ+UqSsohvI6BKJgANoiNpS1ISp7VIMoDEWQ6SRx9qkUpkhFqnUyWKDFD7AVYAKjhJ/KxWSUv5JZkMmlKwTkciJWR6bu8Ja0FnHn0olXbmhdex56B6MQB6WBsB8KoSp1HOjZZyoFoCr84UgLX17gOq1VJ2PQf3M9RZHgCIpOS10DN4A2DSQJdszQLYdNHg9HSkQqLUQFy0UWK9vzXLNHhg4vNu6iSL4tmZms3RHCWxuNap9CEhWJiyVFNcIS+SECCiZAtIpFaC6uQtILNy72xxBYCJCXLVap1m4zYyqE2jKp141phseGDTMwA25TAFER4AMEMVxOR4jlotYcpgR2oT0463XRSmagFsx4A0QpoA7BfyRJzrgj8nbzvKeP4LTeIUVjYKAGCrsdI2CkA18o50FHg/INmVAfNkZUcKtlEXJBDLB7TRUd7V0aoBtdo2GnkLUlGzY6zldr+N4kgjDy1Q8ZW1HayAQus9phMdfdjU53NLt1lYG58FsJPXUa5IEea1eru7wWs6V2LrN0Q0CQyAnB9TbilVrGml3pc3E1NlQ5wdBbAdJkLcx7b337c9Myd9bHsGoDuUsa7jm52RoFF244GgNgMo9LJNk60syMpGjhTVTjDYCtiwimIXTT11vTidBUyVpRLi4uyDp10nxp4o29WKMB1nplMvf/sAb38hZZo82npt2FyrBqIlXdf+zcWtsnQuVnyh9JnmHMDcYQbe1nCAaNpa37XOac/0cj6pwt4839OFAfbm/snTfF5uvsfzOLrd6pRs7q2AGhU52qBAcanGnsan7dizMcTZ6uLoLThEbfZUR0cEZE20z0/sTYH2VejVnl0WwN7cyvt+13XO/n1va960x4fXV0M3x7u705ul7f/tqyR8dXoNpZ//Ag==);lineShape=1;" parent="1" vertex="1">
                    <mxGeometry x="92.33377380188347" y="53.60402617204227" width="2.8875039124456356" height="6.2506063709155315" as="geometry"/>
                </mxCell>
                <mxCell id="39" value="" style="shape=stencil(lVbZcsIwDPyavGpsKb6eKf0PZgglU0oYoNffV2kmARki8JuTeKNrd+2KFqft6tBUaE7nY/fefLfr87ailwqx3W+bY3vmVUXLihab7ti8HbvP/Xp4Pqz6nf3qo/vq//Az4JIHjz0Kze/wxlrw8f/N6wDYtftrQA3JCQA5oKAAIpAEeISQ5gHWGDBGIGKA2ighAlAUgGShpnlATBBlhOTA1POAEMF4CQgQFYCnsSkTIIHz84A6ACY5iEsf7iKIa0x5CItKYwN4yoswCiCAzYomSFYJADar2YBV9pu85OjVKdQ5VyOCVTpkCYIcM88xKLxAD05mFDygNjULSaYUJn3cBbg4ZvwkINDI5CdT4h6SLSmaqZ+pp2+rMjamWZARHsyNLSBmxDMqUxOO4nqSeZwx3ehTo7aP4DIH0MXjEHyhPtlabR5CswDWT7rRp2YylruYOQDbmMbvm4x0nyw14tL9fNQUHQ1cXdHZQzmzHxxu9SiUKX+ImtQgSPGzMjV7dKOspvQhKtnwZyf/jzrh2Cqk/xq92jpvj05o53L/1fd7dlMqyIeNLTvQ9HojO6cp6CeTHWW9+rxYTCj7qdOh/C71GMCLy9Vt0+52w83v+nt+1eNXwzWRln8=);lineShape=1;" parent="1" vertex="1">
                    <mxGeometry x="80.28601852297996" y="50.38984752570127" width="0.3688710950954204" height="1.4619768814283538" as="geometry"/>
                </mxCell>
                <mxCell id="40" value="" style="shape=stencil(fZbdcgIhDIWfZm8zQAg/17Z9j85U606tdqz9e/tmZ0c0uJ47xP0I5JwEBl59bp8/1kNwn6fj4W39M76ctgM/DCGM++36OJ50NPDjwKvN4bh+PR6+9i/z74/n6ctp9H74nlb4nbmSKZeJCu5vngmZ6jzzNAO7cX8FVKEsBuBKrgKg9oAE8gkCbLeUhEoEQKSUDZDLeWYRKIl8MEDRmHwfyBrBG6Amyu4+kDxxMoB3jhwgYu7TVAsVkFcWCs4CTBEoF4RctKeOxHIf8IXYpikHikAIf+MNUW94AGSSaoAoFIE3AlOyeWU+p2E5S9yfQZcQILVuQOwZdJNoS9Ls3wA5u2XZTIHECqeJ9kDpSaauRiNVcAY1QhdBzeLBli5WazpkSsBLV25uRaqWRyFawTQzRRIQYirJzq5atkBqLfouwqUxLBepthWb10vrWZY6UOAeyKCCtDV625mm9gmUC4Wc3VLJMMIE1BsA2FW9JraVlQB7n3c9oMKhCLEvIM1zBPZ25/umNQ1tVEC2G+fFCC8g398O2hNQuQlVu752DBfA+q0ptnqO5JFmeuIuo9DY7KjY71UxdJV4EntifPWorW++R/dC4t7V3DlIB5cHx2bc7eb3yvX//QNFp+bHDT/+Aw==);lineShape=1;" parent="1" vertex="1">
                    <mxGeometry x="80.05545985564214" y="48.50606249441557" width="0.3959779467893864" height="0.3953590013863227" as="geometry"/>
                </mxCell>
                <mxCell id="41" value="" style="shape=stencil(lVdJcttADHwNr6gZzH52nH+4ynKkiiK5ZDnL7wOGNTEBik35RlHTBLqxzhAe3vZPr7uB3dv1cv6++3V4vu6H8GVgPpz2u8vhKk9DeBzCw8v5svt2Ob+fnqffr0/jyfHpx/nn+IXfE65mKmVEsfszvYmU+d+Lr9P54+E0Px+penXeJ8oNAJiiNsCFoocWvFOAkLrNNUBiTSFRwIBQFSAlYsRBLGgOOVLLAFCoNAUogXJaBzRHXssquhUHAI2attAkcMAlAbBWqeX+5jYgUE0aUCgXqFI0gEoVuFSYnI60OIk4pIWs3rn+jZuIGCgEa6KGdUCQQLAF+LoO8I3SgrUH2eclsN4GogCXvKMQNSCRB+kqFrLO74azTzhEA2BiQFpUckZWT4zjYLPPdd3WQm05iAwg+4qn2iygbHSBbDkkABgLwlmVNmqUDUB6G4rDRzbPQg1N5EW6FmLEulDTrUzSNQELJVNcFGmM64DMfYDMAA0AYiVXPwMIsXfruUtAV/4fpzlpVKOLkTLKCpql1Gg2RZ1g9t0GAAvRzmkZEBU0Aal4TVkmUANxZpurGyOOKegYbMxQ+b6uto0hzX3W3LkFSDVr/zfWDN/Z3bnHLCoT70ne0g2wyqKtStmagPiSPc1sYZTQCKlU9AhxfZLeFr9ato4YNN8gIy+b83AsV9sj8PlUbfZjf7L4/xm+JfVF5T49q7dbMI5XTb3d3JcOn97KN8/Lw8cV4OVwPE43iPn/9sogr6brRnj8Cw==);lineShape=1;" parent="1" vertex="1">
                    <mxGeometry x="90.85575018955086" y="49.348910416963236" width="0.36516909027375855" height="3.40614275081168" as="geometry"/>
                </mxCell>
                <mxCell id="42" value="" style="shape=stencil(lZdJcttADEVPwy2qGz1i7Tj3cJXlSBVFcsnKdPuAYcgIoPgT7yiaz43hY+ghPbztn153A4e36+X8eff98HzdD+nDwHw47XeXw1WfhvQ4pIeX82X36XL+enqefr8+jV+OT1/O38b/8GPicqcWRorDz+lNLFTk95uPE3A8nG6A1ChXCwiNP7cAztSyAThRb9tArMTdAClQRycUimKAHCkBQH0Q60NRAJiUC1V7QmkUAFASsQUqE5dtoEYf1tpgWKtQSwZokXreBlqnZPPQKsW0DUgmjgboTBWYJJVqs0CmEAHQqdhMdzUJ+CDqNFtA9dshIDYPEmcjtwAXJQ1DRic06jZxGgZBPqy0JP/wIVFwJwisBwmz1G4AAZnujcrqhAhO6GV1wtIW7gPJZ1rDgMSnUnOZFqYEojQC1ocuMHFqksuDiq+BElWns624jqWhYW1O3kwd9FZNXAkeiMAklUZaAQkBhcQBCSZOtRlcxRVKCJBVlJYKud/uQ6BgbdI4/BlKW0dUJ1eVFyrqTtkVtfYZVHJ1TuxNjaL2rQaIbX1qJDQp+pl1E4f7alIn2B+RgZpGIL0HaMGLQ2uOgRPj0HICb7CEig6Q1UgRAGRNrBtabU7+/dG+qHMB1AcAsDYu63TVMQZM0nXHteMaMLDsFsvygMdi9C7kQBF8v6ofrjCobW6ki/QydaA89bhbQPcntF7xLILFAdjFNMlivw+wxeg21sR9jyonN98vNJ7oey0Tbw/SnC6PThG6Y4ANQKvASY7nLWVrmXQJy1TB7CyreFbY40c5ujKmhO1xozaGed3dAoIt+8gUUJ+I8w1hAZYF4j4QfEhV02ipeve95z8Affh7zXo5HI/TLe327/5apq+mK116/AU=);lineShape=1;" parent="1" vertex="1">
                    <mxGeometry x="91.6588045057629" y="50.14014670448387" width="2.4017934778219767" height="2.3337023071506615" as="geometry"/>
                </mxCell>
                <mxCell id="43" value="" style="shape=stencil(7VrLbhw3EPwaXQmSzefZcf7DgOVIiCIZspzH36eYxYyWxd0aC0GAHHST19Ucsp/VTd7Yh293n77e3kT/7eX56dfbP+4/v9zd2E83Md4/3t0+37/grxv7eGMfvjw93/7y/PT98fPp318/DeT467en38cKf57kist9CEX/1+mHWF2v//zy8wn/cP94hq+uxQlv5nK6jm8u+gmfgrOg8KHN+OqCXD+UCZ+T8wKP09mEL8GVqPBlPm/pLjWFj3XC1yr3U1wPE76Z61nhc57x3VVT+DKv36EfYd/i2qzPXg78wc/n7U3aF6sVxlehf+yf8N0FuX7ojE9C/9nlxni1n+RaZnwX+4G25/0H75331wXMxfQmgejSsqPWr+PD5i9n+CLxYcEnoSHvSmW88jjvjCzWXBERBrxnfJTre8JHaTHgZ49o8GgRkX773x0fZUbxW77cM0TeYuIKvs36Kc114Q/BRcKHI3+Y9ZOzjLDoAmV0RLDQT3SZ8LatcAXf5oxlzXmxvrF9UZGUP5uzWf8R8SL8zdheIyfJAK7z/vGL8gdzbY6XYXHhz9n5ef2QXZEVhuIrmNRnY/0H75KoMPg8JYiy1fDL+L44kDPh/0N98/q7h1zGN5fpAC6L9Ye7zAb2Up9wx8p4lZ/TXoBe8SbwIDAU8EHGe4b7GumzKn9IS4LTDKJu6tv3gxWEQEUGmj8wcp6wGBKgn0kWtuSFySp2PKvIiszRSMlEc1PaiOBlgeLirNS8543LArDy7NVIu4r4oQqFOe6h6CriBsStznaoJgNnMLdZreCiSXjSIALzGdpenK8J1MwCTX+BkmODs4jkOLhGYQGVTQfZMBboSq2N+ROcJSqByvHf9hJ31Q5vYggQoIw6BIR79+wsLlvSvkQxDQHpGrb0KVH2ZRCgeIAdVNqGgF8sreoOAsio1SpbWrgsENi9EUBdncFvWt8FdnJ7NQnMroGYjirN1I167AK6PUNeIksjzcj+GN4/Z7580NAV7thRkFRewhHJcEiVipCXlXHaxmkuV7jMTXiOkjKj5BIFGF8QWkqRay4EgiINkbsQCCjnM8+pcggo2tMvfCGJL4yauZxBNo7wzcJqNeGtYzhAXwC1EpYe0wEynJe+NMYtxgKKCeDQ1G0OuiW2BDvQliDgFf0PzP/R7yjqAD7ply0p57PENQ4Cquxa5iEQBNTQCOyIhgpQa1HuXbgowtJqjAKBQAKooiKmcQZqS0ZMq7YqXWBkqj7Y0kiOiFNnCDy7g4BiMwjRumS+oluTtAioXgnxkBYtyYhb5mswXNMxTSQxa96KLVHZhS8pvjRGwDTS7ZLNQK0ccX2b6l0zHMd0k/XhzQJpHWI0Z+LQ2HFcsoaKB9S4umwpCJJYIlPpIaD6vs6jTgio0T3asrakmaS6rMCscqR7YTiwGSLrcG81XW+dtQRyooYxIImJvLVKtYIZUwUqugKBrHvifCYLCvoHskMpsj0eE3Jq/Lw+Q99yxBnRVV84GzGfcWk15H1vFU8C/0GruPRl763iv24VA/c0tckZ99rI1SRbFGQySkxFF4hmPLUbF5EqufqFCiRJ7+ty9Zey/ELdc+8+VdN3r2Wp7CjdakslcZp5vY26NtukTDaG3UogLwJBcofBzem6RM75UuLrg7Q12NeIMbNQ2Z+M8fus0yodL8blAlYS9VC2rLsrCPEvMkwwvk/CEir+w9IwRT2iCJ6T3uudyDUBoxsBnEplGJ7wmy6gbVttx5tMSPuV945vWzt0OdI4QybdBtRlet0kqa/L6CAfrM8UJhw8QiBiOK4k5RUUjesPrjzLVoZ/sApWF6ku6yvbyv5zcCX8/sjh/ZHDjP//PXIgkjaYpMgQnq8kxrMgVQV4P0338IEn54PvqEthnlLXIql45Iw7nmWpMcfScwXJeuMy2dHPytZmvMoKELnLHM/i1HCXn7mNiiTwnhuPUaOkPzC+HjxKoQo2Jreqw+SAHzlbx++yvvLPZRw/apTEM+UoB49GKN4HXtFEHpIdrJ+5Ah/sf7kROdBPYZZ7oP+9+/9B+771GekxHn+8vln9cv/wcHryev7//MYVP53ex9rHvwE=);lineShape=1;" parent="1" vertex="1">
                    <mxGeometry x="120.3875897026621" y="43.509055344273975" width="4.066194261931895" height="7.987836467368883" as="geometry"/>
                </mxCell>
                <mxCell id="44" value="" style="shape=stencil(lVfZchpBDPyafVXNaC7p2XH+w1XGgQoxLkyuv4+ozQIzgjZ+g131jo5WSzOlh/f109tq4vB+2O++r35vng/rKX2ZmDev69V+c7BfU3qc0sPLbr/6tt/9fH2e/789HS2Pv37sfh2/8GfGRSrpCOLwd36QiecHX2fz7eb1wrwub8/mCZgrtdCZRwrxtnlMJKWzDxQCsFeKsbNPxMCeC6Xa2Zcl/Kv2ianlzr4RA/+zhcedvVAG389Kop29UgLfL0IaBnutoFqNauvzHyjzbUArJDwCGjhBmER6QIQlEwu5joAogEJlpJwBUJJURkpXKsheF4fPRWvIIV1SeHLIaNUgoPWsPtJOIUB7QBJ4QgxhjKHwQvWbR/SAWimCuhmg9j41oYhP4J7bYs2D0iRj8ytTRoWwpPTcU2v/DACNdGhPqyVyqY1UEtNLDOBBMALmRqPQZ6nYE6SoDpAZaoB3yUSjAg3wQUeBouHTaqJREMAVrkKR8cxo+PuOevEk5HeS2wbV/yPvbJ+USNFk8x2aTZw/6NDepxoXL++UmZZx3ZyQSaaKuOeUUiMxLvRAJevQjJTv0wA3HUSoAoCfPwYQEIOfcKJwwvkZagAkS35KG6AA4buyBhi7wAlX9owAs+QXGcXC5zclE+8GTvCrmGaoxX7X00qClkO3TF404X3bqtFRQQxuGTY2VhSCI3ehBu2jTxEocxiJZ1VG621Y9qKL/mcgSWF5exKYCvMZxlFVK7xc+CWmwM3NS2qGC4Pzx0Qb5d/Fa7cdHO+QT1sM0djx9cIdMNLBsgOq9cmb3Yfm9uN8iXzZbLfzHfTy/XjptEfzhTU9/gM=);lineShape=1;" parent="1" vertex="1">
                    <mxGeometry x="126.38590375425088" y="47.14218670004186" width="8.187329044311332" height="0.2762112339535063" as="geometry"/>
                </mxCell>
                <mxCell id="45" value="" style="shape=stencil(rVfbbtswDP0avxKUqOtz1/1HgaZLsKwp0uz296NhKLUo+wwD9uY4hzJ1eHib5OH9+PR2mDy/366Xr4efp+fbcZJPk/en1+Pherrp0ySPkzy8XK6HL9fL99fn5ffb04ycn75dfswn/FrsxFMss5Xn38sbprC8+Lzgz6fXFT4IFd/hAxXex0dHQTp8Jp8BvhL3/lRKbh+fMrnU4Z0nF/YNciR2vUGg6PcNip5nDBKlCgwKBeNSoQLuUAtJz5GSyoBUx9z+v1sUSgl8IpP0tEogjwwcce3jzCTAQGkyLgWNtIBAuOZAM4ixMb0njdK7lARqQx2osdeepxD3DSSR9AaFKQO1+kTcZ0PJVABLqgTXf6EKCZDrEGiNpAdX0CD1DtXUEnDbIeLQ4yNlwOmQDIp3oF4IBeO/1gvAaKBcBzzgJ5Hz1h8G52crOsVHwGexaaB8elQtWi1ZxYsx3lk8EpD6Y/SjiQ/81/sa/mtTyA6fVg+VMuoHlPvzV7VpRxBWoLVl6Y7gRocSEDRTrRbP4AJMvlhCBSbYmJAR+mP6kwooA3604AwCrSABHOUhAQT4421N1ARD/Afbm+aEBAKKrTeuzweCTlSHgoL6jKZHHPgB8dVmPBTEDBM+Gv5zm5D+C17HEzYG3CS+HTC2E1HRpAMGwjZlcqYEQha0E/cxSLW92Y6xb+fdDbjVme0gD1k/z4XAIA8y1cETzY3aqH1/6bmZo0Ia7DQhjiL6gurGTGkZVrqsY2LvkhY/ZJDupfZuwC27tw1c66WrSRMGTuylXcTSSMPwK02/2+IrbcL6aAht9NwboUwHSTB/tMCYhSXBhq8FzBSkSAENOIGcmWNhv/HDQiRwIfJDCDzuf8E2KB3BkD/BNkBHArYVpaP2GmLY8P2wcDHuN1og2eCRgHTfqwMezRNavKrBo/3vXxfev+P14WO7fjmdz8tyvv7fbuP6atnk5fEP);lineShape=1;" parent="1" vertex="1">
                    <mxGeometry x="132.6472556151788" y="45.34741268480661" width="3.0140857736204203" height="4.97429771423166" as="geometry"/>
                </mxCell>
                <mxCell id="46" value="" style="shape=stencil(rVjLctswDPwaXzEkQZDgOU3/IzNxGk/TOJOkr78vVA9dEZQ2l95kGSu8gSUPfPP2ePdyPKTw9v56/nr8ebp/fzzwp0NKp+fH4+vp3Z4OfHvgm4fz6/HL6/n78/3l98vdIrk8fTv/WL7w64LLjTguqBR+X940SvXvi88X+afT81o+UeFBvlJO+/JciGWQL6Tg+0mpJWdPCECeqeZBPiaqZR8QlbSNAFMJLIqFyuhBMg3A5ZipjBrM5yYAwBTKAOBIgkyKVEcNFmZBJoUe9A7IkVqEAHaA+pEGGQHCMHHmg4yJFiVRGKU0Ol0yBRRWIdURYMXOANAohrG2MyVQS1Z8YWyeqpSBD0uzjACNsPg4UR5N0kwKnObqy1srJQDITHlMnNoEAKVheXX90CIVkOliURpbtCUSENYaSYsHKAhrbT5KBmCgYbHYTZlAFTjdzOnoASjTTTYABeShTaVhRiYQ1maDbAprQE43quPoNq8iGpUh9Ba+InKfC3sqvNcCJ5k54RNR+oLZC1N0GixwKK7Sy38FaEiDzRkXV6UARt+SJ/Ua0IKwBpMJgDKnSjxFKYJytZ53W9oS15CGOpl0Xax7JkUHSDDT5jS7po5w3tvfvvgCpA5mQMsegHbWEhOZAKiWSp+9K0BDPmgnRyunUVitgWSaZBVpaN2AVeJQpg2gU4tGrMEtOQsDo8FkxecyXeFGMQNa8AD9nwANU2m0TtL2VlAanV4Nw+0tFyci3XrXbu/RMK1FGxtoUxsZmaYAAydY+3hfTQEBYeKtxRsR+xbKI8DaPCDm2jx5UPsEaAgj03ViTAmRuNBjcuVkBXKB4llitWJBUfUHlCI9L9sG+X4TfMIKfgIY4UIOTzvamDqqu0BxtN+OAqiKjLaM/JCv1GbHX5cwDtB+9p1mRYV2m0zyoR8MtlvZ22/nAngaC51PrE6UESWYfYa1E4Jt+eqJmzmMjsSWz7FCY5/Ie0eAOjqAJ5fVS2T3/QwaRiZ/GQ+67DuGOxHdlrdz22hPhgmW4jsmwzOVTB0v2J7iaUKBU9TkXQfUj+x3Y1phviw+7krlSqL34u/ZIxzqll9XDw1e8UicWBE83smVZK3kUX1uXVGB7398pWUP/+7DHk5PT5frtPX//v7MXl3u3vj2Dw==);lineShape=1;" parent="1" vertex="1">
                    <mxGeometry x="138.90482050560666" y="43.640605671254775" width="3.4562878600979148" height="5.711095379532461" as="geometry"/>
                </mxCell>
                <mxCell id="47" value="" style="shape=stencil(lVjbcloxDPwaXjW2fJH1nKb/kZmQhmkaMoTe/r46ZQxY5mwmb3DQHuuyktZs0t3788PbdsPh/XjYf9/+3j0enzfpy4Z59/q8PeyO9mmT7jfp7ml/2H477H++Pp6+vz0slsunH/tfyxv+nHBcKMqC4vD39CRSCf8ffD3Zv+xer+wTU+XBvlBWYK/U6mCvxMA+F5I0+sMU8zqgMIUyAgo1EEFpxKNHHCiWdUBNVPMIyKQJAISKDoAUKAOXJPgYUqUEXBKmNrqUmQSkVQrxeEJWiiAGqdTGOhQrNAI0CmPQ1ZgkAKBU4wgQWIcWuwMdIJgaLVFuI6DCOrTiyW1OagMA7VnvAHsFClqNS2O7aSCO64AYjBthROA0qVIZ06RWGnCEvS8HD0BksiAc++xMxA1LE0cPaKhy2Qd9lYc1+kmdjgClEztiDgK1UKDEPk3ohNqmyjWKoBDGf3+C9Fm1dkJyQRvBGcQQJ5dKJ+RallQ8IKI6WNbHQaOZBJxgDRPTBEB0DX5+G0BB0Mv7pqAT4reQqk9rAHUw5oh4QENj4MzNq0oL6CBjDjuXGhXQQUuZpn5gBAg3mhq5ZIXzQX8wLIMfxwsAbTmbpewBFQFiZ/8VALHVGqhOLZpQT8vUcQLr8HlAInYuBdiitmZ17DirDOqHGjy9G95BBijjCbZHC8rStLNsUyPVV7Qv8istAAHi5YmlAU0NUy86umRPKgKYeHASS6F4yJMWyAlKLJO6bpCZ6kMdl61Fna6McCkmC3EEmFpvIGgT5zo2kF0HGLjEicSpb6EAyBdtkLn7hiUa9LT9XMcsxdAFzu0h4C80FbZP6Ev/HHFX+yvmjtkMxdi0qyIcYNGr9NiDuZ190lFWhV6N25Turl7MMyCD+IUQ+kpZUaqdWhd7yIQ0e4/IHCvp5A+yV3+TPAu428m0SrKzR0ww6qu/OQdk/8mb9sf29uFyrX/avbyc/hW4/t3/DWCPTn8hpPt/);lineShape=1;" parent="1" vertex="1">
                    <mxGeometry x="120.85846601271018" y="33.42710908061986" width="1.1441859506844285" height="7.060340158266133" as="geometry"/>
                </mxCell>
                <mxCell id="48" value="" style="shape=stencil(lVbZctswDPwavWJI8H5O0//ITJxaU9fOOE6Pvy9UDV0Bkjbtmw4sCS52AQ7h4e349HoY2L3drpevhx/j8+04hE8D83g+Hq7jTZ6G8DiEh5fL9fDlenk/P8/vr09T5PT07fJ9WuHnjONI1U0odr/mL5Fy+vPh8xx/Gs+L+FAoJRXPjpLfBySmqgGyRAj7gJzJRwWQJRpIqRSKTQFyosj7gJbIFwWorn/ZBlRirwGBPDhDa1QNIFPOGMAK0ByFhlMKGhCooZQSsS50y9QcAHhyWQMaOQCQI7IunHcOI7xFTDwAQMmUqgZUWOrCVLI9tQNyLaIEswP30mzLVUjR6qutL7EHyLpyVeQK1Fc8FQPgvuc2YKXv0iiAlOR30mcQT2UgphopBQtwgCXhJJbVDsijoYtzeQbkIOkqacUSMrWklFZ1AH1moeZlqQFCxNmMSRnqW8RpDiG2bagNMCXjIDEE0HctVHWphYcCdhAWDeAjV5e61TiQ56TWultOrQm5OvTf/whIYeWI2pneBETfxXafKQHORRYWzRy907CtprSai44K2oGcjpcVkKldz/ceH/oE2Ik34vaOKugBrk/AuxlgJ5ZposMz7GFss49Qc9F2CyYG5Evv0a5x1FCtpDJs4hGVwnRLJh5l7wv5bOLR8J+4N7WFVypho0RDTwHS+d9L4cfx8vD3Bvoynk7zBXb5395Y5dN82w2PvwE=);lineShape=1;" parent="1" vertex="1">
                    <mxGeometry x="120.58612481068383" y="39.24580913811701" width="1.3769975405001" height="1.8492897193530136" as="geometry"/>
                </mxCell>
                <mxCell id="49" value="" style="shape=stencil(lVbLbhsxDPyavRIUqec5Tf8jQJzaqGsHjtM2fx9uF7u2aO8Uua1ljiiKMyMO+vC2fXrdDMJv59Px5+bP7vm8HfTbILI7bDen3dm+Bn0c9OHleNr8OB3fD8/T79enMXL8+nX8Pe7wd8K1RpFHlPDHtBKYgvxb+T4B9rvDNUAohA4gQimtA6oSpw6gSrmsA0og6TPENq/cBWShVjtAqhR1HZASaX+kXEjAkWIh7TOUTAIyWImpz9AiJQRgytoDMrW4DpBM6gCVSgaAQKHvtPW+8jogJIrFAxrotDGHoweEBvpA2vr4QhmdiJqLtx1AyUziKhbK4DzsiVfthgAthFj6+AKJmmZWLvGRGth/lGJfgIlJQQHWsuQyWMWIRUaK7AGIFCPtmj9SBaQYid2zqCbKFUvHASoxKFojFcdTpgqKNkBw4lR4SxpuMuSZWvdvqVB1TK0kqA9mYT31TDrIVUPxFhbY5IfEY0W0mxTgTJmq3NQA2C2zOVxdUgDs5lnr110A+y/lXbcZxNsz4tRpPAJu8eX4NJvD8oo0YsBsUe9fmUlBByJ7dUa7ZPSw6Syt5XEus4nf73Gg2htGwE3O1UshUQE8LeapfQk6P9b3422Y6OOFIriiYo7Xd21p4/346nvA0FHNDkt08UhlNVOqPh40wDgsxcWjJ/CikUu9yCdMg25yMX8H928aj72KI0VwP+YhjnGWEImSb2Rc4ST19QH1/wD7uMzDL7v9fhqnr//387MtTbO3Pn4C);lineShape=1;" parent="1" vertex="1">
                    <mxGeometry x="121.92391721106955" y="38.54775600805465" width="1.1366671115989462" height="2.2738926412533806" as="geometry"/>
                </mxCell>
                <mxCell id="50" value="" style="shape=stencil(lVfLbhsxDPyavRKSKFHSOU3/I0Cc2qhrB47Tx9+Xi4Uck/ZOkNtay1mSw6FIT/zwtn163UwpvJ1Px5+bP7vn83bib1NKu8N2c9qd9Wnix4kfXo6nzY/T8f3wvPx+fZot56dfx9/zF/4uuBKI84xK4d9yIhSXg++L/X53uLZPxGzsY6MoANCoiwFwohLXAZIpBQPIgVJfB9RAwXrI6hN4qEIpGkCplEEOTSO2SUshaQDQqHUDqBmyFIMmYbPuiWJZR/RO2cbUM0yiC4ViAUISACB4mnojBiHNNCUL6OPkfiGYarNi+uBhTRz9xkVlID+hJj6JigQeKNuG6JUi8JDFd0QvFCoAaA7Vl7oCNamH4rQRxslaDtUmrYLMICTVP1sPTYaC79ehePW1Qh3Qqvrn6AEVNGljCtGHlEAdlBNxAO1q1EFaOKul1ikBuc5qdh0UiUHhFNCdllTxqOXqKNOVljoKSa9je9HoJxoAKOvJqbWPNl+7LGvxABSSXAK4BiC16k0WPOCzGXTTohWElJXW6GmtQN65UHQApgIu1y8DWAG20jPRIKSknNi7UtrQ730AU7IelOgOGihe2uUCiLAfYvSjPadxed7Xkr9lOFMADtgHpLsGUtLNDBW4B4TRvJd8h67uE0rRthpTQ5NnzMphrtyA+nYSlysxuLFj9nMtQL3pa6nOPiC5yRirV/aAel3qanT2aGnjRqk4ezQ/so4Dt3fC2urMrDZfhutU7j6eTAXE/+W9+VN7ffhY0l92+/2y41+/90u9Hi1/CPjxPw==);lineShape=1;" parent="1" vertex="1">
                    <mxGeometry x="120.59296896694653" y="28.35796615254958" width="0.7070724041382086" height="2.7259467980285863" as="geometry"/>
                </mxCell>
                <mxCell id="51" value="" style="shape=stencil(fZbdcgIhDIWfZm8zQAg/17Z9j85U606tdqz9e/tmZ0c0uJ47xP0I5JwEBl59bp8/1kNwn6fj4W39M76ctgM/DCGM++36OJ50NPDjwKvN4bh+PR6+9i/z74/n6ctp9H74nlb4nbmSKZeJCu5vngmZ6jzzNAO7cX8FVKEsBuBKrgKg9oAE8gkCbLeUhEoEQKSUDZDLeWYRKIl8MEDRmHwfyBrBG6Amyu4+kDxxMoB3jhwgYu7TVAsVkFcWCs4CTBEoF4RctKeOxHIf8IXYpikHikAIf+MNUW94AGSSaoAoFIE3AlOyeWU+p2E5S9yfQZcQILVuQOwZdJNoS9Ls3wA5u2XZTIHECqeJ9kDpSaauRiNVcAY1QhdBzeLBli5WazpkSsBLV25uRaqWRyFawTQzRRIQYirJzq5atkBqLfouwqUxLBepthWb10vrWZY6UOAeyKCCtDV625mm9gmUC4Wc3VLJMMIE1BsA2FW9JraVlQB7n3c9oMKhCLEvIM1zBPZ25/umNQ1tVEC2G+fFCC8g398O2hNQuQlVu752DBfA+q0ptnqO5JFmeuIuo9DY7KjY71UxdJV4EntifPWorW++R/dC4t7V3DlIB5cHx2bc7eb3yvX//QNFp+bHDT/+Aw==);lineShape=1;" parent="1" vertex="1">
                    <mxGeometry x="120.94170066933387" y="26.129927654306925" width="0.3959779467893864" height="0.3953590013863227" as="geometry"/>
                </mxCell>
                <mxCell id="52" value="" style="shape=stencil(lVfZctswDPwavWIIkODxnKb/kZk4tadunHGcHn9fqBolImhvJ2+yzCWuXQCa4t3r/uFlN0l4vZxP33e/Do+X/RS/TCKH5/3ufLjY0xTvp3j3dDrvvp1Pb8+Py++Xh/nk/PTj9HO+4feCE6YWZpSEP8sbJo3/Xnxdzh8Pz5vzUYi1Px8oBAAoVB0gkwJAihRSB5BEMQFAJektxEgRWNBEkjuA2WQBgEa1dAAVqsBCVorcAbLljW8DSqDcOoC9KcClkn2WSqVUbgOqkPQx1EStAUCl1gNaoAgstEbau9QKCbDA4Z06G0TDJqTPa6uUATdmD3puzFcggHEtekCuAGB1Giw0BXnNVNsAQIWIXnIGqIhMdp94QAKiLoVUfVorcMnYJ9UDBAQ9A1xazWaGLiUHyNRw0CV5QAQWTBA+SwrJZ4XLyQMKpoYGD0CFM/Ix+xgCSKslMTQPSKBwRgRvwa5AMbxzcwMoSEAml0GiiHz2dxjYCoO25joISBGAhxhMQCBoa33c03vTqq4jrG2MXQABwhWNKvDJ2rtXUFuLf0tyWoZCAH5/GpBttDtBMDEai0K5F0TV1eb1wZu9giwNKK3Kw1hkOHiT+qFlTiZQh2h17eug1p9BDDGtu8Vm21Aw2qWsu8Vmn8mg0iJ+KtrGhNaTeQPrY2DcBZg9+Wzrq0DUwW9YQhHcP+wBDHt9WC/7OJ5AS2LfLxhq2eZC77vtZmg59L6Hdfe7rjLvTICS4SE1uBGxSaz488AdVr8gmT+gsEYU9f6jKcvNrxYBc5lXdzfFAsz57PfL/8/bw8fH0tPheFy+tbb/+48re7V8mMX7vw==);lineShape=1;" parent="1" vertex="1">
                    <mxGeometry x="138.80890128629318" y="34.507696927137204" width="1.088747485455623" height="6.143196644030252" as="geometry"/>
                </mxCell>
                <mxCell id="53" value="" style="shape=stencil(lVfZctswDPwav2JIggf4nKb/kZk4tadunHGcHn9fqBraBixtJ28yhRVx7ALwhh/ed09v200K7+fT8fv21/75vNvwl01K+9fd9rQ/69OGHzf88HI8bb+djh+vz/Pvt6fJcnr6cfw5feH3jIuJYp1QKfyZTxKF/O/g62x/2L/e2KdMMRr7mKm1dQAXymIvKCR1HZCZcjMA5vGJRUBJxMUAcqLC64AaKVqXSqTSAaBTCRbQoUuiOckG0NRJEHTPlOwNTSgHAKhULUAChQgA4usgmiXkUqdqmSEFVjoG9cD51IkTvMKVuicSUDkNItq89kIdASrFZAFCjPLKVC2ZpjwAbvRAvXlAB3kVdeAOEEBe5T6GNk7W2JddDBnWQZiKS6tGVSAgd1vpNqJac4kdNRhnSZuEo2vEWZLx+qKgPui4VjhX6daoA1ErNZi9RiO6QWPI3iXYBdSB5IOuWECu9WmiKyjcxE2XVo0BCaj7TtYj1oP4tqHk66BwKlFxgEYVdbJMxY6gaxqWAZHEUuOmVS2TqVO6uyKDqD8NqELF+jRpCgzeGoit5FqFk1pnmmNfbaMvrA1e11yLjEG5PNqVa1YQWSUHbkiNkpvUOorRSClDL5ddIMAukDy9I5aoctkxo8KxG6jZNqbbDwP5hCGui72uV0DQdxO0w8VEOWFZp4MBmGsHdfWCPTh5PvDAL9NhrBOXWMfWtMxPSrbXhbEMLJq3sd1czaGCxx5xNY+gp8RARZy9IPtPrs3/t9eH647+sj8c5hX/9r3f6fVo/j/Aj38B);lineShape=1;" parent="1" vertex="1">
                    <mxGeometry x="138.0506961275653" y="39.255397828757964" width="2.3251957120781577" height="1.7448902929651413" as="geometry"/>
                </mxCell>
                <mxCell id="54" value="" style="shape=stencil(lVbLctswDPwaXTEkQYLkOU3/IzNxak9dO+O4bfL3haqRYsDSTnuTaSwf2F0AAz+87Z9ed0MKb9fL+fvu9+H5uh/4y5DS4bTfXQ5X/Rr4ceCHl/Nl9+1y/nl6nn6/Po2R49eP869xh/cJ1yuVNKJS+JhWIhPnvytfJ8DxcLoBNAV0A0iJUtoGVKYQDICFuG0DJFLKBlAixbINKJnYXql0qnUbkOt8gRkgjTIDQKBqs1QrZfCGJB7Qy5zodQCT2DcoMw0AYiexb+idWACgUHRMhzBTs44IlLs/QsARQqna+AaZTtStMrru0LfjlQW28Zq1iOKd8nogATnV/W1KVewCvKD3d/GZOtCdeNm1JQNbBIilrEV4IeU4iQcwELaqqAUP6IAC1Wm1mmhMBbx5dIIDFGpIFM2rrjWqIEsK8F6L88o6QL1rs9QzCchSyrMVb8wZ0QlasJzyGnVEnJA463QsjUQhegBKqyr5/kbgAL7zZqWAygtx8DktoGirN135ipCDQFy8KpD3k2dglB1S0Vo82D+q1a2IpOOWoCdYiscuBU7QNhltH8yJGvBmCXMGl9as9RS8WcSLQmUVAclV5r669PK59a7Hq8asSrW6AN9o8Sn2BYEaEIXW21xdfAQcjMOLj0cdcOwX2cUzoEz7UfHvDeA+2u+ci3WWQvHtbpaiBsrKOBJY1xQSYMqbiWAZdKArP6vUYmPYoDQ+WNfEOM+T64D/nU//AaAfn+Pwy+F4nKbp2//9+KxL0+jNj38A);lineShape=1;" parent="1" vertex="1">
                    <mxGeometry x="139.68012465805072" y="38.89599261498256" width="1.4240381041070391" height="2.1947429604428548" as="geometry"/>
                </mxCell>
                <mxCell id="55" value="" style="shape=stencil(lVfLbttADPwaXYldcl88p+l/BIhTG3XjwHH6+PtSFdRoqXgU3+Q1RxKHwyE1yN3r/uFlN3B4vZxP33e/Do+X/SBfBubD8353PlzsapD7Qe6eTufdt/Pp7flx+v3yMEaOVz9OP8c7/J5wJZPqiOLwZzphyuXfwdcp/nh4XsYnSqGLj0JRAECIc/+APJ98DGBK3AFEqCkARGqxAyQDMARI7QA5kUQICKUDGA0ZJR2oSQeoQopoFcqtA7RI2q4DaqTa59AqFUBry55WtTqAHNQKlzygAZa0Efc5aIFaiiFQ6MWkdZbX1Uf0vL6fXEsiJg9AvBpNPgmFSVTjtXiAIjElqn0hFjx8iDB1xuofgQSeEql4gICspc7qXNBUAa/WkuposlsA+RkgiQdEkLQUEle5QgxsIPHqCZkyAGTr6uwBAbA0+oaTa4IdUXlO8ZOAxiSrHNAraZi1tgAU1EFlLtOCVkEA9e46Fg7ZgBKvmhp5n72xl7eJLwGWGsVVywmodG3UVk0NJ0Tzddjs0Tpr7ZM2kCq14AEZdNDNAKXQN5DxhlIoM+n/45lCBSn7KmzMuJUpbQzRRKX3yY0pbS7ZF3ljDbCR28tuY89gz8/GIhO9IjY2pdUwxJtY8JYdsQFTbS5cwN2btzrbaFCuyW95gRJoYV5ZaaAI7j+KmV080rJND603xNvErLe8j80OJwacr9lD0Rv4tCWYe9fF5bI1PjjDgmq4ee3fjLeL92+Mp8PxOH2iLP/33yR2NH3PyP1f);lineShape=1;" parent="1" vertex="1">
                    <mxGeometry x="137.7468034755622" y="27.705509297024832" width="0.38913407150368456" height="4.971281747693711" as="geometry"/>
                </mxCell>
                <mxCell id="56" value="" style="shape=stencil(lVfZctswDPwav2J4gQSf0/Q/MhOn9tS1M47T4+8LVaVrQPJ28ibLWOLaBaFNfnjbPb1uNym8Xc6nr9sf++fLbpM/bVLaH3fb8/6iT5v8uMkPL6fz9sv59H58nn+/Pk2W09O30/fphJ8zjgPFNqFS+DW/EUr858Xn2f6wP97Yl0pBjH3MJACQ9bxiAClQD/cBGkCuFlCpyX1AVID1kCO1AgBMnS2gEXcQUqQQDaBkisCDRuySLo0qqpKeZ0PiRBWEVCJFWyWW0cl1QKduc6iZMigrd590vb5ZBVRN0VKpldGZVUDj0aYrQKjn+wAplGzSkqkAD71RzgbQAyVQ1i4kDhCJQeN6p2ZD6pgaMQQKwSIKCeicumBbpl6JQec0ieKSkKHadcBVYFdAp+nnXUBZZN1xDsrm4AEdAQLxAsCAfSLUgk+aQSNEuWHpqmyJoNVSPb87jyDvAhbcaMiDhmSngNYtALpq0tUBwijDvbIWCxAlMCirBuDIp4CEJFfGeTeADEQ9kS97AKSGzvvuNYqqNDEn+bIiAa1rFM4NraLjhl6UKGsZerlhX0WNaGNa3/BbUEhMZaFR2Gq9D2yZbuqwjoh+eZhcgLkxcYd9Eh2p+qOA1vy9qL1Go6zqtWnrqiqsIGleTHxJsBG6YnXrQYMU4EHvdrEeWhqjZ317iNStSPUuLoB9Se8oq7mKB00sVG0OXOF0bUPCV/sI9aABuQ2Lh8dV+4VAcx9VXk/AjzFdMyugRdS92A4ZPQLNPY3IlTRWKDcNgK2HmODqnYvXp8D7KssiZ6ogg7zYMyIUQgkkNp4A9/SSKEdnjyqqO3b356NppIxh9vYoHh0V/vy/E3PdXvw1EuGmpxu304xqDJyvc4Itg/Lg4Lq9KsrGU+AyrPYuX4bbiMbjduFGAdt/6FPy//b68O+79WV/OMyfvbf/++9cfTV/I+fH3w==);lineShape=1;" parent="1" vertex="1">
                    <mxGeometry x="138.1647284310348" y="28.230465603235075" width="2.781041961590737" height="3.460290872604766" as="geometry"/>
                </mxCell>
                <mxCell id="57" value="" style="shape=stencil(lVZBctswDHyNrhgSIEHynCb/8EycWlPXzjhOm/w+UFTKIWJC9U2WdmlggQU40N3LbvO8HdC9nE/HX9u/4+N5N9CPAXE87Lan8SxPA90PdPd0PG1/no6vh8f59/NmQk5Pv49/phPeZp4HjhMJ3fv8ojgI5fPNw4zfj4cGn12DTwwp9fEOXItnD9738QjTpy/4EAENfAIuDR4LJCN+DEBtwhmcFY8cl9uAIHEfTxlimwCCN/QJRRfAQaQ+nrGGe8H/U/i6PpKvxnPo47PIzSp+yn18IUjt+RFcNPBZ65lrQa7jCxRq8N5DsQip/v9CiBCMCkwNH1qC1NCSyNUOWyRykK2aldryC0GaAvuEyMCoCWgkHQJwq5IYFY2QKEBofeklSKOvxWjKyJ4BDZWQwLcqeayzo0egllDqCb2IYlKdl4xOJelsVTYoRgIyeJJ2ZjEUiglyUHjLCcl9dyYZ+mSvz/d19l3va1/rc5lczvKB6NnGkwCNeLz7Ntu9OMNQVLwflDVlOhldejNBNEqtD4hq1XvjMajxzlCMfSBeViqtLDROekCubEwh5HYCr6xklojbOhQ0dyAvjbAQgmmFWOpAXAhcm/E6gSCqHGTMW2uQa4oLodTa9/ZsUm5w9iYkVxf3/zJkIqlduxKUbJoSb0lbllu6SVe9qlYKh8AqATRn5O23wTW8PFyunk/jfj/fXL9+11dVeTVfc+n+Aw==);lineShape=1;" parent="1" vertex="1">
                    <mxGeometry x="3.06958539128037" y="95.76219446982464" width="0.5677856338614882" height="1.9631521542234653" as="geometry"/>
                </mxCell>
                <mxCell id="58" value="" style="shape=stencil(7VrJbh03EPwaXRvcl7Pj/IcBy7EQxzJkOcvfp5gHjofF90rWMYBvWljDZq/VTd7FN18/vvtyfxfc1+enx9/v/3p4//zxLv5yF8LD54/3Tw/P+Okuvr2Lbz48Pt3/9vT47fP7y+9f3o2V46c/Hv8cX/j7ggvOfBio4P65/MVn6+6/v/x6AXx6+HwC+GopLgB8omYBwPfqCkgWiwDg33kFNEtNAILlsgBitKgAh8QHoFkVgG7eL+tTkhJVK21Zn51Ff3t9sdTX9VBav70+W17lL96yMFqytiqoFKtJrSd5Kr6v168+UbM1vX7VT+3WhA8ly6s8LVoKrzhvK1bE97MFt67v04I/pv8eLEn71tV/OuSR9qKg7NFqVfKkV8lfzZF+kgUhf7O8hnCtlnWAufXAFXlGOLT3M2APDw0vxjyFWLKu0lDkmEx1etWtNFRWpSYnnRqJjqIgHnFxHVAsUCpt0mwA9DUOQrQs4mAk6xXguzmlpTb/fQCgVrVDm455ALxMdRCAfKlZENUA1YXMkK0KpUIjfvXtIOVBLPR1PTxVaAilpURa70Qox2599TtvQaXGzOujBRX6UDfVDivivLmw/F2eN/e5/cnAqjahFFU6MIqBSo4ItLRaDCoSYVDalPgUN0H4RA3TxQ6dIvTEGSoS9qpUmMULqzXUx1WrSEdJASDAmuILUrzwo+4srWdATVZErSfeoYJGCU/qlZN201Wtd3YllBGvdkCVbwzIKkO6I7hOCJWPsAWlyJYtii2GTIkBVe9AlQe2dPrUzC6KRQVok5ydAKpUARA8A1SShKnLRpAUwQDA7zso3yictscZRJ4HgIJ6aEnZIXOMDjsokdJ0/wPgJYsE6YrEYlAeRVB3z7WkJn1oZ5l20NUBvI5iFMkwKkBl6lzyTLfXAYkDCAm9COdrgck8SoYCgDtSTOdmXRWIbtHxDiqmUVFCYoDyVghAvlSOvvg6ACzDMaAIkQbZLKxWyQPCxoi97NnQwjo6Q5iJ5zrzaazWEmTbDKpE3loOh78OKJOSnwByB2SNympVVXF0VptrKHYyWp/NNVSaCVuqzE2myu/DihMgKpE69w0ABCFSdNzuDYBQa/ST7ZwAWZwhBnOBtaT6BgB4gtGnKW8BdkuroggAMSz4kiq74wxbIlNJAFpKWzyorhh2YJGCbMdgaU4CQZL10Q9uIikOB2+t2w4qkYWtsI9RkvLWg1mcDNdVQ3aMXk4A5d4AtM2X1PQJZ0jkrSgoCtDmMOIcDyrNdE73I+JUPIC3bklApXs4HxV2AJLa4dWAymwmV6ml5KdvngCKzaTCXCMfg6brVTQwM0Z3GoUdhsSk1mMUd50JxM01kvRW0CkKUQBUyapx67+jHESBdPrEO3ihJVA4mga+oKXBKtfcOuiPagciF8WSZIiO3pJya5mWuUnWt4GgU4DKEQdFq1YRPVCiHepLzSiVrOZ0D/Sz3b0Afra7/4t2N18xnFeAyDy0Re0abvZ5R8h1eei2jdVqkNl49JZr6kNiUk3QuJeg1Jcld4AAZd0BVUz2lpXHm1HfhaAE0fAxaGo8Jq50LYD8LETKmSnZGOOrHeK8gD1P+RUV6JxcPaqYOHTKkx59n/I3RR0cMzKQQOF6MW8MTtIrqLzRZY4czw7SSjVXhgI+F1av6JL5jKG+Y4U2Rbs3quSzHGGH7V7A66HJuGhZjwAh1dwe3+s0t9e022+VISZ939WmkQ6r+UkLrgMqU9ZUpVp94bsHBJO6bvGZAWiw5K1gmi3hifmou18f+dBj6qivQsnSIA3y0JtrDMYovNs7Dn8QQHn3MNPPsV6PQOL0zMNXnb5Vc1yqUO3UBMTxpWAPcgrqtgty/UBh521FPopxPF8ZDxrkeSlyxoMJEZvbhKjmF+ShMVr1+o3Olq6PJyw31vMDFF0/Ao8xRhmXDkQjA1SspkomD4hT1CPoreg3yaXa9hTg4Bm3IozmBWPYqi7qPfP4EUQqcUUew3j9RgSp0dM9bpKPpAAgsgaAmkgAUDcaorwC6Z3cDqfq6tAb8QdAZus2O7ozQGXrxlVzANShOxP/cQZ16O3BBLSk5vqjLvvNDirYHE8kAFDZZaQjUmuWnfAAZAbIkd5rnyX+AAA/fH8F+eHh06fLI8rz//nVJP50eXEZ3/4L);lineShape=1;" parent="1" vertex="1">
                    <mxGeometry x="2.89804141990615" y="94.3048622248233" width="5.9046188528392864" height="8.096596202792586" as="geometry"/>
                </mxCell>
                <mxCell id="59" value="" style="shape=stencil(lVfLctswDPwaXTEkwOc5Tf8jM3FqT1074zht8/eBqyoRQWsd3WQZK+K1C3CQu5ftw/NmYPdyPh1/bv7sHs/bQb4NzLvDdnPanfVpkPtB7p6Op82P0/H18Dj+fn64WF6efh1/X77wd8QloeIvKHZv4xtPmf+9+D7a73eHmX0Wirm1d8QZACpFbgDsqIITClOILaBQBSeUSLk0ACmUAgBUEmkAocIYqqPcupQcOQTwxLUBZDelYQkQ2hiKngBiUEBsYyiZCnJJSNoY9E2MAJCophaQybllACcSbwGlAkAhDhbAfhkg2qxtL6mTCbgU2KZVAR7UIWqWXAuIVGQZkCL5aAE5AT4kKt0JFcSgdXXexsDghBooiwVkUIdayXd1CCBoBRjG1QLTqg7EagHIJaVoNVlS0oKglS7BW8B/J68XToM2wucc7O+YyddViBCn/v+iU5IorAqb9Xt+TWKVpEaOb5SONepW8G80h/iu1rj9pHa6gRs8dCPlBoWS72KIk6IvTTnXnYBkoKgyBRsDZIQqU5clJGVaJldsHZBYzprzi3q8HqHtJ2wBiBHCVEwUeApJmLIyn3OIQsFS6DJJ0QlCtZ/VqMHFSr5uAx4F7a/sGwKGu3KO27TqRoO2MhYrZloZByjk69SdHwAP9w3v7djSvS8CQNdKfkrzgrmYtRJ+nbstdErAdQGwa4CbRuRisMnYB0S1YoePmwTnuveqPsHYO9xxQaw9mjsftZzZA86EYttHd3pAmRjs4oYZE+u0LX/ao101sZUV3afRLF95ibltrw+fN6an3X4/Xrjm/9sblr4ab2dy/w4=);lineShape=1;" parent="1" vertex="1">
                    <mxGeometry x="11.465146266726848" y="95.19304903464581" width="0.3748785362535334" height="6.460309867207196" as="geometry"/>
                </mxCell>
                <mxCell id="60" value="" style="shape=stencil(lVlJchw3EHzNXBHYCstZlv+hCJHmhGlSQVGW9Htle4j2IDGdCt6GTSQahcrKWvqUPnx9+PTl7hT919eX57/vvp8/vz6c0h+nGM9PD3cv51f8OqWPp/Th/vnl7q+X529Pny9/f/m0rdx+/fP877bDjwsuuNg2UPQ/3x5El/x/T/68rH88P12tNxfDvN677c+j9dgulAlQXUpifXFtPpC5LvaP2N+m9dkVE+ury3Van1xux+tTctFP66PL4vypuUYX5EycJ2fe37sm9s/dpUjrozi/Zb5/77zwb0nOJ1pv9Xh99a42vh9hby2uz+fJrovztMiEa9K/LTs/+zcEF8SFAlD7DNi3OAIQ40J1Ub0hOptNwJ3mIu6oO5uPhEvyIgiqMelA86oACPvZCwk0FTaUMlizA8ylIACgDb2hSWIblGU2OodBldsAz5GAWKriSLkMIuwAkFHETo7MbUSf8nReHJeb88oGiFVlQBAAXGtuDFB6Csel5UhFU6N3NlrFQ62sMAAoT7fAEgBXvr3zNgA2EGD3zG1Adz3PAJN+6NiP3lAllzpUaxYBeCYJG3oZ++0AZJYsAI2FrBQpZL0PE3dAc13Z0PlI8H0RNgTvWQUg54pMmxFzjML5RZ3JOP1vgq7uFfmK8kMZGf6IG3nmRmuuCkc0c2G2oSNFK7oiJc7cAL2alm8KOdCrqAQRRo22A4okE6hTZzL1OpLSbWGCDM1+6HvhcaTGVMdcseWoUqK0CLYUVYrV5UxNRkTCpRhbndQbwL7lXk3ZsNAVBDbBDRwpL65W7IPRVhngFaAtZEqygst+ROQVICkASrLKAFXP5MR5FICmimJjnYHRKqgB4DeYLIuR+Uks4emgAMZlIrjkNYCkDwAlG7iltsSDiZDLcVGBJmvpzdMUD12HaF9s2NubQ7Z2BiTF1rKIQJX1/RZx9IYygvYIwI4z6YdNNRIDvDaaCiCwNSob2iICiBDtOGYrIk4BgqvpXYA0qvkrgKoFNoB/F6Av9M7jGo4aAr9IZRTxUNB5Elvj8P1R75pINfBENa959PJXtYMyuraRPq6qk6Yq1z0b7IAk60ocwGYAukfV1MDESIAi/dCXzF6jbDlwpDa/oVQ5M8GdUI+/uVIZHTkpmu6C0KN0miohT4tbqotUWpI9SjFWPtNpF/2CzwxQHTV6xZQYEFRSbDds8EqXOisf+izV+m0zAGpfq4w4CBnVodAR1aOgpe8ECPoNfQw+9rlDl4l9a8Fn8iVdCVgfxc4OiLKEQ6PXaYTYZU+DcCkzNaJJ9d7YSoAgrxURTH4IXea4TflmaoQsC92aRu1yNYeTcwc/5oa7GLugBkzGt1pHn3YUb9ziy0LDlg7fxmT0qKKMPLhW9uZl8l7GTO6oLPFG9ioSJc+9jB5F4bhcMkh1CYX7DDhYkTR4DuXwG4XkMVHAjarR9TKX1Z8OjNUu6AFL5m4y7Hnrtgd4xrrtL+yNXIIFkykn8Chwux+x3i+D7n3kerCeKjyEvBpjeP5ygPV6f2rywIcqItIvn56SvP9FFEOUQ/H3fgr7/Xr8+P+72/358fHy2e76//ydDo8u3/jSx18=);lineShape=1;" parent="1" vertex="1">
                    <mxGeometry x="11.05358760986401" y="94.4369968037729" width="4.36405787731408" height="7.959139779912806" as="geometry"/>
                </mxCell>
                <mxCell id="61" value="" style="shape=stencil(lVnbUtwwDP2afdXYki3bz5T+BzMsZaeUZYDe/r5KdxxiJTk7vG2DTmJdzpHkHuTm7fHu5Xjg8Pb+ev5+/H26f388yJcD8+n58fh6erdfB7k9yM3D+fX47fX88/n+8u+Xu8ly+vXj/Gt6w58LTgMFmVAc/l6eNFL+/+Drxf7p9Lywz4UkDfaFYgH20l/X7TPlsG+flFpy9k337aVSrYN9pZSAferH7fYxkNR9gMUjxxHAVMEXOFEbIxozFfSFQGl0ITYKIEZRPYCZGBwpCvHotEU1gSxbTFoYARZWkIZGabSXSCnv21eSMaiWFwUeFMp5tC9UwHmsKMf3p9mjHfswvj8lSoLsecxAqj0nO/ZltM9WRIA2lfKYsIl3DcVfx/drpAriEyPFkZaqPQTbAKbWRt4HYhAhK3oZXShGPQSo/kilQCpzpOCoH7o47TGTxy9UxswspGNZVyM3iJJVfRy5X2c925Oj6o5UqUSod9npdaAIMp1MfEYfGsOwWmWmMdNNqILay60L6AxIPW6bAM2+Wg2AjlTY09+OVIB+ldbZtXAatbWa+wFmgKUSEU5IXGlY4kBpmIu5eoAACWjW+IoHMKjWZhIhHpCQD1ZLrvhw42km89EDCkicAdoIsGpVIAIToPg8ZOR080ppmUYDhjldHECuhVWTB1SUafXNzXIfUZTSKkpYKu0AeU1RoBpti9MM+GBRL+zDiiYGA8g6cSgPsQ8Ui9LIKKzca3NRfIpmEmtZK21FYvwR9SWB0BfmWXZJUcRp7Uq6FAFM0Zg9oGKKRvVRSuhIxuDm8yBwNgw+EZZL6HXryrgoJkbl2nxnt3INKHPVz28GUBzXzwEmdXdh0t6JtwGR1BGiwo5SpC86M6ARA8A0sblF4yM12526rkg66+02IPUjLwAZTRvqt6Up0sCJaX9zR8o90nsTk1tNjLaoXiVsSBkSGtZeCQtGoOGet4SG0QLX+ug8AzJcf2yYrg7AcP+xcd05bSMRnAV6H5/tLQ1wAYrOPkKZyb0K5n2jQEaLH02U4eDAvlBtYWrA39WgnueBbtM++Bk34Tl9pZG2UKJrBrMfaZDwtUTwI7RoL8Idf90QI3OEd+IfRnurELRQWn5H8TIWoamq9LctrjAqsLeF1d0wxAYDFFe92Z6gCE0pGEvOSARvhlZjW8VXVcFzwA4E3i+2QY8xErjDTBUz2kd4x2CboVu4A1zbUvPb8JVuU3zKAqSkiteUBEvI1kinWQo7h/VLN0uVa/3V32DAuX+yd8Md3GrNnl2vhPHUVRNokMJmz66PwWavyed3uhoFGqfz0rEAoJnINLytLl8VfYF9iU5fABzT2GeBpQ8IMB9gAUAXYZ+9ML9ubz8+bucfTk9Pl8v95d/9bb49uvxPgNz+Aw==);lineShape=1;" parent="1" vertex="1">
                    <mxGeometry x="17.279312787730035" y="93.9966867669217" width="5.103326117950658" height="7.4748685962050185" as="geometry"/>
                </mxCell>
                <mxCell id="62" value="" style="shape=stencil(7VrJchw3DP2aubK4Ezw7zn+4ynKkiiK5ZGX7+4BR2NN8mH6tpHL0TR4DTYDYHgBe0odv95++3l2i//b68vzz3e8Pn1/vL+mHS4wPT/d3Lw+v+tclfbykD1+eX+5+enn+9enz27+/fhqU469fnn8bX/jjjS+I63VwRf/nP7+4In//8OMb/ePDE9DLQl+dz4S+u/F/O/rthyP6lFZ5ousnB7SVobnUKYMvC0OMLjeqcgUGcblQBtA5ZVeZSG3e+WTIgYtUnaxK5xORiuurSKW4whhU4vWEqrfEdEgu+ZVBnCTCEJysSrfsCnMN71peGfo88yZDd21VQZKrlD6srifNeRILMr+20XeqsbiwytOjC8QGDW2m9IWYoLlckb4T+euUdqNXGwZG7yvSMx8qLnSkZ2GQXRSkb+Q+VVpDX+sxfZzS7ugzy3VOItJHcj/BxYz3L0Qe76QgPQtijyGp9J74s8bL6p89UHv5qd3mz1txOKD34P/JBZKq/YymXfxGkuU8+k9Tj6LypFX+5l2n+ubV/2ul8eVnTt6nROI/HuOxiCtUX5CnZNe4vut9lkDzldp3vc/cpkcdybPeZ840P3iMF61izF7qjev9JJkZ4CB+8xpfqdB8bvJDSs7T/Ab+NjI2q5Ee67weWVkFKxgxA70wcNOmA+zADVNBbdDXO9JCLowhY1JUvMWS7sA+gLc8zRKpugpldfrh7SpQZhBeEWYjlzqADIQxtVot8wbfR6+oRFAeWuUzAlKZF3CbXqbP7C40kgvtmgVXBdTGmdi4KyAGG+uVEhP0fsNPWeZShr4yaLAyowVviofChc6PgOyleI1VS9W6rHYY4c9OyFOAjaHOjHabIbi0BlvWEs0AY0VX0ozKKo5oG7DekuL8RJxJK2SCmhNcJRlGQTokDC06lSXJOL+3MTSaw0qd39sY1JkYg+IWaDHDrIxHGQN70khDNHW0dNUIIpZWBmg9VCQW1GpX6Bnr1r3cVjo5MSewNFkTppmhNDmhBWwnNBOyJrPJrN4bQ6cBpN7aV6UbzwKaKiEVt0q9VQEmtCzCIZ5E7EqF10NVGqqJ5ufGbslj6htdGou4OrP7rq1gmU89BxplrQCROJ9WRJhw9EqBdjYzFE2egdXohDW6C21FUsPMpwysV0vRNDt9ts+3ccnWK+4YGuvuqsFW16J00J+iHTSREV/SbsjQB9pvQt7rQvGtwdtqNZb2DJ5Xt+D9ERq5Tsc6kB9Gd8NPSfhHLNBagQvxiWzmJ/oLQ4aY5U8CreG8aHyfzotSN/JT0INFYUA5NuYL2BEqQ2dDuGBO2CDHEQPOXBqPGo8AQ52UGc3Mi0cQ0KEXJGylZ3PHMlvwfVCS76dZkXb0iTpp9KgvA4UBhxxKz5zIG/kVTvGhBdx/nSj0SB7jQmxoEbG56HwIkRDdKT2Fg8Z/EnXpZpJonhr9L/TaO+GUkmNBbYUAk4+wZx1znVlhf0Uk7FMxJyQKKbTtKGby2FklK04MaPEsyoLJvWFOy49QP/qdp8VP8SyOCWS64lHnApEjmhyZZwR0DdkmRLcZosGCnndfCZva1ijKUZEEAHCem53bSndsOVVIVkIU41fojTofp3SMh9roUKsY1D8QLgOPGYHXEJLFQ8OWsxbaNqdtDr3rjeikUCaQ2/WorG7mOovSbrbLsFEx2y6NEJZmilG6ZDod1QACOKVnsinP8CXYOnaKf9U3QaRr532boeNGIUc6R9J2DW5JLcOaWg15QP1pKzC3GRouRVKgOowdyHrCgDRsZmNCdCzOOAPkVi2qDPKoDgDaxk6bKZ1wXRwK74I7unfgFUizEPR3ge82q/ElhaJ0KlQRiA0GVuPEpYYMbB2XAw55VAdhULJMpPbeYbvZMI8BP7H0QKtrAI0mkSgdNt/cjVXZCcEMk8fanC05I245NdsyrKEdA0wjNKY7yXzmkjI3tCD40QKTWc5ABU7WYGYMdrJmE7zRkzWeYMdwsiYUXMOfrCG3/mNXn+nQeQ6XNohxMmMzkISvaQU7mJM1sLHvyZpZcNshQl8QfX+Wcfosw9CfPMuw3//+LGNH/++eZRh9rwjj4D4BQ0mlW6mMnZrGFx0v45iv8WciFfebiiMjg5lYwiqfMJnFoOZDNkEJ9l1GoX1gCObhBN/CXYHGroQlJpJZU4wXg6RGhs0ld6g0syoccW1/9uoxGnBz8q4yYnt99nLTKH3yNNS04ydPTyO+Lzl52hpxeBqonw71Vnk87VXGC8kG9HRcnHA162mdHE82UR7Wdyj0M/KwvBW2dxLvpoee4EQe8wr2RF+x8tD7FNxnnNhLTNfE/eE/PKXm9PrH9d32l4fHx7dn3/v/x3fe+tPbG/H08S8=);lineShape=1;" parent="1" vertex="1">
                    <mxGeometry x="68.81551371576697" y="98.93225568234107" width="4.077429220615043" height="8.200202137402934" as="geometry"/>
                </mxCell>
                <mxCell id="63" value="" style="shape=stencil(7VrLbhw3EPyavRJ8P86O8x8GLEeLKJIhK4n99ylmwdGyuFNj5xIE0W2lZe0M2d3V1c0+hXdf7j98vjt5++Xl+enXuz/PH1/uT+Gnk/fnx/u75/MLPp3C+1N49+np+e6X56ffHz9e/v78oa/sn357+qP/wtcLzjvjSkd5++3yH2eNT3//5+cL4OH8OAMsAZJpWQPsBPDBtCAA1rQ0AYI1zktArDOgmNb2Aa6ZHCZAzHIPrproJkDKJopXctlUPwFyMlU9IfGxlmhyFIBgfJ4A1ZtkBcCNN94AbVjmJgCHNO+5RePq/vo6Hr+tLyaKHRRT6PerycJq269t6/H+4n3y8IGr9cpmsKjl9ep90vj2an0V66NpntcrL8Vpz+fjrJUGCyaE5QFOxM1i4GaKijMO5H6gyqdNWt7HicB3xtP6aoqgIjdY4Wp9UCFjPO23SCKyy35hwqLWk8EaqFScpzV1Xl9BjMKhHXNKyfL8/djdxkHVeOlwYd5vgkOL80njNLb1sLh4HwT8vD7qRICnzwEPWlcEBIYrc0QGpykxmDS/EUggCwuDpclFcchJhJgr7KNIJVUBECKzEfDMpPMxP0G/EmiikFtrL8omUSozRUQZkrWdE1M0XlgtbF9vZyoFSADrz25hh5/c9mr8Pq+3yqsRxpnXCyeCEgi8vgofyqDRRPtVrJWLCf4HzrN44+b9wqdVVOYlr8rfr5a1EBzOig1XJLJ5w3DpoJ5QmIicThwQMpmONAynvc0sbvG5KoOmbTG1UUs0VgHCiNoN0IasvQ2IJs1mgCb14lhbYr9IXhoaAMo3SefXhheY7ZDj8PU9QCGqaFK5IwGTZClB+lLP2LPh4L5ORA8kASWp0obuvA1YCBgOb9UTFj4CIKm0tp36BnBaiNdBiFeAqJ5QOK8BUETEdcPNdkAxoUhy9SUAVG6Ge1MyB8DrAKp1eYLyJc96H5tuGkDJHICsWSMvAK9OaVG0cA1pB8e5AQAl2aAwyXCIB5UNAYhztipOpqu20D1UpNyDNWF2PpS+WZ2SZSLLB0RmOR6SrryQHyoB0mDb2wDkRJK2XkvbypaGjKiqOG0coknLjGy5mopNknEn98IAFUCpcEch1lEh7ikfSuyxyE2nxEkRAKmt0o2kqGr+/kqzt8Y0ktjupme6h15UcjhVLvt7FaP0m2V9BUBWruEXO4QR5bcBgRtm2IMVe0BAhgWgIi7nwUJXx6p6OwBQkQHDSZWbWWDFzR339lAWb3UqgCLXMVETGexADRsEkBcBlN1QqdchKrgVtBXi8gRVmxQWWFGXkykz3fdTEnZIS1crbmp8D0DN125p1TbbGqHXvqRjutATom7MVa7gejyoJyydhh5xylvdCJfvjekfBSAr58h7UJqvK7zCxyprICQoCtEiuyVQlVRI9xynEntjsQ7be9Wgs0vL7SCz90dQj+tAOzSWlUfqZPGNI/3TuAt1pLAaU9+Rhvu/lihLAfFWovwHSpQFgApcXbaBmLhkz7rtYDmjlKA3bVmdQI6rnmMvUWbDQU3Eg4qD6oFqmgigusQ0Kg5Z09TRf7rKu0kB8DWlUSuPtcblHhZ5V+1hEUy+DaG510qkuszHccexV2ZRPfB6HX0bkNjSTpcoxXP12m9mlRSoXIH3/rtWiVTuVi0Sl2u9JDMc3IAFmbzVi8u1VZLKJAS+t61SBQTLLOnc0Ge3Lxwql2QuyASKF6Zgc/qKoneHlwZzUU9wLH3wE6oU6A1rajAXLX2KccvdlbwMTNwkD0VW627xo34zoq5vFwma3IjXHfnGHJatrEMr8wWCSVUCdckkWc5IlHHNsHnqdqe+s576Gb3TJC80aWYDEqLICYa3iYe3iYdp/b8w8aCIkVPH68XAjsH49w/KYGNJ/+oOYxma6XslPDtoiTK39pkoam7rahC5nWcesub1yLexyM8qXQJAFW0fZlO8vtwDHozL9SEGmnrQcxguLQlZj/zhax5i0EOFHUDMIlUa1kdialnPYn0lppYFAvRDZI0jk3HhmYeDKY9lFKZKHnLLbN3B+saBeTh1Uvn91X77xCXPkKjz7CMRRFzSXl3VExFJf/gnU6xHAHx4HZr9dH54uMzcXn/PQ7b412VAN7z/Cw==);lineShape=1;" parent="1" vertex="1">
                    <mxGeometry x="74.94973970199254" y="100.13816712779021" width="3.956331344604369" height="7.785043673808197" as="geometry"/>
                </mxCell>
                <mxCell id="64" value="" style="shape=stencil(lVjZUhsxEPwav07p1uiZkP+gChNcIZgy5Pr7jOJoWfXaneLN3lWvNFdPj3bx5vXx7mW/C+717XT8uv95uH973MVPuxAOz4/70+HNfu3i7S7ePBxP+y+n4/fn+/P/l7u+sv/6dvzRv/DrjNMi3ndUcL/PT3wVV/4++XwGPB2e14Agyc2AKK1dB9QiNcwAL9lfBxSVXCdAk0Q2yE1cmtZXaXp9fWrS5vVFGrE4BdEI3/+34cX10Qwu03qVUMl6L86jgxxxUEiS8wywKAYC8BLaDGhSiMleMStC5IAsSWcAD4IlTZizIgbJDOAlAqBKJmFoovN6i2MmYVBpsL5KIQfSkcRjfQ5S6ffr7KFs53fs/HEOcgniyPe9kzCnXSkSWcw2Hq1OCkkjH6TMR6pJIklUb69nrqjm00gAljRz6WuURACW2eBVtR0IWYQsBcjFjUNerk7LmtlLLYhngCY+IaAQL1me+YaASozOBd3aAZkwakZGMkAigJpHqi0AczSxQZdEWLm1suqM4iBwnOVbQtbuAOKltuk7BmBeakbTGW1IpB5aG/W18lJkO2w6T48DKdEOmFuP+a0wt9qRAJB4HHSTfEuFXHMrkIA9icxLSbQggJFATw2PgMy85Df1wPuhJYJujGaBU90EzhKeuNUAGYy2hkdYwwAVKi5QlWE24A6Odlx7rQkBnsUhjIJcFVDmJQoNpZcoYY0epowARpWtIt13G3gBgTa0ZHG8ptVv4sB0iXPiIPviIJJrW2TIPnMc86uOtrxOVwaoI9fWBcFYYCPfeskxFvgowOaMCIGoQ6BdGxvQaBVlTa5IggriItfaKAimVSwvd2obFDJu0ciZTKLWiIBKdjDVh41XadPqAihhIBh/m1KPELlI9YzpSuBv4yrGfZZ8s802MjL6zkgztUlg8xWSd12S8bKLNqrVU+HgUSEWPu85HA9NqCcSAYfdKnPJuuEXGzQySQmbA+YAd4FJ1m/Gz+TpGBBQ6tnAG8j5E54/WqNi8//oSssomUU/Mlj1iPBJsm3G58QqII9BcwGEMR9fBjS8I1Ha1vpwDSGmKq9fKMwmWwmzG4Zl0hzrHVVgxnNQYpwXjUkrfp9FwKi6zA61nCLnr9aCG9jLJlubMtPcOxK11wgKVHOhDGSiA1SFkSQV/nFU+OrSjHGEKQLsTYmytAGyIqBysQb9tac5016LSFmVTWBSKkpzCGCF3BsR2FD5iBfGxdoKoHxSCHDVplwYORxTDRDY9ahuyEW58K/YXt8vQa4pKXRrpbL841e8/wfYj/cb5YfD09P5Qnr9Hm+g7dH59jre/gE=);lineShape=1;" parent="1" vertex="1">
                    <mxGeometry x="81.16302605133421" y="99.87078538649303" width="3.920988129312772" height="6.210357000457453" as="geometry"/>
                </mxCell>
                <mxCell id="65" value="" style="shape=stencil(7VrLchQ5EPyauSoklZ5nFv6DCMx6AmMTxrDL31PasTSjVHd2+LQXbuN2lVqqR1ZWqU/y7vv9x293J2+/vzw/fbn75/zp5f4kf528Pz/e3z2fX/TXSd6f5N3np+e7v5+ffjx+uvz97WOTbL++Pv1sK/x70XPJeGla3v66PAnG2f8efLjIP5wfZ3k3y1dTubzNk7zLJgaiEE1xk4KX/mRPIZRJQZzxhSo4PytUEzNRCCbH2UbFOLalYGTeUkwmCFWw85aSPmEKYkKYFLLt79xW8KbOZs3ReOYHj4fOemj+hphmhWqCpwrBokLhCnbeUrHGVaLgTFwUInOcRSupwqsZ9hRcRoVK3lAxMpo8sWoxsS7yxG3ZFEF5lj3ZuLRYiJg0mbQYyFN5Pwe2+riSwFa4WGKCwUU0NaO8I+sHE2F9MZnsX9FwzrNU+wp78vP6msiJBFDo1htIUSl4BRPmiI5C/RU6sg3oyt1iO/JpjofgKa6o/Ly+5F5Q9vYz21O8SXT/Mq/fMoJgROgYNeQVvN8k74yQeFN/zfZx5SAe8ry+IjfDuNR3ey2vLDzdQI8Rbz3htuUz5osWEgIPupzM8eloOkrE+Fc4YeEgxgaQt8Sc0fZoucqzohQzxpszjqRj8ogPnq6fIq6vAMz2rxUO8N8UBm/S2dVVnsGtEhMP9aiTnW15v9QX6i/ReJj3oxH4Wva3FTwmsCYA87BuIIHHNKSZgkLEXPJaDBGf6b8B43QJy4p8NmlOSvVyZlRoyXqlpJnRuYVsaSJlYlZlNsAjwgGzccjDNfU8O7TrBHQoqO8PtgSlo1JsaXRuVoies2TfqcNQiLyXCEgYY6HVQFsDiKWkjmNvULxe6z079OgchkLmLLkuCKPhTSBAEQ4plKcYoxCHvUTsAb+XcQDa2hoIqyIRw7uxWPaG3EnTUBAaGq1MAi9VZkisJNJtMgqtEllyBinYolVPczqE7tehEGgCaW2DWGoKZEtp1NahIL3h2VZQdu3wDKxbyQO2bhQYVOaMqFEdhXv1K8wTSqXI1zYwm7VkCvdqE5gPlJG02wqx59eNAuPYNSEpaW8gVqoFJxBl9GHbCrXH5o0C44WqUCCBCq3TqlAr+iEwK1VkDgcJVMtCbTkI1Iy9jsZSYGaN2L1Xjt6aX74sCjz48AyOtiNtxxYV2GBHbYKHtrQhUTcBoy+8Y9b1AAQ0NGg+WOwhNfjojMMtpDJTrtFQCKYQidJodRwOdjQHmUJa5jSps8C94EvLoRmQaXiX5dAHGYeowbm9sxYru7qasXt9BfDQFi3MERUpWbU8NjL2J+p8OVBYcpQpqJ+gw23OJ3ZtAy/I0chHZgEnzrpJNlZMBSmZOp/NUrWrFEjq2un4NhXQ+pFRgZWg6HqCXfsy3klrv4CeGxxqjzG5iGbK5BB+xW8+i/FLM3pFw71OLixlsbIepWD7qjSRRV/rPQFoPKVY2nKE+QxtqM27oAwKiebo2mflQGcUtUf/kHed8O+NnKFD4fUhY2eZIp9pmAQ9lvYndCQJ3CfyQPVIfeJB44ogGaUPfTflLXYOgXvY4shQG2kW1QvKtyEZXR9G+DKGTDvnjTM+yojZ7cQ3BcYllbKq1L055CNd31nk222Lb7otc5nWwdZ0w0xJaNqvMVQpt21TvHlHsdOHvTEpxJDwqfM64+ot+HaKLXdxjmJKLEsMUZRrY0kcOyd2S5CwxEY6JbkOs67yrHJobYIcS7SfamPtef88gFqhWcakLKQjYtYVtbcVljl4KyQsBxyWDQ1yhorOYa+jMRHYluyS97x8q0J6012NW7x8cBnkLLrt4LapKcxWOrjOcoujwwGjsDiubhdy/A1g1nbjx+eq0LqkwIPPIe9KlaKLKpTlUpSe4c9V/6vCn6v+W3k/18D/+ap/2X/O9FOl3AH3ZgzOimzp11I3g3k25Sh9tDTSUii0VLwpaDyWkIqKaR8KndUuw4H2GRTPGLt+aMXxXWZsVFrBOsZWEOB28eBjMYs+O/gazSKPOvjazeIMX/h10FICpRegPdRCk9K7HZWHmB5EdQ9GPXiA8rT1hs3zUiNY/Q7kN3gs3U/AweDBeSOW7wN7RhzaHfgrYSNxEA9v/7ryQF5/XD/l/Hx+eLh8CXr7f/z0Ux9dPhuV978B);lineShape=1;" parent="1" vertex="1">
                    <mxGeometry x="161.585361010074" y="78.82230727114313" width="4.068918982442699" height="7.891207866166612" as="geometry"/>
                </mxCell>
                <mxCell id="66" value="" style="shape=stencil(7VjJbhsxDP2auRISqfWcpv8RIE5tNLUDx93+vpwaskeU+yYFemiB3rzozXB5fCQ1yd3r9uFlM7F7PR0PHzdfd4+n7STvJubdfrs57k76aZL7Se6eDsfNh+Ph8/7x/P3lYT45f/p0+DI/4dsZFyJFN6PYfT//4inLzx/en88/7/bL84Fy7s5X8hWe59A/v5DLACBUYgfgQMlDQCwdQJg8foP0LgRHjHwQYukBhVKAAM8dICYKBQJcH6UkFHBYjdOpUo4AkKnUDpAjMf8aEDWsvUnFwcQl/btPXFEjEwAU4tQDChUAyJmi77nHFIBJ+rfryV1Te+dtQGhEWAA8AmSqwQISyHStVPrE6SMYcMk7NzihuQQlWsvgRKHgoNem5BRQATfK6EQlAWEqQilbQAYm5WT5rQBkktLf9SW3CNxthKcgwytAJmKwfJ2dQDKQm8kLQEBSxoO4aiIAmyQ28b0AIjSJhzBVDQPInAKiAThKACCqrj1A2VKR05omsQABiVPxNTU36waIUtQW5S0gA5OUTKEOACDH+ZKmhQ8eVZDyu1pAQlLmrRxrHgQBtGmZCvJYynzL6wJQQUtRH4opIIbUyHUQJoE9SPNghUlgS4lD4hSQUFu8ZRLs1M7SWwGoLWo92ALitYpLzuYhgyjxQD6lBtJK8Y39C4AHUZKh8ZaKxxNVoaEekBjH2NK0rDggZCmRKwMAdEUdd2yJYm3V6WUUMjhtODsmzmFFjfrCnGXiUKO+BSggD39onkFO/59n/qJ5Jgyv+MfmGbFtUbmB4spi10utEVRzPttNa542EF+HsKowoGmjDOMM3i4jSU9WVSoBzAh2mJm7JEiCdpv++SurJdvteGV3ZWKzTePlmO1uvLJ9e0u6lfXet7e/8f7A2ypYuaBwrc287QJkUDt8v+LsEOYhGbi51o7jzh/bIHE9HtGyagc8BwdzH9rqez3vUfFqbKz1SOHUfDPd4fOizdG6i+zRbcqoOvZXqp1ycDhVDou1H2UrqNCYuzOsDL97l7d6Xj9cLw6fds/P53vH5f/2olF/Ol9Syv0P);lineShape=1;" parent="1" vertex="1">
                    <mxGeometry x="168.21494239082705" y="78.79242866407037" width="0.5271762760327674" height="6.869211004436924" as="geometry"/>
                </mxCell>
                <mxCell id="67" value="" style="shape=stencil(lVnLchQxDPyavaps+X0O8B+pIpAtQkKF8Pp7eljsjOVMB267s9LallqtlucUrr7eXn+5Oan7+vT48Onmx/n90+0pvDmpnu9vbx7PT/h0Cm9P4erDw+PNx8eHb/fvL9+/XG+W26fPD9+3f/h58fOS3eak7tffB1Fi/fPk3cX+7ny/s8/i22yvEvXYHj/7Mjk0CZHYF8mzfZaYj+01SJ43FKS0Y/vg7X58/4OX7ZuoTvZOUjq2j0W8M/bOHdunIi4ae/Uk/rn//Lx/T/ZfkM75vCqV2FcvycY/FGIfpczx8U4aOUBNPZ/DIUkIdIWaZocmlW1pIGAcOYoyB+w4zA5VGgtqlTAnAbBiVVO8jVLIvMyylBkWAKJnDk5qnRyi73F7GXgAxhzWiCcEqUB2nZERsUkSVmwgmxWaOMIViEmZw5q8OHLo4HqahkMUT7AUqqRqHSpZATEJMzRSkkz4KDnJc6ZTpoQHAtDFoZGw5iDBnKFIJCtkIMdbh0bOAHibppDAggQaNVuSyV4CAV9TSfOhc6S03bLk+dA4VWAOTeKcuBIpzXg3iHp44D/YErUzaXeonGdaskxWqyjZUxtUOponippkDhswJdfwhGCjAJxzIhov6lxs5hCGQIo61V7zwwFgYh002S3tUvOyR+jo3C3BehCYSZN1SMQB5GvgtyWfxBVEYxNRaFXDQYt1YIdeqQyZo+zaunAZDomSJaLkzJYiJZqolo7h4FgekmWmFqg62dTVugLj72blFRwScQB/xyVKjDfQomziINEY4fsumHeZZiyQltYO8DHNh0ObPtp44411iRIAz6ABqAXrwFoKSrStJcrFg1Eb25aYgxO/1LRjyh4ab2EyZWqjLlxZKDTgEM2huRbYNN6sjQG+yArIddra8z0jV13OAMXEoBF7m/3XEv1fBwgqC41A62ETQAYakBOsyTkrppunLWjrivOWaqMDASaIMpcoOrvnjdqgtY4wHEksQ/cYc5QkrqJRz1ja5AyJEhzMoUvqvf5okjP9AWMOQ2vV3m+GiCt0RimDGIdDok2xeNsfAJbMxiaMu8ZBu/g9QqvL1oEWEIAwg29bkzn4xQENgNHMgiXI9UZWwHRrlC5EGrsEUTR2M3JkOjZtlyTLnMXQqqkHcTcrBoIlbRbe0AZsIECUzJC/qQ+mZlzvaMNBpTIyzssI7uiQn9QqgTAa8dGsaEo0pH5dcwRvNdcIr3BrttdvAAsDH8awNoMPqWRdFCVqxlfl9VDUag1fKDTgoPMKPtDEoT9k0x+kEFoCCdU5b4VODyhHy3scF97GNL3Wco19prIbMsNZe3bzE4CiZs7bWPWPK5LdnSDrt6ALM6x7pYSEhEZzC5p6DF5uPVYBeD6OlcWeT7nZthHYs2vi1K9HdvZsTo/2Vnn7f8bYVtv6SlO8qG3YM/HsbQfZ7u2J3nG26GHP9JGzA4nPtC0vdzeeD8PA43IJHUm+0IGX1ySN3Sb952uV1+3x4fkdzofz3d3lFdD+d/vOB48u74vC298=);lineShape=1;" parent="1" vertex="1">
                    <mxGeometry x="167.67825248603737" y="78.3439632830931" width="3.6369820166909044" height="7.82890405087451" as="geometry"/>
                </mxCell>
                <mxCell id="68" value="" style="shape=stencil(7VvJblw3EPwaXQnuy9lx/sOA5UiIIhmysv19ilBIPRZn6sUBglx0s0fdQ7K3qm5ybsKHb3efvt7eePvt5fnp59vf7z+/3N2EH268v3+8u32+f8G/bsLHm/Dhy9Pz7U/PT78+fn79/9dPXbL/65en3/o3/PGqF00JXcnbP18/8H588uOr/MP940E+mRxX+WxqvC6fjfWLfAjGFSXv7SpfTchKPrpFPkaTq5Kn/SdnSlPyZJ/UjE9SPi/yea74z+RLMEnun+WbKV7Jt9X+NZoq7F9MWM9bm7FOydf1+5s3XtgT3iR57EfIw9rrfloxTewH8ms8NKwozjtPd5Cvwp6V46dhRSnvNvkk4rmY5Fi+ivPm8deDfJP5Yusi76w11qqED2lbQBQIpF9m+SISJhpbWD6KBEB6NJZ3wgHBePr+aoowKMrTFhBeGDSYvBasphM4mLIGBBIsiu+HfVZ7IoGd2H8c6TcLxAypK/KRCoo1Tuw/mrTaM3tZ4LZ4SMkkGT9lLRCxyoSPXBCjN1XEcxx/nQBTRom5It/WhAneWBHPydjV/j2lhT2TcSSPiBLxnExc7e90PmYucA6QKQGprvHpgrFCvg44n/Fvqjju3OwMt1GwL4q7OJJvml9mo7emrO6yJolo6O61JK+qIfZP9dmaoLI9mEbmlHQGbIfKg9fVM/B5kc8qmivzgTwA/3K0xWGOWX5k9CSg5+pfZ01W+BVMWOPfeU3IiskrIDmkkDhCcUwRHTJSnKFETjE4WQUpKizlWI9StaWN1XReKtxc3SCdMw2srKJ1Ju1UiAOoLitEznuEoiJmNQ+ePSMPrlQr1BGZU6FIqt4AROuhwdWbWKE5xgJgjcoeQDUVX7B7FUsgq2E9NNDPimrdEsNr1v1Jy4O+TYUq6zv4cCXA97JDAZ8hx5UkER8EiyhgySapQ4PRrEUDGSLNurF2KBSRop2k0wpVth1QIE9DoahDF64aSFqnzJoZGco0w7XQSJEVFFND8KW0rSDApE0mcVDw6tCe0QRWaurQntkOFGRouEGGDp5uynFuFJWDgjSrY4KKjjrqLVExRsadKNChc5KUEIWMQdeZrJpSsJj10MBVRTOgQNHaWbZegQAl+cFUrilQnwYqERRkNe6UI6i62FJNTPU6oCjmCerlWEFxjbL1jtiSU1x4y2koKIzLIDuBFZSn4SYK75hkAqXZnU2FLPkSNkATAjguCoWwAUrSFA7Mwm4zNaXQh1ikoFMULQvjdJLkxG1dYcoSp9HkEMb1FURtBUulQQoUFPN2jgcLSeeDmwzvYCVVjKFAVBoKqi5BgYebXjIBnCHSCk47zvN0BLGkxsVuHvGgoIguyD8xMiio8HbbBBUKiiSiW2hbeKse1G3kpPNWZdatHYAfpJU2vpSC5EvYEns6jlp47dDUDiC8FcFy+2A9SYIFx3lSyHLSjNCoG8bJfPBjkHhQUD1QD2/LCnJLdhT3g1lV43cxRRWK9iJA0eol5+tlZktR1VrCSn6L1hM/sFmtNut3K7RtptdGsFwDFEpRtJZq6r+PZU5gN24EC1xDjm0zV+/oZCF7419TwUo/oFWNNBNostyDzdDdC1r8rO4iPPcPUJCTk8a3R1BQsFvzYHiHaaya3qLhoOYVK6j7jt5PE28FxqkVKtdWuPKkn3ZUW63ugbYVUpKA0uoGu1XeefT2eDVr1jj9dol1GFNIPzQGdjRNTtWlt2umQ18m2933scPfOfX/jx22K+f3scPeHxM7KUln0IYoKLdVN9Q8GWyyzaoTDg5zCnX3XCtTsuzlwLUWRhQ0wFaNpTM7Lp0MvreZV6fG6tCemS7aXXWfVi2/YOg9vgK5ysMZ4K6KJZStvHo6aGpcItPK4ORwBpFD4d3fWSgFy2b1mt6DO3ha4eRex3O0uir74zSv8adCHvOdywpx3ONPhSiBGrBMV+md+6qr661F6fxd3cZZtlKV0Y04SFRlJIgiDBx1AzIu8OdCA68Ru5flHUdqko9b+kUa3+aq20S33SbCoIq9wUEEVmgm1PVJb+HofUuW7516C0eZYOUDNSjQtKs/6VBgxTb1J9de2423lw8+Gs+VTh40NH6RdPJgojGFOXmQ0bbJsn7wsfUMJw9Ktrbn5MHKxlRPHsQ0BvL+4EYlgWVM6y961KjEcqXrjOn9DdwbOr2/gfsXb+DEfv7rN3B+PPmZ8kmmjOdHIiD06lWJZxirTZbEjQMihZW//IWLVfWo1m+wF+Q01XP/njXr9dttnm6gPENGcrKVcNuoKeoROJfQUEcRviJP8RaCpHKWhzonr8K2UQIi1gr77/L6kbvlggV5df26tXKQtyJfLMczLKYg2LF/8Ymc3vOYAp9EAQB+wMNRXsY/xc/J928D4JP9b5dAJ/aJTCG6/cV+IsfziX+/90cS5/L4x9svMr7cPzy8/qDj+Hf+BQc+ev31R/j4Fw==);lineShape=1;" parent="1" vertex="1">
                    <mxGeometry x="174.18870616865513" y="77.38715885909335" width="5.108354965304743" height="8.187590702013564" as="geometry"/>
                </mxCell>
                <mxCell id="69" value="" style="shape=stencil(xZjLctswDEW/xlsMQfC5TtP/yEyc2lM3zjhOH39fqBq5JmRdRptk5yg4El4EL7mRu9fdw8t2493r+XT8vv21fzzvNvJl4/3+ebc97c/6ayP3G7l7Op62307Ht+fH8e+Xh8Fy+PXj+HN4w++Rq0zFD5R3f8YnTDH9e/B1tD/sn6/tHYXS2GeKedm+VIrcvj9SRUCh4hrA++mTS4CvDSDqYwBAptqGLJVChECKDRAqOQ+BkBogFsoYkNaldHFyCfBtWnPqucShAYoQMwRcm1YtJQQqlfYLVSiDtNZAIbdAglmqxfaePuEKAI0hWyAJALxtjaqVRr2UyBcLBLcMZF0uwQIJxKCNwNUCBQAx2jqwc+SATyEQx1WEeCq8xqlhDac1YbP2zuwLMLGzUuPKaaVlTWvoWPTWHvXeJYFXq8GBMeYpmffjsceOvPkAU0UBX/59BUSw3CRNCbkCPNgbop/VjCcnb/d2sZuDAgKKUDxJtkACQWsS7VDycIppVYtYIIH9StvMBi3TTLgNRJJigYJ2xERiKh2mNNxeCkKBLZBBlnR3csUCFdQhaC/NXEKAT5NKeKdLuv5TXRN0mK0fnFVnVUOnbExsAsB9oWM7WXvUeJynRn5na4uu3tkAQIsnqMhYtzyFpM4AMABymQ1hPGIGzTBzCQ0x3dGtS70xuXYQryc+RpeYqdTXJTPV8Pm6ZJ3KGHRJWkV8jC6ZKcSOLpkJxM/UJZGieT8W3aoz7CDDsp41grYGnYODAqX9QudookBuW69z+FEgtUXoHK8UMKuhc4BTQFYdERUwfdE5hDJbndE55jJbgdg5SGulQ5vWzlG92tbrXAUQtxF3bhrspOeJX2y7dqa6ScndtteCOmOPtipVMD4Yew+ilWgFg5sO1EvDriZrD+aKjlNn/UH2KVhhi/1REZmtPyjewlZd4HwO9wvWH1Sv6iiZiyTYD6svtrr2+uP/LdrT/nAYL+Gu/29v3fTReGMn938B);lineShape=1;" parent="1" vertex="1">
                    <mxGeometry x="14.434286872174013" y="105.0479178238279" width="0.2553598678276892" height="6.7919833352463925" as="geometry"/>
                </mxCell>
                <mxCell id="70" value="" style="shape=stencil(7VnLUhwxDPyavaosW5btMyH/QVVI2AphKSCvv4+cLU/Gmp1OuOXAbRnc9ujVankO6er57ubx9hDD88vT6fPt9+OHl7tDeneI8fhwd/t0fLFfh3R9SFcfT0+3n55OXx8+nP9+vOkr+68vp299hx9nnARi7agYfp6fxECx/H7y/gy4Pz6sACmTOIBiAFNqEyBFkrwPiJWkzoBCSQFASPMEkETCABBIZAY0KnUfwEp5fqWcqQGjOVGcjVamFgEgeBu0QBuqX1+YakPrQ5rXmwWyv75Qng0oShUYoGO3Zb3tAIKmxO596nhycX2mGPz6HPbXC0X26xXsny6sz2B9HEm/Wh/B+7BPOfOPAv8EKur9j+JlVVv9+gDyIVCIPh8Y7h+c/4UYVIC9j9t/8fBevNz+Aa5v4/SlXjKkoV6RcwDUSg7VfKEyZ6jVPIMIx4XWVqwSEA1ZROeYSSQFJxiVxvmEpCPslwEySGcB/IXdC7XZaAtMAWlh/UNmnmCjUsAT3cQ5sTlDG0SpuMqkCAonB+9Va0CIWMyFs8lLql8mrjR4cEkkSBSqvpI5YmZs/gCzAJWyVRa7tGBYO51KZpMtKgyCVoNn92wdFjipZgpzEFTgK9XmAWYV6mctjagOQE0wU1sjnRmjZdj0DdAcQMcWu4A50s04HnFY80284aZmgOBOaIPWLgPqqJUVoIDkszd2buWA68Gckoo/AnUqc7ujDANkFGrxFWRmIfVlANecDcDIavHZZ36IQKMagJ0N5gZQQQbQub91NyAb8sYGcwPyko4SXgGQbDYTw+aEiGyoo52tT0AVVKmqB1TAlT0R2Hsp4wpqvIkDkgFhI2R6yuOaKy43KlYmzUuxhnVAL3rxAMgbZcMb5geUrkZcm5JrKJmMGjdFXVDkxHfd7gbkVhkNZOVWNBZ2AL8GUKs/wboSGmGsgTQ3U2XopbLhb2v2EQEWjb3SlIjwTQSrm1RljNN7asPp7pSgHtPoWcAUHwO35uovAPp0DEouiycmZqz42kYxVRg42TStPs6h4VAoO4lVYR8V9n3U3NoAuZqQdpcY/aYFBM72S3O2mvBF84m9cZ0DZ5oMTqzivZQbtIE3zKcKZeIfJb+6lEjArW+XEm+XEv/zpQSPNrwUwHLtthMvN27/ZepRr48yzh8OlOaGkyMULyz+xkDymP0uA6qnodTgnYTlnJPOxmSoxuJG2Pa7TBC02MZ+q3kYqZ0kvssaMVVE1uLVTmcywCspe8Vmji7oldRrEQMg+Z+KjwMLnLhT9ROJATKoHYurI18DVHSZ1IaJKy8JasthM0sqvEEzQIke0DCgOS+VEco9QN1IC1TRBnAUYF0RUvxrP6j8A8B+/Pl+8/F4f3/+/LP+v//eY4/O34rS9S8=);lineShape=1;" parent="1" vertex="1">
                    <mxGeometry x="12.494648837647986" y="104.33206305566205" width="3.8796657386103175" height="3.971654424953158" as="geometry"/>
                </mxCell>
                <mxCell id="71" value="" style="shape=stencil(lVdBctswDHyNrhiSIEHwnKb/yEycWlPXzjhO2/w+UFW1BiRD1k2RsSEWWCyoDh/e9k+vuy6Ft8v59H33q3++7Dv80qXUH/e7c3+Rpw4fO3x4OZ13386n9+Pz+Pfr0xA5PP04/Rz+w+8R1whqHlApfIxvCuTw58XXMf7QH6/jMwRW8bFCqQ4gQQ0KkBqk6J6QSQGwQiIHUCA0BcgE5KVUoGgOhSB6pAlQp0RypgeogKgAFSF7pBliUQCOUPk2IIYwZTAhpHCx+Tlp1kIrlNsAbsDmhArVIVEZgi5TaxAcACFgtQB26ppFCbrVV3VYRGCE3OwR5ABEzqRbJ735+2aZNUSyVfL6ECEazjJx+XZ8sJQbQnHGIQMlHS9Kctoc0Q5oCy6BRFB0RqKU4GUUoemUmKcZXwQUnsbxTsAwXbglJZaJjpZ08ia6zKbHL6vIrJoT0DdKBjbC84UhzsrauleUx8na2Iq0iaEYafjDUxLQxvkUq472CM8CZH4aWoBnMvGfmu+0sTTLyPfJrUa8NT4Cb1oNaVp+d+4eBNIyWllusp/1NK9szwxN13NlPct21vms7H/Za5suGMW60coNBqfT77shzfw3u9VhGy5T7SQTpTcme6ieWUvvtXrCRH+Z7MxJw+SUy2yzXeH+vJdi1ebHE9m7mp9PlfgtfFnU2TbUU1wfdbzfr/ne8OWw+T6+Gi8P/y//L/3hMH47XP9uPxbk1fihgY+f);lineShape=1;" parent="1" vertex="1">
                    <mxGeometry x="15.340550307090197" y="115.02096678550174" width="0.3208087497641827" height="2.758566916687414" as="geometry"/>
                </mxCell>
                <mxCell id="72" value="" style="shape=stencil(fZbdcgIhDIWfZm8zQAg/17Z9j85U606tdqz9e/tmZ0c0uJ47xP0I5JwEBl59bp8/1kNwn6fj4W39M76ctgM/DCGM++36OJ50NPDjwKvN4bh+PR6+9i/z74/n6ctp9H74nlb4nbmSKZeJCu5vngmZ6jzzNAO7cX8FVKEsBuBKrgKg9oAE8gkCbLeUhEoEQKSUDZDLeWYRKIl8MEDRmHwfyBrBG6Amyu4+kDxxMoB3jhwgYu7TVAsVkFcWCs4CTBEoF4RctKeOxHIf8IXYpikHikAIf+MNUW94AGSSaoAoFIE3AlOyeWU+p2E5S9yfQZcQILVuQOwZdJNoS9Ls3wA5u2XZTIHECqeJ9kDpSaauRiNVcAY1QhdBzeLBli5WazpkSsBLV25uRaqWRyFawTQzRRIQYirJzq5atkBqLfouwqUxLBepthWb10vrWZY6UOAeyKCCtDV625mm9gmUC4Wc3VLJMMIE1BsA2FW9JraVlQB7n3c9oMKhCLEvIM1zBPZ25/umNQ1tVEC2G+fFCC8g398O2hNQuQlVu752DBfA+q0ptnqO5JFmeuIuo9DY7KjY71UxdJV4EntifPWorW++R/dC4t7V3DlIB5cHx2bc7eb3yvX//QNFp+bHDT/+Aw==);lineShape=1;" parent="1" vertex="1">
                    <mxGeometry x="15.8617054855318" y="112.19249967441965" width="0.3526445111029836" height="0.3520932993476822" as="geometry"/>
                </mxCell>
                <mxCell id="73" value="" style="shape=stencil(lZfbbtswDIafxreEKEqidN1171Gg6RIsS4o03eHtR89wGlHJX+wukfnZFA+/qEke3rZPr5sphrfz6fh982v3fN5O8mWKcXfYbk67s/2a5HGSh5fjafPtdHw/PC//X59my/nXj+PP+Q2/Fy4ytTpTMfxZVphi+rfwdbHf7w5X9pJofnZlXykA+5So9fZcSPg+kJlqD8RIKQKgrY8vQKMCgFIoaweIUs73AY2kqQNSJq0AUNLepSzUwn2gMqXQAcVWwBeqeJdKJQF7qJly75ImyiBx1WLSu1QDBQWARb31gOUeuNQisSuluub+NpB8lOwVuQCgkfaZbkoJA9UBlRgB1Ye1fbKHTDX3QCNpOErFAwoAS5xrIAMaAoRiGwCQaW0Uhj0o2LRa8YkHImogIWYf1gL2YC0akgcCcslExbmkJAhIqy5egEIFi4APayFGDcTDF6xYBPa0Bg8okJkWiNvwBQTYpmXYA1Dvub/iECUEmHqzz0MEm+ZgMhQ80VDLNa8zczEhn8qgAlauCJBVrK8AVBumlcIeQFppUqp95q7icJsIg1g2WE1qx+IgAwkdizKoa4WnnPWcr6ZKER+8viMwYIeg77kIxbKYWPaJsNQg3TDA6YZ1IYNN27ThTmrLTERAptJ/waSnAN0o4gXfwpBBuc6zRa/ftqJoJrN5pncpp1VJbgPRK1My3UBjYvEu2UyGDi1pq5ZeABM3UN7CJH0ebK5soEdj8gevTa6oR1lIeqBC+zDMrTCmg+wxnEGD7zXbPygiptA3ToAjQFxnxw9zNHInP0uGNRm3C9TPSDi1JlPeGdTCHNdSvLIHDcmD9po9iDyrD73lAsyQPBwGYR2XbsfeUuPfX8H7//eK97m9/fi4T77s9vvlOnr93N8/bWm5u8rjXw==);lineShape=1;" parent="1" vertex="1">
                    <mxGeometry x="75.12681374845411" y="109.97183497060587" width="1.2024388007226403" height="7.819381962201511" as="geometry"/>
                </mxCell>
                <mxCell id="74" value="" style="shape=stencil(7VjLbhsxDPwaXwmJpF7nNP2PAHEao2kcOO7r78utoc2K650ixxa9OQ7HEl/DoXZy8/p497LfcXg9n46f998P9+fHnXzYMR+eH/enw9k+7eR2JzcPx9P+0+n49fn+8vfL3WQ5ffpy/Db9wo8LThpxmVAcfl6+4UI5/v7m4wXwdHheAphKGAD2EyltAzhT4wGQIkUFACEeT0iNct4GxEpZBkC2K4ETolIYTyiNCnA6BkqjD7WSAqcr1TrYt0xFkL200b5QDdv2pQdktq89LVft7XRn30iBfeq3XdhXEFGlrIN9DKHH+HoZ9QQtDyigKCiFlQPAPlKqPkAVZDhQFZ+ABhIWSNx9ck/5hn0YC6hZiBnau99XSvA+nEZ7IQHxSZTH+NQE2946II8VWqwGgQOx+AznQhEA7Eocx7ZXapiJ2niCMimIkRFVc9RlXoEgaaI2Oj3lHbTBxGxjWCN3MrsOMKfHxswwbdn6ZqRr3GaFe9vOHkBmrKHn6K2RqSGiy6TqQxTACY17H86ARgGcYI0bxpiKwlZrq5EmudP3FqCNV5IKyWUCuMoLcAYaQMb2tFKFV6q+GVQpNgDIfgZa8QqKklJpHtCQ05a47AEVXSlSKB4QUS01T9oqnZavA6rvBgtrAErBAK68FVerARzPi80FEFbzIYxhteILKA/Bj34rb1hLvOoHwQDpeV0AYC2lPooXAEUA4/qVD4pIoPbhOgMSHLfWQE7ACBZIC/2x0KkV1IYdkV3LRVzfJjtdU0ufqlthcsLWGgJSXyJlD6g41Wl1QsM96oSbARRFycLqeEZJEJO9F1DnETsnLkKny8yM80RhSH22HTjAtBCgqRu79lqM9QB8SMWPoJhhHkw4tLG+TVIjLaNp1UEKN4Bp0XO1ZEsBcNqi7k5IeKuyG9fxBFMfDHyY9rax46pAeRWlj+VZ5UbYcf/AGrbekv6vYUv7v3sNm2XjoqCRRGI/yqvCAs1ebJfUpev1fEU/cXLCby+rFclWmgKYbgqp02wF9gDPA2mhFRj4YMQlow8WNlQUsibf2N+sNt/AmgegtJl+Ku6VLXS9fh2gq70twEKS5FcSnoXldUDxpW0AOEBKXwQXTjO6UvVsZ3lAY9ZGlDiAQDlvAPdMZQwY8Qk+rKlvZlsA907CeJd8/3vqnwH24e359uHw9HR5/V3+3z/32leXp2K5/QU=);lineShape=1;" parent="1" vertex="1">
                    <mxGeometry x="73.62291338217432" y="109.72084401171674" width="3.8964299560421707" height="3.6123579417473506" as="geometry"/>
                </mxCell>
                <mxCell id="75" value="" style="shape=stencil(lVfLctswDPwaXTEkwec5Tf8jM7FrTV074zhN8veBKrsOEGdp3WSJS+7isaAHvnvePDythuCej4f979Xr+HjcDPxjCGHcbVaH8ShPA98PfLfeH1a/DvuX3eP8++lhWjk9/dn/nXZ4m3GtUOAJFdz7/CZTKP9e/JzXb8fd5/XyOan1vpJLAJAoakBoVBEgU80KwJUYUSoUgwLESp4hoGhKSQAOAOSzppTLmeR3ANaAIoD4PcA7R84pRGNiLIKrBkikAacqYTcnFBjXIonVIkQWUp35vN9/QKMCTohSfE0X0yUOVxHsKTZ7RAJh8oUyWxGncrmu2qZa6hFp8OSN5kgFBMlZyS1QBoojZV3czVEC/D1T0WmulQqIkDR80oxqgRGKnpqmVDM84dJdNwIKU+QllGQ/9ktES6/Y7sFhnSpZn9DJ29QrpvBwYch+J4e4sfJqsCbTKe1cKRkHkOYBrpRE4sL+zJS9PQKJkP5pX/oTmYx35E0DYRsLXxhhn7xqxCCqS43bU9Zp7o0GWxad2RPsgO4Mt0BJd0JnejJ5zaczniOlRfOf7XDuXDDCub5uu8BESx93pcRCR6eTXLFro5ZcBeTZjg9PDrBnttl1ZxO4rjZaY8T9m5KdHnh9zjZbmE/J1hWx3pqsx+F4Nm/379yikr1sdkx66XW5u14eLnfz9bjdzlf7z9/tXV5ezf8D+P4D);lineShape=1;" parent="1" vertex="1">
                    <mxGeometry x="78.7416872905666" y="116.890576306615" width="0.41241515565993075" height="3.0853128502628047" as="geometry"/>
                </mxCell>
                <mxCell id="76" value="" style="shape=stencil(fZbdcgIhDIWfZm8zQAg/17Z9j85U606tdqz9e/tmZ0c0uJ47xP0I5JwEBl59bp8/1kNwn6fj4W39M76ctgM/DCGM++36OJ50NPDjwKvN4bh+PR6+9i/z74/n6ctp9H74nlb4nbmSKZeJCu5vngmZ6jzzNAO7cX8FVKEsBuBKrgKg9oAE8gkCbLeUhEoEQKSUDZDLeWYRKIl8MEDRmHwfyBrBG6Amyu4+kDxxMoB3jhwgYu7TVAsVkFcWCs4CTBEoF4RctKeOxHIf8IXYpikHikAIf+MNUW94AGSSaoAoFIE3AlOyeWU+p2E5S9yfQZcQILVuQOwZdJNoS9Ls3wA5u2XZTIHECqeJ9kDpSaauRiNVcAY1QhdBzeLBli5WazpkSsBLV25uRaqWRyFawTQzRRIQYirJzq5atkBqLfouwqUxLBepthWb10vrWZY6UOAeyKCCtDV625mm9gmUC4Wc3VLJMMIE1BsA2FW9JraVlQB7n3c9oMKhCLEvIM1zBPZ25/umNQ1tVEC2G+fFCC8g398O2hNQuQlVu752DBfA+q0ptnqO5JFmeuIuo9DY7KjY71UxdJV4EntifPWorW++R/dC4t7V3DlIB5cHx2bc7eb3yvX//QNFp+bHDT/+Aw==);lineShape=1;" parent="1" vertex="1">
                    <mxGeometry x="78.6131877815937" y="114.51177902553218" width="0.44500378782045336" height="0.44430821108177215" as="geometry"/>
                </mxCell>
                <mxCell id="77" value="" style="shape=stencil(rZfbbtswDIafxreEJOrE6657jwJNl2BZU6TZ6e1Hz1BiUfFfDNidD/wskfxJ0RM/vO+f3nZTcO+X8+nr7ufh+bKf+NMUwuF1vzsfLno18ePEDy+n8+7L+fT99Xm5f3uaLeerb6cf8xd+LVwI5OpMBfd7eeLJpb8PPi/2x8Pr2j5S8J19ouK27dlRlP77TPPtJpAouB4QYtkGoqOQOyAU6EJMFHuXdU3J20DylFIHROx0KiT9CikRA6czk4sdkDXOwOmcqXAHlEDeA0Co9iuUShlESb9X+kRXJmEAaFhLD2gYCgDESkkcVbBCzXZLEsmDFUTI9VuS2gJ9F/DOkXOWSCDVukRkCyAxSaEYekD1XQGgPooFChCTRtF6LTBzNTUXryV3i8N9wpHEYQmwp5KpDk5kIPDCVPIQJqRXT7UOiUBb8hSTBSLInFZEChZAUSqxKeEKFMoIUK2xBRhUdQ1UhxU8ELiWpOl9M4DE5FsQV0AAeZA0FGlpcbsP1CEP2jdwyVmnKzFweq4XsUAFYdXXYZD3B05ztUDGYbVakqbfrcS5seJAAak0bGMS2JhUfH6ouAK2pPLOg9MRNfzQKngFuP8J5EBixJfgGZRkyDTDE0KP9my25DGQWu+9HosaaDQ8MHkDRLyCDkBmFqhUABCLnfk00AHUQ+RWX6vxJAKAa5vxVgMQ6q3srZZ0xKqggML1e9chLjev7gN6og1jogcF5COVPtM6iCZ0slsXdNKNINHBTmTY42Ey8eSBv669beaulcaGuYgxR9NhsP3OtanmvoAoWPMABpJMqRhzBzIl7QRbmQNXvW9tbWUP8qRCiM7ag9j43PJ4s/dAN77apuWIQXT0dYrGPoFyV6Fku58CwvnPv4Qf2uvF7f/z5XA8Lr+v6/f2f1UfLf+6/PgH);lineShape=1;" parent="1" vertex="1">
                    <mxGeometry x="170.83837932084805" y="90.03438560594532" width="1.2733780101954644" height="12.601945655874644" as="geometry"/>
                </mxCell>
                <mxCell id="78" value="" style="shape=stencil(lVjZctswDPwav2JIgudzmv5HZuLUnrp2xnGvvy9Yl4oASTvNm2xxSQCLY6kdP7wdnl73u+DebtfL1/3P4/PtsONPuxCO58P+erzJ044fd/zwcrnuv1wv38/P99+vT31lf/p2+dF3+HXHpUA5dFRwv//944nd338+3wGn43kGiJGc04BEsW4DuBDrE7InnwAgUNEn5ES1bANCoagBRXxoABCoeg3IVIHTvlJKClA9Nd4GNEpFr6+UI7CIfNXrE7Wwvd5ZEkqkhkig4C0HAUQoL0hmcoCCRqztlzSpwH4vBukAcR6crAMKBc1AqNRAFgVJAdYATxGYFCSNdYx8JM4A0KxJlQJIIpb1Ua2fWFyvtEyx2fXAHqHIlEGkDDhLYo8mzUtdgKTOwql2QPLKgywqjrK2iNOo7XVApqY5iI08IK3GkZZTYscR5fVEDWO/iTRHBVVyo6hPaBGXQhuVOwHSSJRNgOahZUrAaQFknXitUEFOS6kYHyoVQJy8NvUvZyaQe2JxzRbQECAtfGiwniXqaWkScprH67nTiLgwpsw8rIiHYKdCm0p2C5CXqYFOYJvePfmw05YH2QIMBtmv6iYjRkZUD3nsNwN4xHSxbUYASGEITVwsoCKnF41YnIbENTv/W4QneLcYuD0OiOo2BMUsmRh3gaDnlcQhonStY79ZQTAK02KEdiPRCeKiBszisJlNxR4BmeAxcWYANOR6OmcbJkjERwGivKwWkzkKpIkMrawbTa5QOMhrU6QyujNSY56ykVcOMpfiaL7TpJZmCU6IC20iYgOZJGLG6b7hE1b1Iq+SPaGAKLGnpJ3uOh+0MnldtEmMBVBYiIcYYMm9x2QmTwowSVSr6QKpDFm6DkhWbYiegSc48hpQGN5MRNSawSvp2FDva0PJTwAeZ24K6WCdTuhy4ixx/VaKlTTr9I5paN/19C7DxVkBNeBDl52LiksgrMlZsS4AdN2Qa3ZZANAVsd/AjLz3w8itJmDat6S3A41MANU4jW99/eZvwhrHZX8LYK72Qhy8oyxkolDpQJsRQDBhneTEltOme8fp8r7FQ9EjS7hH2vjDn1j+AyAP7190Xo6n0/2D0Py9/QIkf92/HvHjHw==);lineShape=1;" parent="1" vertex="1">
                    <mxGeometry x="169.31107916901738" y="89.57892997049771" width="3.8643096554144662" height="3.6768788195365967" as="geometry"/>
                </mxCell>
                <mxCell id="79" value="" style="shape=stencil(rVbLbhsxDPyavRKiqOc5Tf8jQJzaqGsHjvv6+3K7UCxx3YkN9LaWORKHmqE4ycPb9ul1M3n3dj4dv25+7p7P20k+Td7vDtvNaXfWr0keJ3l4OZ42X07H74fn5ffr0xw5f307/ph3+LXg2DlyboZ593tZiuTk78LnBbDfHTpATcRxiPeeOAGAkKQBIIVcBIBI7AdAKMQZAtJ4QqwkAQACOR4A2ZFHKXnKY5EKtySvAkqiUgfAJcnrAD1h5FAzeXBCDhRlBBSKgHSSVvV3QKVQ/w0IdXVCpQruQSJJXQGAlmblsAUIOIGZXLakBVycUDAUElXAeWUGvbbAICFis79QBvsnqyNVljiwf1odoCUooKRlxVilDQBBExjdVvAtx9S81Z3AiHMl5y2ggqJmBQRbJYfME1cpCUVwQlFvGR1F7OdAyXDQq0T2zJSKVSoje+bWRTsvoAYQQ2uKHaCAiwuuKacBuuZ/XUzrq66UkB1Cc0vHOgPWsbWsrusFwMFRMvGRKvC/at/Ehyb3/xLPrtF7d49qGxBmaUrunh6HSpqauW583BSQxw7wwfPJpT0DNz7QHG0X+2AE0LZdxqcHzxhaJNP1hAquUTUJUQKM9e867s8wXpx9zXUB8FWneRvvQYeMrrnqEo98mdjKFMdnppjuyGfWsI1HfEuh6u+op5qqmhkSx5fWazs9QFfeOdTeANCPywz9stvvlxG8/9/O3Lq0zOvy+Ac=);lineShape=1;" parent="1" vertex="1">
                    <mxGeometry x="176.66247718588363" y="100.58545179650355" width="0.4135278803967784" height="3.599861293026409" as="geometry"/>
                </mxCell>
                <mxCell id="80" value="" style="shape=stencil(fZbdcgIhDIWfZm8zQAg/17Z9j85U606tdqz9e/tmZ0c0uJ47xP0I5JwEBl59bp8/1kNwn6fj4W39M76ctgM/DCGM++36OJ50NPDjwKvN4bh+PR6+9i/z74/n6ctp9H74nlb4nbmSKZeJCu5vngmZ6jzzNAO7cX8FVKEsBuBKrgKg9oAE8gkCbLeUhEoEQKSUDZDLeWYRKIl8MEDRmHwfyBrBG6Amyu4+kDxxMoB3jhwgYu7TVAsVkFcWCs4CTBEoF4RctKeOxHIf8IXYpikHikAIf+MNUW94AGSSaoAoFIE3AlOyeWU+p2E5S9yfQZcQILVuQOwZdJNoS9Ls3wA5u2XZTIHECqeJ9kDpSaauRiNVcAY1QhdBzeLBli5WazpkSsBLV25uRaqWRyFawTQzRRIQYirJzq5atkBqLfouwqUxLBepthWb10vrWZY6UOAeyKCCtDV625mm9gmUC4Wc3VLJMMIE1BsA2FW9JraVlQB7n3c9oMKhCLEvIM1zBPZ25/umNQ1tVEC2G+fFCC8g398O2hNQuQlVu752DBfA+q0ptnqO5JFmeuIuo9DY7KjY71UxdJV4EntifPWorW++R/dC4t7V3DlIB5cHx2bc7eb3yvX//QNFp+bHDT/+Aw==);lineShape=1;" parent="1" vertex="1">
                    <mxGeometry x="176.13137632420853" y="96.29086603919086" width="0.4649293305586826" height="0.46420260859289625" as="geometry"/>
                </mxCell>
                <mxCell id="81" value="" style="shape=stencil(7VzJkh01EPyauSq0l+rM8h+OwOAJjE0Ys/09JYbu9zpLLzXmxIHbYJRPWy1Zi/qpfPXLuzc/v33K8ZfPnz7++Pb35+8+v3sqXz/l/Pzh3dtPz5/tr6fyzVP56vuPn97+8Onjrx++e/nvn9/MkfOvnz7+Nn/hjxdcDDVOUI5/vvxD11DS3//y7cv4988fLuNHwvGtPR6fQu2X8RJDJONziAXHS2fj+3X9YjOOx+NLyHIdn0Ml+y1BYf0ltPh4fA1dr+NrEPL7LcRxHd9CIetvoTYcr8LGj3od3+l99ZDh9yWkzMZLxPFCzkdCvsqPjFDI+u3X4L40RH08fqA82/h/TmA5XkO6rmfE0Ml+Nej1fIbJG1l/MoW5bmDkUMgEKQW97mCUkIgGpBJivgIqvbJU8Q5G4wAndKOHRA41mVTAkoTvYbg9jJCIGiSzUnBKGjKROzNc7arIGkMmmzbLJVdN1hQy2bSZing9Vs0hEVE1W5Guuq/lkMY1oIUMS6qHuVwDeigVAYNI61RPmKGFzpY03B5OC/IIoA4g5KZN4zoAuCyV6PYgh1F4BBgRAY35hIRGcgKILBnA74F6KZMct6RKbtoALSGgEOEzgBYHIOJdyvF79wC26RKGB7BjrWhmdjOY86wOQITPAL07ALsHr0ByLHINkIPdvFaWzMF5AJthIKOaALYHPWz1HaAzfdCFPjBAjYcLfC0gheSEbwNYnBLZdM2HILzyWA2AdmkDKAdPeC3A3K6fgRgyA6g7VrrphuRzHitRoNoXOt2Jmamyuji2B0E2YwDGh+tY7YFtWheWj91Di6F4y8coukkryFI/ooJHAK0IoEvKQQoCIpuhuE03SkObCR/MUI9I7hFAMwIYm2ktNLg4WyRbUj/41x1foqFMD6MggMUOzWw13EPiwdjA6NNIorJobBzqcgdI7KYV40/jrYzoGgDuYQzK+XrEexicYPWT1t6FA4ycGEAhfqh0090F6RYDCbm4Xg6/fx9lkYvrFS/Owjh2rAaACGXGlcQD9Yam0gLdwTbdjzj1LvJmwmeAAUsylSKMrAvetJyR3Rrgg+NMjUBXlw1I1FRKRK5hP0HTAQnzH7ZIlh+yFQPBsnNjFE6KA1Tq4+wQ45VgmfwOYoztmnCGk9+sAR2l1bS8Ej9tAMg6mGkTIho32TwBLSix3jIO2TwBXJZMXdpVWs2JsQjFFBIidnPEnezBVB6O1biBkiUZQK6yZOyD5QTMCsEejEExRjYK6oNxtEguzgDAKmumkeKoeA9GfSM7pYY+zug7c7szdXMVb4soWNbBABDHWVREL06OlMEJ4Pkl82hg7kuhQZP5TEgXWYQ92E0rskoL+hMBmBuHwG9mFsmSbkThBHSauDYq0gDQqLTObBIsqVBmbACIdnOmIf5MP8EMieb5DACOPcfDnq8BFXNkiadzDVABwBODk9Zel5SM3bN7MAW6ikZqYbAZOp5SqvxYO9ZM0sn31wDBgGMmhYkCGQA3HWkWTs+k+8mXaBhn48GfCL8F9/vtCOBfuYF6GJ1H4zNY7pCI0Zs5xut6Ck1r2viO4yu/YlDmws+no+fJvErRMcOSd+uBVFo+FO+V4xN1hHP8gPGM8cz9XhlP5PLQ0bBESpDmeIXxm/MXHM+87Az4cT0sWjD5jG48k0/B84w082n6BXZ0c57D3xeVB3V2mns/dS6fsnh1UW2jAWGKEQ90UD47J4ANRxquTQBY9bwDDJihcquuWIpNneaSJ+B6SLNMxjcNjsaujZH4BaByPXB7yH23JFCcW4X29QCWbJtLAtOolDwaAHR/FnWZcroKlJFHFgXr2RJxB2AZFT3Dv9cDsuOzmd8D1OnyKfAPAQkBLMM4TQbcw+CkRTH0NwBlaorJZ2Mhg2scsAQDbMwYsn7e/aDq/LLsDCsYygngNy1u09Q1KGZJM8+4T4DiPWQ+A+T/DMAyjN5UmiyVjanMCNjcNKTzpj5s7iEigDIqxbKbAVgjkCqWGabV4AoEbRllQxq8PigNzBcapzT0/1cAsN6NVg080ZgdXV8ESPtNgxeVnbmH7Jz5aRpcKCYMZ0DI9QFSw8Y1WGHPG2PdSTdmJA+v+jC8g9wcl7zTUN/CL5aOnOFdhfGUzotLCHG293949394998O7yKuh3rYRThIQ4uBdjodSa1H44HR5p3ByuAtjzLmQ+8KeXJaZ5ruG7psd/YNy980De+5ado47+GSgpnHOa7gkjbJWXEzVNojsEgKNk4EnVFJnZOojnwi8a6cmTp1yVnqWl2lbOe8KxrqXWKkYn19mi4GKC6i3djScqjKHYBGUtlFtJVbl4zJ01kZYHtI6L5z5yQquWhwcJoWMaLNuiu4YNGIm6ThYrVSePFuoA0old7DEHQKpfNKmSCv21fKkPJvanEN/eCu2lcxkqqZV8oqWo1aaEfLKEcV9wTwzqLZygF7ECreI2Fb2+z5IuI9XIPKrYVrDYhoW1um/lkU99AK7ZOWgffQGjX34hK2szmJzSBI+WfrEG8qAJ3u8WjxXQMaOvXZp8OaCty7gV5pwkaKm4G/G5DsAEIDF0nY1ta5xonrQrj9xBJgvwc+TnheuA80lcJPqZ+tHCegHZZqDeioQMI74g0ACrR5dNOb24NSvtSre+XCmzv62Ux4AngFvxfUabNUtA8uo7k3W8gaVAyAT4EaNQI9uWcxQv20KSQuaVBpNUC6OsWbX10CZh8RtKryCn4b7pVLprJkgCQIYLF5E/fwplBy0rp7mVAPpX0EgGzBbAIg9zBtNeyhURU1AD7tadQutXoUCE5A5/25BTMMk++zGZx4bxqrZ1MyAHia1wBgjGfYuGmshptWqqLV9ZApf3xqRAH8tHK7tGg/V/7QwDe4K930ooVeeb+6b9JXqg+LZwBntvsRIA8H+LKnDEp7lxaPJbYAfI6xWZJ/8KE0BbJ4UqL8oYF/tMIBi2cxWwA+vNkA/NMevunF4yF+D4vnSTyOWzyAUtoMu3hipbQMuHjEpbTgu3gmptQD+Ydod+0EjxBeqekU/jXdZhP+vZ7S5taSMYU4L4K9E0vOySmt0hXHpadhIj6rRMzaKa+8z5qcu2pGvmc9C5Y06KZvJec7AHsGmYerrAiV7+w6z5STvvmiHu6BU4FbsueObLCG9dn7BoaJd6LcElZ3lIzlZ3PCrmTlLfE5YgJ75qjYA3B1wsf7dWYRD8g314fUMSc9uCzN9CrENFw0UnVsvVO2npzVsIhD2ZIS1sVHo90DKWJL/ODBqOvvGTyN7V5zD974Ndxbo0zTgoK0eCRqJl1hZvAHK91FlZFyq+6+U8ArUQ3XL0orkw2jK+GVjYr3a5E9q6TVxSsm1nhX3OdMOl1/wfOfb5iYdUReKJVWwhM2rEmhuZKEVFgKPc+Ihk54JdZ9a0B4+Bzd5094ZtK9p5JEA8/oPieTqA+PSL7mAy8+PuF4pu+ubXN+zoevP+F4Zq/8+iMNOSOyqM7jkIiPZWZ+kf6+z0eyymrEPEFXmuv48s817cbbH7dvQ33//P79y6el7v8/fkvK/unlO1Tlm78A);lineShape=1;" parent="1" vertex="1">
                    <mxGeometry x="21.185030187678763" y="40.18909837943784" width="142.64599440533615" height="34.1131819957132" as="geometry"/>
                </mxCell>
                <mxCell id="82" value="" style="shape=stencil(lVjbchshDP0av2oAAYLnNP2PzMSpPXXjjOP08vfV1sVexO5J8rb2Hi3odnRgw3evu4eX7Sa41/Pp+H37a/943m34yyaE/fNue9qf9WnD9xu+ezqett9Ox7fnx8vvl4cJOT39OP6cvvD7Ylc9pTJZBffn8k8mCf/++HrBH/bPM3yJFF2HTxQBXiJx6PCRclnHZ0cpGXys6/gUKHqLT+v4eH092w/YP2cqyfjrwPfZUQgGXwA+OIq5wxcKAO81ntzhfSABAfKeqvQGuYV42UA96DMcPHmwQqXUZ0BL6H9OVvClrzjWLSIPHEkfIhaqGRgE8rHPcSSHDPR1H9RYqTIwyORNVeA28IVyvyUt9AhWmGLeO50jFRClwBT7POdKDmxpatw+bxKg00FaGVwNtJLQCup074No7kFlaGlI3zxFt+Rgt6Xe6ZJasSwbeHLGoBCDsKqBqaXqqIAV1AdDeDVSjTAPZktV4AqeKfXVWivuB285bzIAJFwX8CiqYhtU8QwqScvGxLSQAHyiGizeYfwQ0YCGThtJV7zuEBSFtOjN8A4ynhh/E2WA14TZgCbIFloSZVghAo99WlhBkIEQe+tzEMh4HK1BRU6XIUrSSHPNwIxOLQvGPti6U4pEK+ShNWsjnLVBErw1QAQ2jirvHDlkoa+rXQLRRWmlP/cBLJDteNaoVqAXctNDMzwqjDR8XxqfrXyfh2ZDQ0SaXpzhPSQ7b1KWoAL2wwiZeg3T7ycNVJK6wQDVqdKt6YQANZ6qzmRUZ4FJCIMsLxlSsBoYsVC49caaD9lMZhWiiPMGvlA5gqaatn/sx4gw5ovUCGsmqRLygdukvxokqC60NNIgC5HKK7Z5VHci9Z9t2pKDx4tom02VMyPFRrmXIlyaMl52mIKR8kqAIMnjWSS3Ul/BO4PXeAIycpT7+Hg8BvWs1VeEv3r0sfi/M9I0Gn0TxDbY13qg9vHEenmKnvEX7oejrTcNGCi3yCTO4NHRMQUbHzz8tDtMRzrIQtMRSOx+ALcrg0g1eMQQpVq8h7NjkkCmX9oGl/Gqc81ZuSVwGV+bDr3hkbBWvDmhxXbsXBEfQ4PF1kEfNUhN8azuSAwe3c/U6yH3dn+FjvoaUe8MHinrKWPmHI4znCyjZEjoejgM5tgOz3I62Iu9r0Md/9n7vffx+nC7THzaHw6Xu8j5e3v5qH9dLi75/i8=);lineShape=1;" parent="1" vertex="1">
                    <mxGeometry x="171.2471149074167" y="27.040256865221068" width="3.9202816893332972" height="11.02327332254302" as="geometry"/>
                </mxCell>
                <mxCell id="83" value="" style="shape=stencil(lVfZctswDPwavWJIgudzmv5HZuLUmrp2xnGvvy9UlaoJltvoTceuiHMBTfzwdnx6PUzOvN2ul8+H7/Pz7Tjxh8m5+Xw8XOebXE38OPHDy+V6+HS9fD0/r/evTwtyufpy+bZ84cfKcxTKQnLm5/qALRnz+8nHFX+az3d4y/V1JdhIsYwJzlBsCYnYA3ym0lpkabkb4TlTSA3eQAe84KPCxzDGh0zJK3s8sCcWHSBHFtiTCrHGRxCfnCk7hec0xpdEzmp/M8Dnau7d90F+BV+6/DLAFwqt/dbXjI8I6gDnKQAPrDE6BRzIoBgVym2MfCBGQSq1hishePLI61yLrBKilDVOmzIpBrLIpEilIyRQ2EIwrQ/RUQGVXQK5tjNDgq1WfDVgC2uucjMi+LY3eS9B5MOgPHQmWSHscrpQRPguqgzlsU+bobyrLkSOgFz0hSeVjaqiq2wr+oXbUxm0CDZIwb/a01LANikF8K5G+Z0aEyzOWidiodS8v1Mlo4de9zIs7VmQD3sJ/WBYTAKK0U8eIZg4JiyjzWpCAoRldkbtQwImiT5EdYJME3CC6ENs21OMRFGS9v0znbZxxeQQQfah9oSUoK7KhqQWhixLFigNrh5uCiMuAPy2H2wdavDKY2tEtgMyHIeWuE2CqCYKkaHUbmB525kGeG4lKVvKoCpMlwGpU4xXdR2qhSN8bps/QU01uoR8gQuJxEfh8Yon+qmmYIJDTaKndniG+d278/8fLxd/fzBe5tNp/T+5f69/SOTR+jPDj78A);lineShape=1;" parent="1" vertex="1">
                    <mxGeometry x="169.43034638841198" y="33.37207579465496" width="5.401563962551404" height="0.46217626859738287" as="geometry"/>
                </mxCell>
                <mxCell id="84" value="" style="shape=stencil(rVjLbtwwDPyavRKSKInSOW3/I0CSZtE0CZL09fcddyFnRa+nKNDbri2a7+FQB716vb9+vj2k8Pr28vTl9sfx5u3+oB8OKR0f729fjm/4ddCPB726e3q5/fzy9O3x5vT/+Xo5ufz6+vR9+cLPk5x2CW2RSuHX6UmXWP48+HQ6/3B8PDuP1ylM52OVmolAFkuTQIpSKhEI0pxAFSMaoknOk4AmyURDzJL7LNCkNiKQROcg5SytE4HVxSFQgnSmIXqni43E7JnUZg1VJUbqdCmzQBuZuSxQvUmm0llYu9Q4CzTJRAPyqnPiWpFMfNCNDw06dV8gJ0lzpnsUDfsCRSXPGnqgtVT6KITVJCSONFC1EcRVIEggTht8sDmshZqE120OqwUaJaSpzz1dixSSuLap1gofiIaGynHlnWnxLYUwm5S7FKMCfU7c0qIkrBCIcx60UuRrWdKsQaNUZlKUMPuQEAaCGlZHIazYamLEJOQ1zJkGLBjRgDTZbBKiSlAGqBWzO28kqOi3at4gBmMYPw5ZgVOdQYANA87mTyTdoMVPBwQ1kHGC4dGCF8gkCxr8CIWAsglnUrL3wZgAfHBhLWKk3zB0vUl5BPqygEpxYUUYmAb1EIARlkg3wKTuoHjA1N5waLMLbdTuHjHROW0AWmIP0hz8eYZImD21+++TVkOhxuDtZ2XXhrln8SHfz8F/HwlQNguD6KY3O4koetOcQB69tOeCzgi5lCnr/uohdSEdzCTddL8Nr/Z6s296kzVz2vpgdDyjTn0e8ISxnjym91lYG+t+leo0KMcXCGx6k+UBJvnuD4M4/R8BoHDUSUApNczmz/PvY7Blfz6QQgKpsjnNidrTkneYlxF4aZntQc5YknvxiL2sSURDN0lOoNJR29sgUGsKAp06vY+QrAJlROHyAhCCx1SADkMMqOjzJMwr8dsTcOsnKEojAIAw1TnRpY5hupcItxzWRHG1J8+psFgxRrLUxmwSFivmA6iqY1W2ltce84xztYK8suEJ5pnmVMNIhqtgnuauDVbQudyg2XOevg74y9TTPOdB7gMxKesgju+YxEFg4e+zBKqlM04Sxmp35nUgXmP++UT0UV47LTRIwtlKHEmYzN+uYJtkNCb7hsO2yPaqDU7WTnlh9AtDVUp7gt/CkPdEMGaDMOh/dmUQR82sALNO08s1scG8OlbXy3XtRy1AldFgJNgNhoWrMwfK2ErXsm4UwBAiV9UYPZSQdO9DoS7AQ3e5lekejDZzNZoH2uyRPLfVKu1KMPPsuQUbtZhibnVRvinYCN+Z/ez7bbx+P8+WNfDsaC7+yvzt42Jj7TEJxJ5lU0jufCPMYrtZYIYyf7vHiMbXhH+8cv77efx4v9++Oz48nK7Hz9/7+3A8Ot2l68ff);lineShape=1;" parent="1" vertex="1">
                    <mxGeometry x="175.5265770062614" y="30.860482105966753" width="3.491460573201009" height="6.0453808670631926" as="geometry"/>
                </mxCell>
                <mxCell id="85" value="" style="shape=stencil(lVjZbhsxDPwavxKkbj2n6X8EiNMYTePAcXr8fekaWi+5u1PkzdlwdJCc0Ui7ePf+/PC23wV+P5+O3/e/Do/n5138sgvh8Pq8Px3O+msX73fx7ul42n87HT9eH69/vz1cIi+/fhx/Xkb4fcVVynIBBf5z/SBCrfz78vUa/3J4ncVLIWkWkKmFbUDIFIIBBKGStwFRKNoZQiFuANBIqgHoEAEsKeUFoFLibUDWFVtAitTBDFnHKwaQeexqFVDCAlBgHUqhaJdUIiUBgE5s66BfUt0GVKZs61A1bx0AhIQNoDGViGfoFpBHorf2EKMBdB6lXAdoHRwgQUDuo65TezMTo94I1JKdolMBlUvKIEu5LlTBmlKiXnyaKurvRM32Rm0UwB6UEC1/pjdSpWB745I40N+pk9i8KiESyFKeRGKinJIa9HfOo0wTqQNVBGiUbPepVGXQrsrRYptJOqZcJbYzSKKUIINcu4pSBBROGenatUKZ0U7rtm4qS0CLe6TSXTyDzuvZ51Tj0fjVnybaFWj85hVDBpnW4ztlS51ADEo8I/vURUPUtiZodoIENVLjxek8ZKYmyHG/4AKUcZDd4jMgssphSS6+ogYKC6WAEq8NF/z4AhqiqYxUl58I1t8W+UwUQf5bo27FN1IE+dfx3foDBbRf9jqnCUD5F3/uM9QgJaQ7PHhozFZ9O/t41G/F9wNTADKthBS//oYIr/n0BK6YX07gVNRRfhb9E6nh+OSOGWqo/9tQ/Ft/Qr4U6p4vUOA+Gd+qd3WCHVFdHMQSh8SsA9LY4ASokALq6pw30Bon5H3LOCNmhr+DY1IPYqfqMUIHpeak2CWpmeigTdW/V0sbtSsoS3mS2aluPLzqFsARWS1XAZVWgPMGtQ5ub+0h2rQ2LSXadPG3nJtdWK+DtppdkhpTpEZFiO2m9YaA6KkzOL9S8fl3s6ETAAuSZqlZQMlQ8XJaKECHjFPr6zxUjlCD1b6z1WC9MjTgcvT26oxpYngFiUzVESjB26aqopOZ0KEOS/ObvphrsOmb0Z0A2AqKr5uUIeUb8Wy3LHkcFavx7A8GjUfOgle8PsrQwmjKVPaNeP/uos4FlIyHmkzxAV4aZfigWTxq67BYj8D9xuFzZ/EJxKuPWzxMBZD/PG5Ws/gI9luGz5rFZ0Cyzz6U/T9ef9xe5Z4OLy/XR735//0rnn66vgDG+78=);lineShape=1;" parent="1" vertex="1">
                    <mxGeometry x="180.1078626688182" y="30.083106719963553" width="3.9537596901268" height="6.4701954234626236" as="geometry"/>
                </mxCell>
                <mxCell id="86" value="" style="shape=stencil(lVjZchpBDPwaXlWaQ3M8O85/uMo4UCHgwuT6+2hDLUYa6LXflkU9o5HUPdKu0sPb5ul1vYr8djoevq9/b59Pm1X6sopxu9+sj9uTPq3S4yo9vByO62/Hw8/98/n369NkOT39OPyaVvhzxnUSmUCR/55fBCrx/4uvZ/Pddm/MWzTmmUq7bx6YkrXXBSq2L9adRAlvEJIFVKqCDlC6sY+JAiP7VK19p5iRfcjGPhVKCdlHa5/zgj/V+iORQoEByvbAhYkRIJDYHUolQSlIxBZQM2Vw5JCp2iQ3dTIAQKHaLEBIQJDCkOXWoUtTEViXeoRpSIHY8qbnmRo3AZlJHBOEGnBJ81qqB1TAHdEjZg/I4Aw1UA0WkKgDl1qcK+cCULVAgOaLT9+0DgAXebgCQPqoAzYPrVIHUdIjjoCGCC1UyrADUphKeTwDorTGpA1RQi71gUB9rq47IqCcZ5s5pojCpAvazGmkGV0MjWSsDbRDJbbKPVEOAYSCeEBGiVBSRw9AsqEejyqQgDBNqjIcGtZ3oxg8ANWG1po4UjNU4wlgD906FCZ1yd1YCkDSp3+7O1qXWAgrRw9AV5BGvTtCKEdRpoU4DAAQpV6os3cJXaNa3iOpC+aoJB/WiFzq1B3jGDNO8zpwuqIdGvWhWjNi3GcBU3k7Tqt6IgIpvxynC7wVq/j+R51E1VouaboA+qyFtwHs1VgBBRSfqMwED+iglrJQsi5d6fPtbkP58imfbrQnDTbeUYZD1FnQ77ZYziXBo4BmziUiQUIEbYCG+kapDjzojEAVqIMI8Nw33i4Nr5Ta6KIsZC8B2klXUNzJD0tai+hG1OvP2mvPGIE/Q680zRpAwwJFu/7CLMNewRZmJfYd7sIsxl5dFma9oelZGCbV3lUo5Az7qxnPwqorlmF40tZgOpGYT38nV8murtsh+lL35gIyFamyM0fUTfNU8G7OgFfZ1yVWQ/FjCzYvM+c+5kz17T4+aptb0I8FsntdxmnqnuG4CD79MWfBXB/evxu9bHe782en6//9dyZ9df5GlR7/AQ==);lineShape=1;" parent="1" vertex="1">
                    <mxGeometry x="192.86958912043815" y="25.920185556936758" width="4.0023345866409485" height="10.741650426748931" as="geometry"/>
                </mxCell>
                <mxCell id="87" value="" style="shape=stencil(lVjLctswDPwaXzEEwRfOafofmYnTeJrGGcfp4+8L1UNZhKzN9GZLWJEAdgGQO7l7f3542+9ieD+fjt/3vw6P5+edfNnFeHh93p8OZ/u1k/ud3D0dT/tvp+PH6+Pl/9vDZDn9+nH8OX3h9wUnQhwmVAx/Lk8yMf978PVi/3J4XdjHRiyDPSdKCCCkbQDYk1IBIBKnASCBBKzASlVHQKOMAJXK6EOqlAUACvG4Qi54hRWgJKoZbqmNTlem2kCUAuVxhWqZiQCQKI4rNKEInDZmxJEZTYmBDyl5HzRQAitYEMVtqUCABbGV0WmlFADAiBBHgFAD5KuRpI6JK6QFADLVcYWs/RO3Aa2TeQYwJQRQ0jyy1XwAmW6hE2HWQ+mZ2VohrhQXkNOVZMyDsSugFZjiuCXOMA/ZojRWDWYY1pQpO4ApBPhggDTmoXWntuy1+gVQpTRAZO9CQ/qRVZCERAEgrFZIPQq3JW3yUp+GiACRUvGAhKrMSnAGCECh13az8CGAKFl7yC4PEfcTJq4+DwF1LO4bmOtY18fWjpx8rJsgD5Iv3QW3XOsNI7UtpChp3FvNXDCgEsSkGJx9ASkT7a+v+4lICJFqcf4K4JD1EVfwLABYaDq2c+0k3LJ3+zdCRKSz1PmyoJyiHbGv8UZq2Gtrb/YL2TDKgfSQLIWJSLoakibpI2EaKYv3AUrfipULq3TlbenMVyOG5csAeZW4DBJn9S6MPgSYt2yVJDl7VLyqzTcjUyNstC17Zrc+id60Vxsa3bBde5BvA+z1CLAdKdiRai8lM0BhDjjMIVlMFyiotoSOVDU9oeFZG1U3IUU4nmvxBbIEaoAXFtfoAAqbjs7fm0tSoYJmsFWntWkbUdWGtjhS1aZtJLcivmpb8mEZNvn6CQnT2+q6K2O2BCSHdU5XiQOcYIrXmylEUJ3sX1vM/2hoY3+UnOZ74MCK22VW4Ia9q5F2pAmg5LGfm1PpJ5oNf/1RuEIWrYbgT0aX1vveolwg0lmC1TWFCJU2HYSdB7A3m31zBYwKSnBdbQjvR1cioIh7lGtqAZ69JoZGZ5/R91enELNHbbz6jhMgQS3/riFwv7+5TbjQ28XVvgJ/7YDAjnF9g1v27jZIYEObLiFGhiY4tfzvddbn9vbjenf2dHh5uVy9Ld/7uzZ7dLmnk/u/);lineShape=1;" parent="1" vertex="1">
                    <mxGeometry x="196.6874010415279" y="30.331758587146737" width="2.2400773367206797" height="5.128111018461382" as="geometry"/>
                </mxCell>
                <mxCell id="88" value="" style="shape=stencil(lVjbUlsxDPyavGpky7bsZ0r/gxmgZEoJE+jt7ys3NcRyznZ4C4kX67JaSd7J1cvDzfPdLvLL6/Hw9e7n/vb1YSefdjHunx7ujvtX+7ST651c3R+Od1+Oh+9Pt6e/n2/6yf7p2+FH/w+/TriaKUhHRf59+iaT1r9ffD6df9w/nZ3XSJmn84WkbJ8vgUqezlfivH0+R+IynQ+RArggFWqzA8E8CAAQKc6AyBSBSaIkdQZkasAkCVRngERS3gZYDP9Z/AZo1BIAmA9zlJJSbNuAUKnonOZECUQpFOI055mpoRsSiSOGEkcAkGHxABi3KoiSAVymVUlBlLoPs0nVMoPDqg5QKQCnLdM6+9AizEMSqrMPTUgAIC/1aSZVALA0VVdwCXKpFMoz+bRRAQBLU5rprUIMuGRpcvVQ8rjzIqCaCDhR0iE7lwGZ4uxDavgG4+ZskskCYqsBNM4lmmGmDeBlplFFN+SR1zOZyQgQKDkAD7HdSpzjkslCRlyyIGYPiEjtldJcQEEhl4wIbU6cFS0SAQPERe5RTRsgOUAaFbJVDy6s78JzGVBJggcE1EMtTe6GOL65DBDfgQyQEKBQ4OUGwCU1Iqj3gUGmKw9ungEUAcL4+SwPiBomAsGRL1MBeajLqGFcKkgEmMT5oEPatqLkWpbVQ0AVZ6OIekBGAPFtt3duJMa8UKOOGtxiK2fvdFVYD2uUAi5RKT4PAd2Q/TRjmYaAsviQKAJ6my4VJwICxx9TPtdFrYCQevemqB6A1FuXltUBKNMfBbSyFFCF81JroxucdSCUh8DsJyxrcmh9sCt0tsnaaAIFYQBXENaoBQGsUbvZwYwETrSFrtnKHPmwLBDGx4Kkr4794m1gSpTBDVX8PtAHVyzfYVaBPrgiMgVfQX0ORQURx8rzBihwrMziK8hSiQYmSX6sPKPX1lLjmpbZlECq1S9BjSmBsCYfpFqGnl82iNIcI+thqAEt1dMnZcBt9vZ01UELkJ/s+2wDeCe+gdoyIWjy8Z0hCxxAm+9Vtryj5adr7pwwqWN/2tr4XPHbhiZo82a/msSEAev8WeHyI+xFtcs28EHUT1ZKDQQ15RHDt6jCod5y1OYsR/j80afVOQkMSWfi5fQUV3HNfqhiGFBbrIL//2ja7vuytx+thqYJ7iGDqaF2EJYJbMjSVvvgJf5AhNry1mNSjM+ze0yCo38L3l+bpZD9PJ5E3s+jBczi7xsyrLC+mgd3Htn/0RfM/5+3D+/Ppff7x8fTa+v57/551b46Pc3K9R8=);lineShape=1;" parent="1" vertex="1">
                    <mxGeometry x="201.13975158476006" y="29.60246236444084" width="2.6038783926446984" height="7.175001661855804" as="geometry"/>
                </mxCell>
                <mxCell id="89" value="" style="shape=stencil(7ZjLbhsxDEW/xltCEqnXOm3/I0CcxmgaB076+vtSNeSMKPtODHRVdDce64xEiryktOGbl4fb5+0muJfXw/7L9sfu7vVhwx82IeyeHraH3as+bfjjhm/u94ft58P+29Pd8ffzbRvZnr7uv7cv/DxytVB2jQru1/GNJ85/Xnw6jn/cPS3Ge+fIjUAk5suATiBlnMCTdwDIfQEnIFItAEgURyAEYgGAfq8OAJ+MugSYGVjdBrykQEgDIIXaTwA4Gb2aqUQACJXRrSmTrxDIow1Z3eAhkMYZClNGNpy83oHqKAC3lkqOR0DdAIxWwIcRyFTBksrJJyegUAKhUSJlsQAKvhJstNZKDIzOmUKxQASxlB3lZIEMdjrxZHSlCoyO6nU/ZpzDCSHJqkabArip5YtYoCDAU5yMyGBJKkNp2ghJAFChCxbwAPCFijFa3wDpUyBMwSTA6ETF2CwUwcZNUqwJV0A6OLvPRfqMF8YXIxm5W3TepRTH0M4JRmq2W6bjGYzXQpCcBRzIHQ2KGK3oFQBwIplUErlUctf1pawCIKYzRnsgeprOhS0QQSZoIajJAmhJSTXRzKA1GMWpqmS0APJSrF11T0CBpSE6qmwBlDriKE5AAskZak+tJQCC26s6+GlJKFqdFZiMmwDpfdHSq2hF5KodL8CpnpJZT8J1YQoLDTzQMfhgq0ILbSTBgZwRDJw8HKwEr6Wntiw8AUAA4gyoxAAbkrfluYkYmCGlM+mZUbZNdafJMAjtq4Hsu9eXhQEBp+8tKk8EuaBtUjHFVoiBW/93bu/t3Ea3vqdz89MUf7lzS1Nv+K93boG7ExcnkwyWpF4SsyTpp9LzgExuddBobWVMyq2c3xQwO71yQlTAFJSVM2jrrsaEWDnlKmD2YeUczdH2DSsndQXimA8rdwG6D2aGldsGBfwIrNxnMNtj8cqNSTsrXXMlM1dRfOejCzI65vttxaVdM+cA14vqeU2aGhlHAqJCe27jIAfLW5R+SHgb71DB9b0eL8ajhrv2vHrf+NamyRXr0WIsdv3IXhUGsetB/qxTSOP9atI2tv84Hq69Y1wfrw9vF5r3u8fH433o8n97Aaqvjpen/PE3);lineShape=1;" parent="1" vertex="1">
                    <mxGeometry x="206.14713674894824" y="29.508057025491325" width="0.46818938472526533" height="11.217137006078504" as="geometry"/>
                </mxCell>
                <mxCell id="90" value="" style="shape=stencil(lVjZctswDPwav2J4gcdzmv5HZuI0nqZxxnF6/H1XdamIkLWZvMkyQOLYXYLaxZvXx7uX/S641/Pp+H3/63B/ftzFL7sQDs+P+9PhjKddvN3Fm4fjaf/tdHx7vr/8frmbLKenH8ef0wq/L34piSuTV3B/Lm+85PrvxdeL/dPheWGvSWId7J2ktm2fs6Ro7J3bti9VXB7so0Tdtq+lLzfH76SGbYfmRMPooFIScYgSxgxQosB2UEl+dMhSI3Eo4nXMOUj2xKFKMg54k4lD603qDuh7Ijt452xd1fXObG4xZq1KkYSs84i87MWzrBHyCD2AKxPsVYQ05lCCRNK5ir/T6IAgSdJlBmd3wBJK4J2jhXfNoiRpBRLGHRonUEIOI1wBYEfQB6zFsXEAsJIqgZHZOBRJhEE+SxnRBwAXAo3S6TLbNymkSFncWKMFfK8XqRN4sUElAaGpau0jwQUEwtmEE1nfdVguKsrWX5GzoQSECU7CSDVwiYnkTMQFhhiXgyQTf6ANXh06sGeSqlKbtf+/wgaA8so+MgVe1SdII+vjjDFShAI1RgFU1DioeBIRHOKqxVyxpY7aNQksOTnbimQgJYmoSjQ1bVQmclfOhX0j8cyIXNqTHkDV6ioe1rOValWppKCYE7KtZyHxg5Om/pnWx4k3+aoEAiEnZcVhxyDXAbk8B4h9tCPCxBla/8/ZT4OiKShKQEQOiCtjxypXUQxB5hzA4erZMbAaQWqkuqLFCkVpfPyFco0hFe083ZooDKyL5yNIFR37nEufDq/zOEkbG6eVEq2uxlOMgsrmrtwH6nnaxERBGlfVcjOC+6RxyCGaW0LqdN2a7PJYVuhf5PcQU1YPweSjYBhz8DhDmD5qL+IMPqpfurpJ1f7iOrjzagiRStbHjcAKjDS2frQ9aFQfMZg6a8/O5OT69u/5siEQ9ob9hdYfEDN6hKskWR/2psGYufj65gTXj+zLeCAkeuFCvmnsV+wNv27v7cwSqHShX0Z+PZWJz35J+NgeD++fLR4OT0+Xrx7L/+1nDry6fCKJt38B);lineShape=1;" parent="1" vertex="1">
                    <mxGeometry x="206.02203299061796" y="29.33826131841954" width="3.923238476917533" height="5.593511006262746" as="geometry"/>
                </mxCell>
                <mxCell id="91" value="" style="shape=stencil(7VhJcttADHwNr6hZMAvOjvMPV1mOVFEsl6xsvw8YhjYHVHqou28UOa3BjgaGePe6f3jZDcG9Xs6nr7ufh8fLfoifhhAOz/vd+XDRpyHeD/Hu6XTefTmfvj8/Tr9fHsaT49O304/xH35NuFIp+xEV3O/pjafg/r74PJ0/Hp6X5wtxbs5nyhGc18+h/f9ILBDgDEDIZQBIlGoDUJEcUiFRaFWIkQTf4GID4ECRAYCptjckR+IhoHALEIpIB6acWjcU8sisTEkagL4JBQNakaojDhjQRlJNlJFZeQ6EGSCOHLKSxpIBRMrADypxbEWSTBEorRJz62mplBCAZ6svAAKspCIZs4pQwLFklRZKIONyJqkWUIAfUrHRqgCkA68A3jmYcrFQug0Rymz3jUL5SpxuUds7m3Mdw2pSrxyBPOfnrxtD480gG2MvUDYWSrBmeE9sAsPDMuZ5tsciQSuSyJM4C/jnletxEah6C/BAJM7k2+5QBdburALwCoAaFtvuMFYlcENVkZIFRHCDaCCtAAXUPY0z03PVcR74YQSIBWTgBxVJTKwG8kAkVTpUC0i4YdnKGqgAHdRxhjgoQMANGhrRWQCKVg0+KSuRUE0KlpooIFaYQNlZPwgQaUzRleOQWZVMOW8BDpVJWQHczJ+uK12vRGtAZdJbHiC41KdkuUzFpT7LlaqBbqjhCtNAOrz7daOVtFRzWPkBJNCi/y0QiBjfjlCyY7i9dghE4T7oz1b609aNLfTnNsQH/enGXrJMoMftV/ri4UENZHsiHk9GgOEmeABSgDFpZ8QaAa1InSFudHKbDJ0xUQEm3TqDqAJMoHZGXQVw6+fOMK0A397QGdfFNqzOPkDJktmA4IVDtd2nt9GwNANvTDLVNoo6Cxlbvbrml2jOwyxI1ppv/vsfR4r2/5H4an0Rc94h0lYprs4jVljI8Q3nlYyw1RfJk+PMkxf6AvsrdzHbKmzPcavihu3+KqvG0dk83br/657Xh/dl49PheJx2lcvvdjmpr6bFZrz/Aw==);lineShape=1;" parent="1" vertex="1">
                    <mxGeometry x="218.90873380700185" y="24.15893282023842" width="0.4239056273461032" height="12.599515719681925" as="geometry"/>
                </mxCell>
                <mxCell id="92" value="" style="shape=stencil(lVjZctswDPwav2JIgAf4nKb/kZk4jadpnHHS6+8L1aUiQta6efOBpQhgASy0k5vXx7uX/Y7D69vp+HX/83D/9riTTzvmw/Pj/nR4s087ud3JzcPxtP9yOn5/vj9/f7mbLKdP344/phN+nXGpUJAJxeH3v18otr8/fD7bPx2eF/bSSMpg3yhFYJ+o1ME+MqlsA+y8nEZAoYgAQm30INod8zYgKkkcAMzQhyjEDpCJQZCU2hgjrtTqtr3lYIyRBGLgQaPo7IUqCNEU8jYCMhUFgEqiI0Bp+rqZBO6smWkUKRQAqN6HZExBxIs9hDOgUQBXkkI5DICMqZ1Cv8AMMC6CKNmNdYxSyRSB00lJ8wCogRQQIzPV0YdaiBGgdCZ3gEZKCQAaNQfI1ALgqlAcnVbrACCsxcqXx45hqQSAGruLM8CoAcJajczZAzIAaCBxTxAKoOAsJjw2pWZHgIqzmNSxKWnpfe1ySUt3cQYwCciDuZhGtlqmMwhry5TFAyLgUiu+dSuu6VapqgcwKKCmVIsHKOjErfmatihBp43eI/lUcB4M4HzAXDKAj5IFGjXv5ieuUUOQD+oLSCsFFKW6ekKFbDVquPlwDZB6mpZXQmyV3lSWTiNq2Mwtq7CiK7EfulPiUB6kj48lNdAThNLYZibyIR+SH4oTvVGUsh+K1wqodB3y/yWa2ANgE1BKqxItyIe2uhJ3vbUF0FUeGMmxEDrXFqlG6mR6xGrIMUp18yNIsQidAPohQPSq9Z3xWyPI+WC5RE+oNpbHKNklkRSopoKdkH6P9OXRrp3Oi0dEkAjTR7l4J9CdCq8AGU7qvFofrqgNU0xuoVHtcnxLk61HCvLBdCqPca0KqzplX0J1fuZlQOzrwixEcVhNG+vIbws0clrmMTtr44r1vXqZaHHLoKptjStjWE0tw6VmtWVZ3FA7jqnXywzgXoQba5ab7LYhZJCG7AtuWpqQy53Ji62sAm6v2p5lpYDzg1/iuMG11ZYNt+YWeH7py85snyCvY/Aal2NX7pcB2Y8GS3pFHkRfOXYEItHk4ZgD25WRPrQ1NLtdo+8SW5XmVEaB89Yo6VYTCxpqLuyFVYBrQxKvoI1VeMeNyduj81NP0MIercSrosGvPsy++ftkFM/iiyDi+xe/cUfYttKqk+JGOtm7ooQlMN1n9Feg1DF7J1KlH7Bl/6H3f9ft7cP7y8aHw9PT+V3l8n//ctJ+Or/YlNs/);lineShape=1;" parent="1" vertex="1">
                    <mxGeometry x="219.86892976201807" y="28.12607739330508" width="7.31788659447585" height="8.177818467910221" as="geometry"/>
                </mxCell>
                <mxCell id="93" value="" style="shape=stencil(7ZjLUlsxDIafJluNLfmmNaXvwQyhZEoJE9Lb21en6UmO5ZyfYdcFu+CjD1t32Ru5eX28e9luOLweD/uv25+7++PjRj5tmHfPj9vD7mi/NnK7kZuH/WH75bD//nx/+vvlbpKcfn3b/5j+w68Tp6Rlgjj8Pi0EavXvwueT+NPueSEehaJ28olaBPKNai8fIwmvAyxUYw8UUlkHJFDoATtSBCpIJa4dIEy1rAMpU5FeZyYBQD7bZAYyU87rQEleh2JAWgcqU8sdUCM1ALRAqfeDrQRwpGZW7480rQCllSn2gK1kEBpaKPShZysCPK3qraQN+sEAZyUDClA6BjNK8IQiJXQ2+xlQGH32WdQDCSTEdOTqgQJcrZWqeADlqJm9RA8o2iF7HRaGu05YSsr7CPbxNx0KRUf0leYttcMQHTon+hoQB18nsENTqsEDKDhanRPgDGQKIDialSbugQit1Hj+vExrxYWjz1JbyehI9nmoNBFkaYvEvVmr4lpm1XcAcgOA+NAwIIHgM7Mm8QAqTea4MOwgyNOW1WHQAe2gV3SoQGmL1py8HwLwtAH//t8CSKgM2OcBqCiW1Jcy831EfmjeDwZAP1gwBw8kFBqZeNgBdS2LJVcspx1wxrmJ6RLwa/ngaqWZFXXeds3TqJC1a45jZKXgp8SKO0SLvswYgDqvmZWbBxICbMYaAEFHKvMItgTQDo0iD0dCOa1zuiyVxhknw5EU53QdijGapt8PiB8ezG5QB5umXY+L0NM2zzTXpxOsGh9T3McUByP8v5vilHi4p6BL9TT2ueAoVFEtkwFguENt8wh2TusKG6ldJ30dCNBK0xW2P5LdURkAOfvCYXdeBbFk13Dtd8gYEDNiX8Dt3l7BkbgR98EnAucTHvoiJzgcx+RbdTQ/oASam+Di+aSADiH+PpApAvHgnWajCaisQ10N8O5gQwU7cRTVwbsrwEkszs34Ii7IuXN9vohHoKrM0/hFHD2XpPHsqC5mPx4FeM0bbhd4kh8Gl7MjVsS1OXGU6er7DB423/nA+Ka4/bi8ZT7snp5OT6HL7/7t05ZO76Zy+wc=);lineShape=1;" parent="1" vertex="1">
                    <mxGeometry x="234.6943330643602" y="28.914729029901423" width="3.0264307748599895" height="14.343838704587522" as="geometry"/>
                </mxCell>
                <mxCell id="94" value="" style="shape=stencil(lVfLctswDPwaXTEkwOc5Tf8jM3FqT10747ivvy9UDVURKjeTmywDIoDFAstJHt6OT6+Hid3b/Xb9evh5er4fJ/k0MZ8ux8PtdNenSR4neXi53g5fbtfvl+fl9+vTbDk/fbv+mL/wa/ELlMLsxO738qJQSH9ffF7Mz6fLxtxHax8olrE9R6qus/dUwfclUum/7yjw2D6ovTf2zo3tY6To7PdlbJ8iuWzij8A+C+XeXojj2L4USqY+GpAfO9RMoS8QM8UAEHNrRdaQMsUMjqjkYo9xpAyS1ph87xC1DACFGiiUziF5kgocHCXpHQpVkEOJFPqQciKPgKsk3BOBKYAcMpP0ZS2ZEggpBap9SNVTBsiF2oq4OuQW5Ig83JdVoSyIbZpDsg4VVIkrxZ2DB0mztka1OSRACB0YpjVqhP09T7AeuCrkQNLqYMuqlEM5aPf3M0ZZ61CVlF890iWRA6QW1/5eHdasRsAVc4JQBQTS1sjJnsCgvaVYAimlGCQddhTVpNGoD2xHa6nEaNbzDmnfpu3IgY1DIEGMc1SNQ6KECFQsDrW0BfN/h9SKuCEQ4oMISe+wGeijZgo7jkbQfdqu1dskENTzUk+2TAJCUsqZLa0crQDqWVX0vaFQCw7JjD7laEFJpx2DEqScjj5vlFLEOHgqJqRAHk2BjzoEsRtFdxaDdlX1k/tpnBVpQIiU2nRfHRgmnUPjy7qoGeoZ3bsmh+igFJjXcu+gJPQgpOKtZFWNi5DOu0XtVRyAHDRFI1pVJiPtEFKDaXUQqB20+QyBfIDaQWWqAc5re4OyquzkPmlVxhkkrXOuH5XzkaCqifLeHq2Hpu828RS0Eq2UUXtEHt/25QZkB24yrgmj1T43Mg3sLcQJiredSn8HYbcDWJoKH9ibi4n3cPF4Kxi0Q6D4tNu8wsnywXvnu+b68O+K+3I6n5cb8vZ/eyXWV8t1Wh7/AA==);lineShape=1;" parent="1" vertex="1">
                    <mxGeometry x="236.5462742871805" y="29.74288248082405" width="3.120004192814982" height="3.516681550818541" as="geometry"/>
                </mxCell>
                <mxCell id="95" value="" style="shape=stencil(lVjZUhtBDPwav6rmPp5J8h9UYYIrBFNArr9PT7lmWWm9nfC2DNvWqNW69hBvXh9un4+H4F7fXs7fjr9Od28Ph/jpEMLp6eH4cnrD0yF+PsSb+/PL8evL+cfT3eXv59vx5nj6fv45fuH3BZeCtDRQwf25nMQu7nLy5QJ4PD2tADlKDhpQpZR9QAmSugYk6ZEAutSqAKFLJoDqpHgNiBIzsVAlah98kVYJwIvXFnwUR5zOQUrUAC/d7wNSkrCxkMI+ACSWrAFgiVgIRYqOdGjiGGBxcQkcTgituEDXPsQmkdDqoZymAClKcwRQJGkLqc9Q7llwGpAbFV9w0rRaC6RBnA7VBq5CfEQaCJzTTtdKLSBFvQ5c8/NkV3xa3i1RlgpurK/UyqThesYl8VrerUongNammFcAdqXuJWQLcCRwHbTWjQVCay+SjdNNAqG1t1mFFkCfhec6AIVMSwNeRQ7oWnw9iidaAiBqlkBDbwSwSG0BgAaSoj3P4r4A6izP1wFh4wNiz2h1Vt7vRF/XEuK6scAKWctTOSunO5FGi7Y/gIbEAGG6uApcIXEYAEOrl8Z8QDdwGuBoMYbT3iRQm4Lfo9XKGyc8cNFZAGuKQ8ybnPZMrXl2gxWA1SVos2takaKeZ5xpKPCqEoB3oN0EInCa+iaD0hTwXp2xYiqzZexVsmSSutLZAYEwjRo2A7MAQPgIoDZbjVfEXe9B2yRt0oiJ7DdJWmh1jd0KfNQqNgBB/0ZNjY5Y23kGec586Dapa6azA4qxed/R2TvY+4BlJgwnXf9+QdCIVDe5kJcxduf9oJWdkM/k/t626ORpP4y294wpmYgOs5u+P0bizMZJb8dJUJzZSJxtrxoTKbnRoEhrbiwOpN8OTWgLUC0JGba1rItFoMUlbbaxf+QxBuho3q+sUnj7fpRKfr9tuk6fpWavD5ocQ0yY5sZ4YdZPvk3CghnzoqdZWbtdGbAnFbZ+Liv5ak9iXSoX63QqlNUEH7QqUpu5sbevmnI9AER32GJMuQaAteYE3RgLlbIUN8Nw4rkG1s2OAZY8mTxH7pj1M1MfAPA6mwdvHBAMS7yDAFBNpD1doeG0aWogupGaB1qtNBz1ARew8l763J40PvYN6j8AeHj/5HV/eny8fDFb/99+IsPR5fNa/PwX);lineShape=1;" parent="1" vertex="1">
                    <mxGeometry x="240.36180299712805" y="29.225197618896914" width="3.320222354740244" height="5.088876261809194" as="geometry"/>
                </mxCell>
                <mxCell id="96" value="" style="shape=stencil(lVhbbhsxDDyNfwm9RX6n6T0CxGmMpnHgOH3cvlQN2Stqd4r8rdecFZ9DUrt49/788LbfBfd+Ph2/738dHs/Pu/hlF8Lh9Xl/Opz1aRfvd/Hu6XjafzsdP14fL7/fHppke/px/Nm+8PuCy1S4gYL7c3nhKaR/L75exF8OrwvxQqEM4plq3Bav5PIgLuQKEq9GmUjZbcsziYzy+n2/Le8dlTgAmv7AXB+IR3tjpAQM9pnyeELyxMAEz9T+W3rUUQA2BEfiRgD3M9cB6sPRS6VQAkZrkN0YhhopVABg8qMNFcdB00DSAGBVMmwDou9pdgWUHpl1gGo8Zh5Lf7MOKBRHt0qARqdgjZbUi2MdUCmNbpXcP7EKyLGX4gKQGQCEYrSAAk4oiWKeVALZWqTX48JoD1SqqdfXwq0VuFUzJxov+U4i6xygNlQbaSfbgPa90QbNpQyyVTVO1QIcsKH5ZGQNzsQIkG1NK0BAiUq1ceACk0+Y2E8FBCItQsUYXWGJeucmvzJFgNAj6hQ5D5hMAfYEwX7VhjIGQhwlkEyiXnQWwCg3ks0NBQiyIayohApC/MQCrmf8OsD15Fx4qYLc4KnkGNN3o1LDxtoBQMkpoBg2VjJE2edsz9J0rSgOfuooBaoksVPpsuTQCdmSaytqQH2afDPPIL7XGk1TjRZcoylZt0IW0L5r4sCQXBvAWwCsOM0lA9DYIyab5h+NfUBu/SxANTYjrsaegUo6ixj6bvyMmlyx6a2xR9NJmeKgfkPZWoKNQ4sMOCFnSmY0vvHz+njCNl1beoHc0ME2GOrjPkOtj1hpor4Cx/uoGpt5JlIFFaQLhK0g6Z11a9RNpqgxMYXrfLSYXFEgwjSItgkHhLotYOMJOn0XcIJuEKZT63yPepbPlit1g2Cgkm5hYXSr7igZsIDuWaYrtmkZTX1UR5t1fkdNUbl4tKDtLKCkr9vFYlFEqRpsC1UXwD2RvOnRFIBDteOPOYFbzzRYebiDuu6Km7iHXzfN3MHB0Nm+6fBY2Bf+mzjyjLdM6mDLDHZpU9uhuFjdESVe624hjha8btlCd9A1ErH1e0TLnb15ud5lbIhn60g0ln7yGui/4vpwu3F6Ory8XC6slv/bGyp9dbndivd/AQ==);lineShape=1;" parent="1" vertex="1">
                    <mxGeometry x="252.23035985237527" y="22.072812237956214" width="5.493987220468292" height="11.699716678099565" as="geometry"/>
                </mxCell>
                <mxCell id="97" value="" style="shape=stencil(7VlJchw3EHzNXCsAFNazLP9DEaLMCdOkgqJt6fdOeIRmo9CdtG4+6DYLslFL1toXfffl/sPnu0twX16en36/+/v68eX+or9cQrg+3t89X1/w6aLvL/ru09Pz3W/PT38+frx9//yhn+yf/nj6qz/h6w1XVLzvqOC+3X7xRWr895dfb4CH6+MOkKvkMgNUIgOoJJ0BTjSfA1KSNotUJZbz87FKsedrJefDeNxOoEgAGq1APkogEimel61Rgz8HhCxhtlFw485jQBDnZkASJQBfx98DACG/33kMSNL/2wMSdYMPUmcdInQgZvVefJsBWTQRgBM3A5KXRKjXJM4qpCyFSITzs42yH448OV9nIuUkpVGN0ywQwu+7lY8BcdBmAxRpRKJX2myAJp4BECtpBmRpRCQEgzc6RGpUbdJmqhZPb4hphO9m1iqe3AAWmBuQczLhRSqW2wk5hIgEHtTZrAk3OAJII8Vt3K6USlDRzUrHLW8eA9oIri0+4UoiEqye5+hRT7nU3RQtwBE/lCBqUgbPMQC0mXw9BNkNOlTcAFCa6RCt43oxIZ4uKD5qAYx8CEi/iORJFitVQrQAJWxFBOtyQyFmrc4m1rA94gxQDTWQakk1qX5IvAOwrqEumQ9cYhEHgMnFGiQzkYKkmUvR0xJa0fmYesW5BECZ/YA84pjSUaLJS2k84hiQLDXA38AA2WY+2C0zs7bx9wYoNKZbsJ1J81SHhtw6+6FFyqVWrZUAYI1GW+KhpUH4M4CpcS2PTuKk0XC2vWpvmKmNiNwASOgkCwDgigU0ZtelQOARid2QbRkFgNVdWDG1BcCUjqJqASyomy7cQHfCXB1sIw0zKKermyMIjmPTSQcYHbJEZtYwnrdjX2L8VttswG6FARDzzQJYRekCGJGUTkCdGmoBjVSUTr5oRQo85KxZI7+h2SEOWrG28ihG0d0zV7eR3nfcYHW0J5olqFlf2VOZMVOjoy4EsKmsDdecec7NZNrZ4YxNZZGpMjb9KKBXrYVNTAmU6maKEJ/Y0Z+YMei12p/1WGbaLZFyow89ZvTLI1ed9YnG1WgGMgOo7aYjz99ojo0f+uKCxBwAZjJTPsr9bPD/Nw2+Sfg/G/xDHUxJUb4ugh+i2S85mmaQBLyZwTNtv9flaV9IkX4GQ7u5AVmDFYgch4q71QabOfoiY1meZLZtDSMgd6mSUaOvZ+YyWnhVVHBz9gOyNwsgVVtQMEmxvVooY8e1AXgr4PPY3+7GoMxyq4RqJWLlQYcJdzZiScYtNnWS6HkTnr1c0fOmV8oIcEJUNxy025yyyrDkl+SG0489Zje5ER5mG3WpJrvUkfeP48b6C8nljU3xfB5PSCRq+juPZWFPGVdsrfWJ3rBSyDuqcq9KhkM0eSHK1GQ7CUQgXZrbQCkdi92vOPrSJEXbFfLGNi+zIad0XiYMvltBNQimS+X7JGf7NZCEKbzWWB/5PmnZ4AJQSZQBUIyJ+FDVq/gc98iUrHoAYNYYIDpr8GAlU9D8G+1Xs5HmeXPUe3+jdBsd3FmDZ6YLAFgkgBkuLQBCjRJtzwkdGusI9QDwRt/8Y69x/wMAH17fGn+6PjzcXjrv/7dvmfHT7Q21vv8H);lineShape=1;" parent="1" vertex="1">
                    <mxGeometry x="257.3795470578765" y="27.771781381670507" width="4.909952592405158" height="6.412494356958123" as="geometry"/>
                </mxCell>
                <mxCell id="98" value="" style="shape=stencil(7VrLchU3FPwab1V662hNyH9QhQmuEEwZk8ffpxWXhlHL07eSVRbszEU90nn3OdJdevP147sv93fRf31+evz1/o+H988f79JPdzE+fP54//TwjL/u0tu79ObD49P9L0+P3z6/f/n3l3dj5fjrt8ffxxf+fMGZd6kOVPR/vfwSgrP8zy8/vwA+PXxeATktgO6syfUhL+uba+l6fTPX+7K+Ol/E+uziKkB22V+vr+bC+v3kchfrvfPr96PrQj8luhj4++F6fU4urecpLtfr9cmcBdJnEN9P2YVI9grCXt/NeXKIIjaAfdJq4JBcFxJAIZVcrkqTxeAq7WCuCptF+OgqA36pQuiwCQ0rJ7EDAG09EqTqwk3HAVYzD70pQHLerwBzMQoAHGM1NExZhVpTccEYYCI0M3Sy7ZAEoHhXSK3NdQVoW7AVKUPpnI0Q/kHsUAOHAyxdRDzX5CIZDlIJOwDQNkBUGSm7sgLgXUpLFTpJDGgiRGt1VhhQRIiOJGkMyCYA+N62g0qrzW9ppk9neR0Qnd8AspAggDYZVF4CwCimYTjhGig9yTNAqRWAvO3QhWuM4raqFbkwKqGzM3K+4ryWoVMSMOl8rcxwOepbdl7EQ6ucBLKfUl0xALJ0brNmX1EMogAlS2+1LbciLZgwnBXX1yMhQpThDAWKqnRxUbh3D86vhoNUJoTuiZ0Ph2xCrR2WXjOfIYDUkQrHQ4/zE1cAynz4JYm8hCOVVUv9KABXWipEZmwWgNftUKeZDgBKlnINP73/BFB2aBu/Ct5P93o9V7ZZx89bqPR9pKETQEld0kwSJzWZ8I1cmaTDEF2oKXX2vo4ao8gGXIdMXeYnXqczbdL+A5Bc0SyxrVkA3iI5XJ0xfwoIlclC5CJnmrgak0QkHlWny6wepxygAi5N5n8kGZPJPkzmf05K4vyeEzGKsJLXb2kVGUYpdGaHY32bvON1N+VqCOqkUp5x8NcbrL4w1xuhJwSIe/MGkq7iJjpby21BeVQiJ64LpcyEcxn7q5Lwi8wukesCWtiqWExgvlrCJKRXBZ3oJxoDFQeoZJUYgO5MRjFcIy2bKwqQOZQBUHVhFEPbAGqHxnOAWzvYjK2zDCKaRyXbdmiKMmxdLtTqNYBmMVkXHgDqBpCkxJh+wjVUCht1KTNAsUnUJfIlAJKmPSltAGU48N8NEJVa94jzLoi8CgBxjFvxgFroGaCGOAOw7aBS8TgS+ZJJCt03zg2Aau37RqwAyJp+0izgVohW1/aY1t7qtx1Uo4F48Fteakroo6c9AboqWX4rurBcUmrqTOsBqErqzhUFADXrgpooMQ3/VgHxbwGDqFHaCLLztsiGQJFTph6tOhW5JAOiFqafaEKDGhTXyRROlV2NG0DSaao5uIPw71S5lylNDyl3O3RZgsDgiKSjkVb8JxTuG6pWa/DbdUCROxhzYnBKVbIqz5arHitV5ujgxHJINGPrWJ9nJ/R6LHDP0JoeXceZFE9Ng7pwgAmIjY1xiPCKMTZb/c70UDZubb2Z7IghdKF+FfGvLkG26EQ9UjugX6U7h9FNqmArnDBQj1SDi4xFjjQoowLUTYY6SekVUc8kQ5O0oRoTdQBUuWrGtAEAxSjhCGE7UlJ5uHPDBC0p+gYA8b1BJNTEp3M9HJ8Q9dAa870x7dPdCV1SWJBTKxSfvGb6VmROap3ZGJKS2mGfscJZ5FA2bT1cnhPLq6aPhM5NklycOBAv8bLijjy9DZZVp1vrFPEYXXfpGmNaQOP3ItMMahNNcWOcNfgKELe7nx+XRbtr/Lgs+j9cFgXuf2KS4666tQ5RD6PgS52OVGU7UyOn+zFEFTuA0dIQN3lJKMt2iZ2CrECg3USKU5TJGFyDjxSlt6bETzoAUJwPWcg2GVQSCNtMI3nZnIxHQJT5mmzvwdPrdnMvOwE/L59OzqdmGmGbFkMNKnuDGe8Rl5TQiY8UTF7ahYPhHQBNHYJxz4c9VbOOCKaZRtAvWeJxzXiQEzlPG/0GPz9S30/bBTNqpBAgbx1i0DdRxvNuL7+Pnpner+n5Yd3C/8ZlnblqtF75UNueZwU537fKSTvJ6aRtI9miJ1Ce7aWf32F9pRZAPu8b68mj9ftBAKjXQ5yqVAQAl+ao73yPG94ToCobmMuFAerOd7QMBLjRlGz3qwCo1s0yX13dAiSevN86UtyI5A2hw/Zs74ZaPRf/W4bzPDe44Rr/5fHqLQD++P5W9sPDp08vT23P/89va/HTy7vc9PZv);lineShape=1;" parent="1" vertex="1">
                    <mxGeometry x="262.8613738880859" y="27.601494148737743" width="4.611325699715033" height="18.656774390705106" as="geometry"/>
                </mxCell>
                <mxCell id="99" value="" style="shape=stencil(7VrLbhw3EPyavRIkm8+z4/yHAcvRIopkyHIS/72LXnA0rNktJUAuAXyTdllDdldXPzh7sndf7j98vjtF/+Xl+en3u7/OH1/uT/bLKcbz4/3d8/kFf53s/cnefXp6vvvt+enr48fL/58/jJXjrz+e/hxP+PuCS8lZGqjov10+Cd3l/OOTXy+Ah/PjHhBdrysguaAA3tW8ArwrAmDVFVsA3fko1kdngdbHcnv9eNzhQC0JQHaxrwBzuQlAcGm1IFSXw20Avk5+AcToqgLYJGkDNNeqAHhnZQFYdlUAqmurU5O5KJyUXV9NzsEFwUKau2/rm6vCp4c4Ldk1FXYutWV9jS7I84f1/LXOJ1xdX5xfY6JF58X6Nvnc1jdXuiAMx11DoocZ59cBxcXMgCwYRpRWMqG7oMI6zRDbANV5JZzq6kpaS9Nt16Xsp0w2gJ9uuA4wpqFmDcjOVhtK10eqM2w2gJamNZfiGtlFKsE6SzN1V9QO3XUCJBl7SMG2igGPiGIHAPLqJVhlwq0A9JU40/JJ4XCk4praIbDRAERBHApVWQUE7rs6knGaHwB1JLtyJK9yUjocqbikeMiztO4A0oY8C9OOh6psQBYlQNP1v8xivIslyTQAq9EIliTqeaqc+bJ33iSAohWKk8Q1FygJoBypI/WZ5/bVRABwYlu9VJv0Ukb1oNyKRkuEd84cfG0rANcLVuCWoWXZV6HAUh/WTJbQ6rkRQ/YugjjkanYrej/VlHQO75pcFl7CiQvVhyB5aIdOrGjiUGQ5lqBBEXx9+3oDBElcL5yXCtwqCkqHgA6ApHZos3zsdxBMA0BZY9ggYql3LuxFCwiATl4y6aXgPecZiDqJ2MAW1OKCOVXZAbBVQaXInhVuKqtGS50V4BZzbZUcos8LQSA2emSA0mgvPPzgSE0RkWfh3wEkc4mbPnhJHinN4NwR11V8A0A7mCZuy+676MsiMcHoSKIOGgC3Uix57dZyUJDXeaZytw5A1hql9A2AqigjvI2Nrm8IyLNbmyDuukZlfHfuK6FRNQWNRENGlLdyH+9QZz/+HwGM80wNOr49axRVTgXTqPy0Q5XNdAs8reMTNcnheRQbmOTUQID+iOpo06UdTkyr5OAGdcmCWCs070Z5BZLbYaK26YbrAJvXQjuAqR38vHja2aAuWdC5UiYDlXLOyge3oulSU5DxdV01Ddgk/A+r4hjM1uDLOvgAiKvR8FvT4yvxMNygbPg57/4A/Jx3/xfzLpqNNbemrf245da0EgcBvcE0FUVIVALi7OZ3SUDdqQ/FUZpBhyWMBk3U32O2k28FEgMwvqqiaIHv4fom2lu3ldStj75RxFI0PhKaNPnmwR8qUJftz7jTpRcJry3UrWvjXHiLqq4FWEC9yFuBxApF1ZVOOlS4JnN34KSEEb6KIg1trfbWNt8U3FhP6kSgqtJw6MVKlml4G5x3UlMjX+B8lLpMkcbvTV7fr93gl4RpUffDs0ub68F4Vj29zQuYLUTrpOQ6oLLFAZyrCIp8P76p4paOieIoLzOQKIgyLy9w7DBCa0miXtRG61XiGtl/fb5+pZEa3zWGoEsaOCYG6hxfbwFaZEBXJhwmw9DkZDiORDt03TmjoVttiHpcgJfIhpFq1A6NaRgvzNQOlbudqF8JolOgKQyAoI50eMU3dlA345ndChvUFAYA3QQCEFRoJBZPfGMg+dc/OHgbgD9ef9/w6fzwcPl5xP57/j0EPrr8lsLefwc=);lineShape=1;" parent="1" vertex="1">
                    <mxGeometry x="268.0706060157987" y="28.59221717029004" width="8.058496704432066" height="5.847804736409691" as="geometry"/>
                </mxCell>
                <mxCell id="100" value="" style="shape=stencil(lVhdU9wwDPw196qxJduynyn9H8xwlJtSYIB+/fsqvXEuVpK94S0c2ciyVqu1D3Lz/nj3ejxweP94e/l+/H26/3g8yJcD8+n58fh2+rCng9we5Obh5e347e3l5/P9+e/Xu+nN6enHy6/pC3/OOFYqeUJx+Hv+JWaq8v+Xr2fA0+l5CRDiNAA4krZ9QGwUZQBIIGUAUAp1BBRKAQAy8QhITAUBhFocAZVqhYAw5pAzRQUAJhm3tUTKBQLSGKEoMaiDLcltqzIxipAotBFQqKEc1O9StU+ACJwojhFqhbsk0r/XAS2QpH1AsqSDBxQAyBYh+yUpqHQJVHkE5N4h24BCMtahWqVBP2iktKoDKpxmymMdNFAEOWgjHnMoTA0AKm/QG5GvCqUxQlJSUAdjTnQtGmDSFkGcCDCOEKiNXOJMAsinSnHMIVZqoNJT4ZxUps6ubWpkn3SMXRa22VqojHWIgRLIIUcKIzUmHQERTOfaSD7TkQLEOJn0Vp+0IICQrnYpgX5I0cv9Ram2VaOuIgjsB7GBEnwdKtglmzeBfR0YkE/ySiopg02yAGXMuVBFQlmJx5QzLrPRZmyG1MfLXtGCjt1GDQzQlL1K2vuIFLUP8Mt6Mvh+DpTV5YumZ2a//rnke+/r+H6lgvqMu6QvCCGAo9aY2XVyhBKcGqkDSHc12wAlGUtsbRMRJ1JPcQFARbDGbMkD0JKkdbFa5JBR22hfwEK+0Py3vnF9YHWoIAdrzDoCWncQewHcNFdoPWVlny0g0q5Pvp/VK1GAxC61q/m8Qd2Tbc+06vcnQXtk7omDLwDidUvdn82A1ufuNqB6sbYSSNwHxBA8YqIJULvWuljNSaeuZ3trcnPZBKECPWorGhVsCpsJ0phDaVBRrRDO2OoVB8be/psnU0AlTd52mtdGEcqsPzNgHou77sW5+QYHuY2p5OxOwP1guu7MtoUI6HgbO9lmgEIbaZro3IhRXgHAzLlbUexKvr1L3ghX7V/YzsCvxyoPz+e9VxZEQtwOXrPt3IkuDFbdOR1sAY2CPxNa66BTZ/Cdk2fi7uTrrEXC+fJKLCJUl+QHuSTosMvq3FL7Cnf444aseS9Blx3sCRRnOdsGlD4CFlO5oJsF7VN+6a8R5SzD1cEI3l007zevzP2J1as5hayIldnfgwV4bOHkeWoA5CEvx9FF0uj4aMzw7ihCJk2DclU4ZKcM0NYnKZTDevxfuRKqfuoYAF06ff4+8jrAHi7Xnw+np6fz7eny//661H46X7XK7T8=);lineShape=1;" parent="1" vertex="1">
                    <mxGeometry x="275.5180510777745" y="26.763395472170032" width="3.601876361851761" height="5.733226365223394" as="geometry"/>
                </mxCell>
                <mxCell id="101" value="" style="shape=stencil(lVbLbuMwDPwaXweiKInSue3+R4GmG6NpUqTZ198vvYa9oeIQ6M1RhiKHM5Q08MPn/vljN8TweTmf3na/xpfLfuDHIcbxuN+dx4t+Dfw08MPr6bz7fj79OL7Mvz+eJ+T09X76Oe3we45jSJmCYvgzL6QCrv9Wvs34w3i8wgfEZPBckIqHz9HgY0Fw8Am5GjwVxHYfT4TWTEAFyX18VLxNEJHTfTwzkt0/IASn/gzmDl/pPj4rvU4AVIdvySDbUO2Al0BoqXclrBU5jIURbYdYt/ACCEKWAoGzw0EtIyYgBxTHdLkiWBGmFSdDkj5DiRBHNs49h5JADmmVKaQ+Q3R0IF4orhxkkXKbNMQaKTUkh8KNztxQ3cnsfdGQnf0jqq2HtB6HcEO0+5OKzE79FakjvKi+XY+WazUOSI6J1JQpdXjvpMhKuGsoyJvM2HtOO+DwLdq+bpIFxRubrwZIg1jGKmJxTF3r4rArTxTHQ209rNYeVfe4brV3UdJJdqaAwo1PdfbZ8ammYNumUpdLaDuA0WwG0TvEyVDLzZ2znmjbQkh/6WhO8qSWXuomECcg557DVeO2x0HPN3viNbWLQ4L1BL2pKZiB04//74zX8XCYnynX//fvEl2a3zT89Bc=);lineShape=1;" parent="1" vertex="1">
                    <mxGeometry x="283.1516945100783" y="30.909474923290873" width="0.5903083934879427" height="0.6743243709519525" as="geometry"/>
                </mxCell>
                <mxCell id="102" value="" style="shape=stencil(7VrJbhw3FPyauRLcl7Pj/IcBy9EgimTISmL/fYqZsD0sdlfDtwDJbdR6Rb59676Ed18eP3x+uHj75e315deHP68f3x4v4aeL99fnx4fX6xt+XcL7S3j36eX14ZfXl9+fP97+/vyhU/Zfv7380U/4esO1YKrtKG+/3Z54a0r++8nPN8DT9XkGeDcBXDHOCYAzucyAIAG1muInQDM5CHpwlCf6bIqgL9XUSvTWC3pvWpzok2ntmD4nVikUFI/pUzHRkbxVWCBWE9Ks0GiCEDhUFgA2DvUYAAbKzJGvUkXeDQsNQMhSBnDc5htiNqEILzJtdqIEo1lhBBPIJ5Jxgj6aSDbb/Hxfp+xD1Z6cn2Z5axphse8Ups0xUBEEwoncdv3mRMFkwZBLrKEWR9wd2bhkvqGKOIDPUFw2a7yQOcCLSEk6kgNkIICTWkIk5FmtJRkrzBydCbNaMxxbyBADOxLC+59w3QeAgTZHQjFWhX82cQ7/HmtCaJyXKMWDJWFpJBhHKb4ZJ/IFAH6OBqejp98wy9BMUCIg/cz0xTSdIl0g+qjP53Rxdn4htzBJnQ/98fleZQsE++wUaeS//WxhOdSSTL+gr4np1fnOxED8q7ABPVWcPBjcp/ejHn2nz8JDQV+4xFoRZKBvTK/s1eln/VQZkymwfU8CoANmBTl0JVpi4qiXOJF9O2BmCdnSKpnB8Zwbo87vAFANx51ZWQEFhqxsh132AWkwsAFgB5GI0pbY7sq4DJw2ztsA1SRxQ4bnkWd4WWdz4dyIG7JwjeIWgJeuARE5eKqs5F0nswxgsgnDldVwRTaQqKqlMMAKO5Q8RLwHiIgrZQegSkjX+sKScu/SRrNyp1bVXACQCIAnahDZ/r1Z2o7afgSgsglnCcqXqolzAMGX5KxThjPfAZK6IbPQAMjpKy1Ce63WuHODaiPLMtIW3RX2Vr+xHaqSIXCzDUs3DeARtckCCkChgouWRnkrBpglRJPypbSUdD2mwtJxjWkl9NJ39lx44q2OAVmlmbbYocopskfcYjiv4qGNanDnGlJLjUcSOJ8quz8OgJmoxsGUKlXGRYam1ep5JEGN82rj0XgkqVEukTBEhbn96ZOe6pfaDkA5X8q8RKpheNdRc0IFBVpSVbT3S6TWOLrSw6aY3LuO1HbUpdMaJqM3ULNkY6F7Fyi0FJdVWIxSrXEJ0XCyV6nsrSd9K6bVNuelk864A+aYPh8+/x8m/2vDpDr/3zZM+mXRJv0N9KRPBIBqhQFY9ztRZ640cwSR5aRneZMXUPq1T5PN+tZK7dnK4nRaqzFxXulDz8kmjwpzlgUhWn4zgiroBEth2eT1Banad3q+oe9s1Qp2aedbkYXZh7FV3wBNdlRIzrTYdtbKzbyLvPrAFSrBOztGlg1Q5cIT6bOx0KpGBc6P0GoUZnA8kMBsapePoY5akSQLgmUboBNRCdXuDEhJyOt5CZ6D5Cdzh4peKamXO0uCj9t0cuRE9EYrRBn9Pi8vqJJ+tZB5udXfWqo2ZEkXThs5JR61k1xh5shzsJe9XVkWT1Ym+Wo5zHRYop/mKiLzaXPjlcBmM5nhEVP0JiXJjh8xzhtSJ9s6ZJFEr0Wz7PjvEtVmAiu3VPuIoqRuPFVArWpzBgDN8QCoMgU9NQJ4OQ62pT0FQKVTZM9MgCC3sC3zoOODLIQAuB+7YZt472UQ0QPvq3HRklJr5IGz20GxFMZHAXcA1VTtf3mhZDj/VAM/vn/o8en69HT7TuT+//xhCB7dPioJ7/8C);lineShape=1;" parent="1" vertex="1">
                    <mxGeometry x="179.7021723781608" y="49.725470407549096" width="7.052942393749705" height="8.023058352453086" as="geometry"/>
                </mxCell>
                <mxCell id="103" value="" style="shape=stencil(7VnLUhsxEPwaX6f0fpxJ8h9UYYIrBFOGvP4+rbi0rEZLu3zLgZtZ1CvNq3tGu/M3Lw+3z/udMy+vp+O3/a/D3evDzn/aOXd4etifDq/4tfOfd/7m/njafz0dfzzdnf9+vm0r26/vx5/tDb/PuCzeN5Azf84PnBFT/z35cl7/eHharbdG3AjwSYIlACfGDoBoJEUKqGYEVImJALyUOgBSlVAIIEgebchVLNshSnADoORLgJoHQPVimNFJ4mh0TVKZDYvXF0CWxAKXxI421CKe25C8BlQGCP3ECwBxYEYHcUYDMrPBiw8aQL3k+gE6wBrktyEIK3EyojAjjOQJED0F2Mlqk98H4HVZxyESE6o45aQsJbD1dsokSwwo2uBSe3m8s76q4rGSSR7hbWmsTsvzDpQ0bpAs5zArbrQgIO9IBJBGZQT4wikJpaBoFcXG0g7FO9pgl7BvApzVUcMhWdq5KGV0a+octbneW13+vu+4vb7osBlaNwHnsWo9K8zotfAYam8yupAhRCRkCUUylmWQSJIoh64xS5r2mG9XAVRvfH8jJ8JdJeqks6gkUscoQ+VRhJhlaXWSRqbwoe+5DYBwjnQafCeDbUDSpRl5FoF6dC07sSQMjdtG8c+8vWjkqQCZe2lh54W/AtVyALwiyCKGpEZTmKwBLA4rEVtxcGF+rTpy1fQm6D2AVSpiab3Br07t4KiM1KWFWgFYQSCZlNGVUx7SVfkVAMd28Lr1hNGZhdr35FwBDIsDlMTpOFginjMAkbbcBnWkwqVnNhrNbWRGT24FgOb3FLiSOG0gNbIGlKuSrzXobAc4cQLQI00FBLfGq2uU9m0TDSA3Aq9RRTTV8vwuU3PLWysEIioWQI0yG5L4qgE0maKWdQA8I/x5aLhgg5+OdMFLVwNc14OVQjh2JJx4BECDqPCiGRulHSpXmZeMziXoaCbE1HJzNBpKzY7U6mWk7xDokdDPKGLyqfcf2wCnAY6P6XmSdvR8TORaDzcmX+vDSXqnKmk02nIvpaBFDtMKa7tj0fVQaNyi01SZ+wu22+6kMylJYGNA1NNbpo0GxgZ1/jaekShj/6JGdDTeZAfMIX48ESYBdvPxNois8sgQzcXopa6sPJ4wrkfWjEGIF27RkiYAjKx0Pky9qV3CwMcZALRe8akbgDKP9ewe4+PKqjcGH1dW//mVVdW33NB4Rkq1p9mqO2RpUTTDZHiAMEzWtQZhqUx3ep0s6w0dM2LvuRY+sn2u3mZtCeoiIPeGenO96f3+ioKZ9k+tMJ6wjsr05n19G0bXq3y7cFVi9XCL9azptJNGZariTlLR6zOJr+83EKv17PIp6Hg1BSLxivrC0/J+M+n4wj+soU36IskWOk3lLqer+LKx4tqvVJfX48fbJ7H7w+Pj+Yva+v/6ExoenT+/+c9/AQ==);lineShape=1;" parent="1" vertex="1">
                    <mxGeometry x="187.6952745297511" y="49.96455691685071" width="4.868625755419343" height="6.086904923389132" as="geometry"/>
                </mxCell>
                <mxCell id="104" value="" style="shape=stencil(7VnLchw3DPyavbJIguDjbDv/oSrL0VYUySXLSfz3BrPF0bI505JuPvi2WrGXAAE0GuRJPny7u/l6e4r+2/PT41+3/54/P9+d5OMpxvPD3e3T+dk+neTTST58eXy6/fPp8fvD58vfX2/6yv7p78d/+i/8d8Fpdql0VPQ/Lt9IcqL/f/PHBXB/frgCpOpimAHqkicAcSIzILtCdpDqpM6A6kojAHFRJ0AKLpdjQCxO5x2SjmPYBwTXZh/UuyjHgJBd8zNAXSGnFCKalM0HAmjOp3l9caUer7c4z2dUxDXicnIlzusbDUJyfna4JlcTW6+zPdU8Ir+fXczT+hZpnlanc8Sa2RNpANp8oC3TJOohTrgDK4ToMWQtcICgzzW7GghAR0g3gHeJBMFOKbY5ynHsuV9qHk3KcSTKPiC4MgPU4kZ8kOjqbJIVc2EAGYW10UVwykyyVJ1TL8bBaUcAoLxgP0GqvwPgWF+zSGaLLPIkbLZeZ5cDDXNf32C9J1xh6+v8+54ztrqQYH1iWaRIdpxNrWH4Buup/Va5iutJoUlxMeJ6lhBGtQXWB/b7Vma4PjL7q8voL82fhuTrKdfZ+oD5EFi82kjHl/XMHqtYyGel3G4Swc9kHfxoD/sAa9dzwEJxjauWNHtgJclSyFgqAqtsSbIPyFgDiRd99gjQMoTPPiDhKWXbk3QoUwSQRtbzleRpCaMMN0AdbLwPSC7PcajBVZJJ1o80ISCTUquCQqp62qFqRW4sxSWyQ1MsZuuBleSS6YIUEMCytZURpiuAkGM1QMvvAtRFrZlJ5JRawwrtTnNAWXKJcVjwHknJEIVv0cCmRENtgLwAmBgxQID8VkrcbaENAzDVaZHLGQGsFVoy1bIAmElW87r4wHJjabaFK3MDgNwpXNgawMMOW9Ue7hAR8EqNZsilSKeXfkoVAZlIDAO0pagTy6WCsrPXKDPJcmkxKbHAtdGUrwBMhvV6KHisgTndFp6RoRTfXNSJtvbOG0v2KTsmY6aIgEaIpgPkXYC4dLk2WsB+S8kjdbYeJLwH2cQCgER3KIt4qDoS+KhTi0eTlFSQaQFovOY063JZRj94Ixt3PTMHzuQJ4xldalQrld2mycJcoybrWH7bv2FuMBHHhHFaJj2TiZndYgSc6UPlUr3iPUwIg9CPZhkInNK4/Z4Nf8+Gv/Js2O2fz1MG4R/eBkNjHjd7bzzPflnDHKgoqPp1ECHrziFwWxMoSRgAmNFoo/IcDXB7HAcLHBVlgdtg4U7HnQmDlrFHp63JMdkZl7jZZMYKMyo63YRfXgbUR6bJ2LVZyIN5NkDjcieg/L8SQPt9GcnIVB+TnQkHEtOh1AWchhtXeB6fUmqjub3Iu7pN+AfrCwwjpsZYzIZIuRKcQuxXrM286fSDW3+4bTZVwmRREBzNNVEVb+0dBmcTGeydpocY3pqEE9gSA6NYNolYx4ThX/i9kLEPSAoRfntW8IHN+CMTelFdXhUDfWAzLQg6SrhsMUBebv3ZNKULCXfWZqm3PBIagOrZgg9CsgnWfUDFVmuAxExaONUAbK7Q5X1HOF90k5bUoIEreH/R32PYxWrBMbi/x/BjxXpIVBG++0n7DQD78PKC/uV8f395gL/+P76421eX13r59BM=);lineShape=1;" parent="1" vertex="1">
                    <mxGeometry x="194.16709013091742" y="46.591029345579614" width="6.816230227376108" height="10.887612273301626" as="geometry"/>
                </mxCell>
                <mxCell id="105" value="" style="shape=stencil(lVjbUlsxDPyavGos+apnSv+DGULJlBIG6O3vq9PUh2M5WcpbOHhtyavLyrt49XJ/87TfSXh5fT5+3f883L7e7+Knncjh8X7/fHi1X7t4vYtXd8fn/Zfn4/fH29PfTzfLyuXXt+OPZYdfJ5wy1bCgJPw+feFGof798vkEeDg8bgC1UpQREKnmy4DSSOIIYFJwQlYKbQQESgCQlJIOACUB66NSGV1oFBtYH0iLW8/h8npe//1mTxWwPlJxHGQKCR7gHBCmXC4DJPX9VkChrMBlpjiaFIUYmGR3+o/TFVCpAoCRFkdAEtIIwqL5E5KdAGgrlTQPgCwkAFDzBChUAKBJj5sOKEwCrrUVnzzFTgC3ZAAdeagCmW6RGo+ABpPB8rmNPtgW6JaK+hNaheFdAjWXDgyDLwfPgyZScEIKVF0BqO+G95gPajUE8CDG9FgCOAQKqAgkatMREVUxCuO1qhUBUFeZePTZeEM+s08fi96A7oiSK5LGI7AnUxztqVYSULZRKX49st92m/aviAArWNk7EBmWYXWBzZ3184DsG5VdaQUlzAB5jImWYL0wgDgfMjVkUvLN1pITniD90ldA68SfBwTKYzY3hZ3BmmHz69GtmoPVrw+oO1MT7wCi2XpA8jeE7J86oVFQYJ4Fd6GJGIUdFceYUQLqhEz1mjvnF+pKcfYEElSu/f6WZwXwpX237XrkL3cxtzEooJiOvssaAAlIS4I6lTpBpTRPJpmmxZmfHGlW/t454WOASWZrgCJVpj5uXTYAnmOZqteqo88HUu40bTIHEZdj1zabVEAtzdRTmko2iqWyasw1+GpP1/NNJ/Vc3+gpBk7X6Bt/wcrZxp3sJJ41BeQD+wJpShfxsKjY0aSc4LhgwprH4DPxLcAkk0d17IQpdkl2Pvi4K8BV/a9l/1JOh5Hpd+aL4i/JvqDoZj8hsfbufnb9KuY2Uy0S5tJF9WYkBKlQKY3mG2NIKKRpIuyZcd6a2Lfr6wPsOQvBya1HYjaxlxWmAtCsNr8qUMaJ7yZs6R/OXyf349/uE71BLEJuDOgCBwotnc3tEwRw2OYNV7kMoOBGtXkPrC+itr9MDyNlJt0i0svqB5ClkUJlNydBgtV0OWJ6uEBqU9WnDRdYibT5KcQaY0CA6pnmiuVLmZxuMHdsFs3NAyKKjUgsEwBF30ff5P4DYD/engDvDg8PpxfE7f/9k6F9Oj03xus/);lineShape=1;" parent="1" vertex="1">
                    <mxGeometry x="207.53915002373634" y="49.269078859345655" width="3.593233243818514" height="5.30997294915294" as="geometry"/>
                </mxCell>
                <mxCell id="106" value="" style="shape=stencil(rVnbbtswDP2avBKiJEric7f9R4Gma7CuKdru9vejEcixaPsEA/aWuqQlkYeHh/Ih3b0/3b8eDzG8f7ydvx1/nR4+ng7p0yHG08vT8e30Yb8O6fMh3T2e345f384/Xh4uf7/eT5bTr+/nn9Mbfl/8MiWZnGL4c3kQSS4PvlzMn08vg3mNgzknSrxvL5TK+PpAEby/EOtoX0nCvn2lML4/CbRvFPJgnzMx2L9SHN8vkbTs23OgmgaHwj0E2w6RUh0dFEaIbcNhcKiFBK0g1Nrg0BKFChwq1TEJrVEBQWIlHbekdirdd5hgNKZBmQpyqD0miy2FtO+QLA9jWFskBlFKmfJ46JqpgDyk5vNQhBSENTMJj1iqMA95VWzZoAHykGsHwuwQOxy3qzNQGqFhp4qgfGRFF6lQRCtU0jHTqVIDmbZyCdGfAWGpJGrjlnLrm9x2KFTGEhVjqQgclMTVdKQM8lBjR86iprkBh0JhhEYVGNaqHq0tQAdDvyeBTAFsqdmWRnjbkwIKSG0DbgXpmdl2sLyO0KiVMtiSJspjTdcAz6BW0ysyRhWn4tuJMDF2EIfWQA1FSTwvJcYNSDy3WgdtAK06s9Dcoo35MnRoI/hmNO4uMJ5ZILjVGML1XMpoP8W30IRDWlec1Il22755hjFcoYBa83MkSQVwpK40Q+6iY8++BmdfUDyt24qLf0bxMfuRKwolvP/mBAZGqPbwXe0bjr+nIki/Zu/w00hAQ9BVFzR7jE+H5wYlrdm7pll7wPbswyqeyF56fV/zFdF5pZfHAg+Id0tP5wJviONKnwgWeAatxuLPvn5hvVSPt5v16NrAjXrX3iQWfILOqx0uC75C8dQuaBZ8CPLFIXhAlM5I/8dh2tGYYcbid3IYS2xqMjfO7DiXoXCcHFyjvNGKdaXSGKsD7TJx0eyRgDccOWlaGTfK5gtnkmG48sWptIKpLnlqt7kIcl3o1DA7ZChYWtlwQFgy4bjekqKJXHu1LEY1QVpWPJYmaQrOUGcwz3locAIuzTPY9Ao0U4hfwZ4gDraBwAl4adBB1K9g8K7gDFL8TJELpCVJKwfbJHLgPkHMDgIb4XXOWpYowFJe3QYJvuvIs3Kd89Dg5GXja3UlWjuPbDtYph34pMulbQf2asfmmAZYw7p9Hg89NTwQJWtPjmYWDWDv/sWhTxVK+OlKyLGAUAGH4OTZ2JgHiVTmjaJG4yMHr/IscwrOMF9JLYZBNFaYyhu7+o0hXrzKs4JCeU5eZecMeTKuVM88J20HyKs8iwCa+NmrHmvpFWQs+F5lOUetZ6VJIlQMoWvGqznSC8HfAzPU8MFLQoZNLXi5E/ANqu+Z+K6F/fVpgPNf7JJgYY5xk5w5g6PO1/NXc3SblvyVY4CzTe4d5Rp32DH8ZMywxP/528QNc/tx/QzyeHp+vnxFWf7ffzaxR5dPLunzXw==);lineShape=1;" parent="1" vertex="1">
                    <mxGeometry x="213.1271207520919" y="49.86013780808753" width="7.6080157923778176" height="6.131385491169234" as="geometry"/>
                </mxCell>
                <mxCell id="107" value="" style="shape=stencil(7VnJclw3DPyauaJIguBydpz/cJXlSBVFcslKYv99mpni0xCc6SQVH32bhf0eiK0b5Enffbn/8PnulMKX15fnX+/+fPj4en/Sn04pPTzd3708vOLTSd+f9N2n55e7X16ef3/6eP7++cNYOT799vzHeMLXMy53iW2gUvh2/sXE+t8//Hxe//jwdLleJWa3XtPt9WrSbFnfxDJZHyWVZX2M0sJtQCoSHaCIVQII0tMCSCqBvCGa9LgANEguBBDFVpO0SW23AVX66tNcpZAXmOTVp1YkkyBkSevzS6b2ZNHV/prmG2/Y4xxU+X6b6GpPUzHyfDhUXRJVURLjmKXVFdClEY+mJHEFdKSdEgDSeM2iHiSQPahKciZl6aTSdItyC9JY6VSJfQ0DapmEAVnZdc2LNmvjel4Eb1KJUohJ+fj7yNQ83XAdgERbTUIpsFoDoK+bxjsrb2DOJC3SIgW05AGBvSH7XBqhZG7Ns9oPQKbZms3nEgCZxQEVugEii0ORGj0gsJZxhOnfvqFJtG0PpOIAqNseGqk4UJv3EuLAIt2l7JFme+iTmi4ANPl2QKV0aFsBjZIiJpn6JoDIVNa70YVWk8xm+78OqDMRjiaA7k3can22raMvoURJpPE8R+m10yZQYJIjFJuUep1woTLWNoPu3UjgKry0brrr/OU6ALmkG4CYBDbwpIh+TmTJoMCNHyLx0qBA83FgJvUkZU2NAu1Ecqkf9XWRfMreYFJWt6LxMELpxXcNAALZNADVvcGotup1JvMFIJNI9+YVKwBMzQDg5Z7RRta7WPCbVg5oxceBStwQ5v+XbYMFos96OQCNu6l7UTxGD76JkDyAtT741RWEBbprhLpED2Alh2RyshIm0YIokrY9MEmGgqjqAYFoh1Fy2cdBSXMFQF1BVDrxAeADV6g66ZvYACAxk8r2BptcfytwV0qOealJ2IraWKTbFgejnIVsVfWbZt0YgLp5iW66ewoamosFDgDnpTYHwe8EqHP2Pwgi8W6cvZauSo8PQEHmWDFJYqzYPWeB2ZUBzBPEKFpS0y16/TNaG9MOx7hwnFAE3pjAy06IwtOMISCAbFcbRJMNibUWRONtw9p2joOhnOwaKtIxNUKdyaYhdV3bKCaBDQTddwErM71uzSjBiYdOjxEG8ztW5Hv4MVxOwHcfLrdZ8cdw+X+HS2zaHAUl7qU6z8QuCIL1+1Fxa+tDW2ByZpDmCgCjMLmO5HM1XQNlFFSc23Stc1S7dYbleitGNVai2jwFgZRY10CqOd7tfKLW4CfqN6F565A8uDfUWYPXAXG23ksGIl6Kxd8jwCTm1hh9TXde03U7oQ208elU5hdnAsZO7be8gEIj6zEqOCmTaLVtE1bJM9dv2OMO7VE6idijV/RkICGuflZHe2Hj1biHWQF4BKPbWDwgdgpIyZ/KRO7SYYC72KAHGuMMfu0uSkOASs7r+kBVFXqL+vVM56Fjb89n51xv4+nbenbVhfWluvUsAJBg/i5NEjvZi16dQ7gyTRg9QyWa0kMSupSbA/jN5ztSphOSHeYeNUN1CNarq7F5gnDL/+6CxegdEda7/DGuTzfG5y3uP1/2/uN6fHi7Wf708Ph4vpi+/N/fROOn8y22vv8L);lineShape=1;" parent="1" vertex="1">
                    <mxGeometry x="222.6511516507959" y="49.82425328419663" width="6.6408270925065205" height="6.6545400448341105" as="geometry"/>
                </mxCell>
                <mxCell id="108" value="" style="shape=stencil(7VrLbhw5DPyauRIS9T5ns/8RIM56sF47cLyvv98SBmq3qO4a+LhAbuMxORJfxSK7L+HTj8cv3x8u6n68vb78/vD39evb4yX8clG9Pj8+vF7f8OkSPl/Cp28vrw+/vb78+fz19vf3L12yf/rj5a/+C//c9JIk7Urq/r194auU2ze/3uSfrs87+SwhT/IapKVz+SKtzPJNkj+XbxLCJB+ClHAu771omhWauEgU8HttUohJPDshS/WTQvJSyAnqxM02pCqpEIVgjc5JAgkCohDrpFC8ZGJDd/ochlIk53OFoBLnK9UgjilEqXMi1SLVEQW4dT6h+fHNsUIdN94UEDiSStGJulmhiDai4MXHWaFKIDZAQRcFFofDExpxK2yoc+BaEyW5BAUTOCgkUqAol5qsQiEnQMFnq9BItiJwcS4g71AiLDeQnPFjGsim9qFLZVG/mM0SPI3I7h1LYAAKfrkSCx1KqM0ldCc5OjQaGzhYBj+weitSoD1JjhWOq4ojNdf7w2xDCVIZWIYBvhv2RQoDHV3n9EuJJrgvNtIR8ElyyUcLNMhHht9epc2R7njLTlCL36q0K0LBFCm6EutB6HJ5xj78BCsgGF3mK9WBbWdd0RCHxOWRSXNJ6+jDZ3mRZ+DzPPGaxFneieeA4Z2RZ/6JwUK9oxFLTlo194+klkERDC1RySSrc5Y8/34creWYh0WL2mmAx6F8RacyFGOg+LE8qsyAlzhy/6aic917Ry/UgCymBJRSGKCt6bU+DR8cp+h7j9mRYc+MqLZoepRJVnfGYqog0RNqs2WGuqwsDmrrAFQuETxFYhg87a2RKHR8njMVjCBVktpL54y4JMnVWMTPRsc40OCMkpTZrYD4QLyEVhvmSOPMyLpOtWMGpgZmA9JflzEjEi8Fd3ACpegARLUKjXnJj0TYe4mfUNQqUE7v7ZgBtyojn7ChWQUGe/CSQYFYqNG9L5juj5pmCqD8xSooYZIARtPZ+gksl/LInL0NrLelJb05IYGCvVKhMNOb9wwCiHQhke57gyWXGLnVpd8iWysjANmy4V4PzEubE/cVR9IbkW5rTXM2vCokYgOydd01VF4P0S1uJckHhdysAi0gb8ltTw1e0xbICm0oMDqrVagE+XRF7zoawFngLC7dKdGPKvRByeRSHBz/bGLVYhUYH8O/w9IU2eItoWcaGxydP/PC4HBJNh3mJQ5ok6yAShnlsik4mt41WCaAomVco1bLBDAXsFxqoN1zAYGnUwV/MFkxEADRTXM9YNZitBJGBzMJ+DGcnbm1GhrKZ5OyRBo9jCRrDhbHgLUkCinbnRJHYhSXmYcjzdToR4i2PKKlgOoM3sg7BjBxAUkaMVU7B4BY8dm2mS0JJcSYKkzzxCjD2rMvdgXdx38SYShEs6bnlBsK6wqDMWjYbHwa+HIVFwjLGoY1nveFwm7RcwflDRxhVImcEBu3lkBrPyQ7K2FMToxB1/EsYrdwoytoZ73UtocDP3fWP3fW//+ddbQMt5XRss+W3FbhDun2dvPWd03MhuV5Xa10atUl1OjxjBKj3xTz+K3SR1fq7fazKG1xvaXMXsqJVkTfhc0npMYXxN5GGoyU8h6pZtDYnjUfsxKLSyjaQEyOi3ykG0dddnWNLjOW9UpnDSTIR8tDlthL1kGesSpnF6yQD6SW3YDQnbxjnMHa6/nY5gfH2cmz8UKX+29ldCJfl9/PDB0Hsu3lWdcZlGt/f5pvebkPe/Mh2YVHXyazNeng7Dt5Rtk++ubGfXl8eH9N5Nv16en2lsn+//a1Enx1eyUlfP4P);lineShape=1;" parent="1" vertex="1">
                    <mxGeometry x="229.34326275714392" y="47.47849892539955" width="5.498987884859201" height="12.750767362057196" as="geometry"/>
                </mxCell>
                <mxCell id="109" value="" style="shape=stencil(rVfLjtswDPwaXwlJpF7n7fY/FthsYzRNFtn09fel4cqJ6GTSAL05MUekyJmRPPDTx/blfTME93E6Hr5ufo6vp+3An4YQxv12cxxP+jTw88BPb4fj5svx8H3/Ov9+f5kip6dvhx/TCr9mnCRiP6GC+z3/wyTzH5/n+N24v4hPkaZ3F/FeqMbbgJzaeg2gGXy6DSi6nvQVearhNqC6VkADiKfoAEAo94DoyVUASJT6PSQH91AzxdIDCpUMAIW4dgDtW0KbruT6DIVhBu8cOdchtA8Otam0ChZAxIMQStwDMiUBoy4kJkOhCjZRHKXUAyplMLkc2pwWup77cJ3g2kZnU/wd5lVAVIJnu4kIaorK11WbPNCcZMtXHQRjQOjJUZkY9FV0i6avWEJRiPuSSqUCNp28HYQOPyOjqRRWACTSnKmERwAl2jncKakGyrLaNKDGZAPRtlWQ0eh6fYZpcMhoqvWNiRpI1InCmnwIoJIzGQrUQ1mo9o8CypGcOVLuaTRR9DYFsoFYVgpSo0GiDhQfsjLRpqzNkqFGvckgrQ//DVD7LuloKrKNYienhxAShAKM4atqHaCrAkJPJj1IkVfK4ozLUR3IobYy5b4kCXDSXKx9s0BB6G0k9VwKiRygxnSj6t3YKx1BSasEuXHrarizvFCJgwvZ6hogkKfe2jBDHbA1sEACCKGi6ovxMNyHZm4tXt0JdTK31+d4D+g2jYpNPDKioIeUt+uDZiq1jJkq/cG5zOqcYvoTkFy4HS/n9gekxwdv//fj9eH8qfE27nbzl8rle/tpon/NnzX8/Ac=);lineShape=1;" parent="1" vertex="1">
                    <mxGeometry x="244.29255941877437" y="49.66035389901822" width="0.8990517002020882" height="3.96298569248639" as="geometry"/>
                </mxCell>
                <mxCell id="110" value="" style="shape=stencil(fZbdcgIhDIWfZm8zQAg/17Z9j85U606tdqz9e/tmZ0c0uJ47xP0I5JwEBl59bp8/1kNwn6fj4W39M76ctgM/DCGM++36OJ50NPDjwKvN4bh+PR6+9i/z74/n6ctp9H74nlb4nbmSKZeJCu5vngmZ6jzzNAO7cX8FVKEsBuBKrgKg9oAE8gkCbLeUhEoEQKSUDZDLeWYRKIl8MEDRmHwfyBrBG6Amyu4+kDxxMoB3jhwgYu7TVAsVkFcWCs4CTBEoF4RctKeOxHIf8IXYpikHikAIf+MNUW94AGSSaoAoFIE3AlOyeWU+p2E5S9yfQZcQILVuQOwZdJNoS9Ls3wA5u2XZTIHECqeJ9kDpSaauRiNVcAY1QhdBzeLBli5WazpkSsBLV25uRaqWRyFawTQzRRIQYirJzq5atkBqLfouwqUxLBepthWb10vrWZY6UOAeyKCCtDV625mm9gmUC4Wc3VLJMMIE1BsA2FW9JraVlQB7n3c9oMKhCLEvIM1zBPZ25/umNQ1tVEC2G+fFCC8g398O2hNQuQlVu752DBfA+q0ptnqO5JFmeuIuo9DY7KjY71UxdJV4EntifPWorW++R/dC4t7V3DlIB5cHx2bc7eb3yvX//QNFp+bHDT/+Aw==);lineShape=1;" parent="1" vertex="1">
                    <mxGeometry x="244.27888813924886" y="45.93233215542273" width="0.5024236314101892" height="0.5016383028342588" as="geometry"/>
                </mxCell>
                <mxCell id="111" value="" style="shape=stencil(7VvJbhw3FPwaXQnuy9lJ/sOA5ViIYxmys/19ihHYatbrKcG3JPBNHrOmm3xbveKbu/Tmy4e3n+/vov/y9enxl/s/Ht59/XCXfriL8eHTh/unh6/46y79eJfevH98uv/56fG3T++e//357Vw5//r18ff5DX8+41JztU5U9H8dn7T2zyc/PQM+Pnw6A6obYQdEl4cAFDfKBojdVfWE5EbeAdF1LwDR1bQBwnAtCUBwcd9DqK7V2wC8MQOiCwpQXSaAd7EIQHbFb4DumlofXdkfALOF2+tDdyXS+i6+HweS9vXDxS7Ww2hkg+CGMBr+u+5WDsU18YTh0u6oMTgvjNxc2g8In2TxQsWVfQMpuyr8Oruwf3+OLon3T87v64t3IQoLuzT29U3GGdbvYVaTNEBc9j/Ww8IqjldaOBworTe8XF9dpPXdDbEeIUsBEFwX6+FxtGEAsnJRxCS9UXNRWAAxEyJvOaigGa7vPlSRXpWN8cZkBC9THaxG2bfElV5v5ZW4H2vOMswQB3F/JWT8qgCVTwmm9GrTyLUmvzcFaM73PVX01wCRAM0FFTuNgw3OUtSmmyuNASobzXRLBQEJR70SnM8zQGVgAHJkQBAl4aXCnAHK+YaxA14pS0AygKJOaZhKXhYZuAXoke2QBbkAgNgIXMMrNuKd9wxQlXY+YS9U8NYkQhRPiPumZ24W5AKARIAhLQ0AsRGQPGU4AOp+ShlBq4pDcGF/pXLwxFuAvgdQrcv2t0he30O0aV9C+aYA6sjeatOFKVLvMnvjEP1u6YEirJ4wmPOMvPLINcdAfaAnhMUTrwGRWQz24MUr5cT8v8eVqa4B2fVs7KB4Ulmec7L0EO4NVyu784H5dGGH3JZdD2/t0lsBYPc+YvAWYOx7SNqXsmkYJj9Xe4Br7N46i6JwjRI4Vb6UyWtAdJ4Ke5ABBADFw8wa4lgnFdkBcBavAGmFy4kTR+F8AFAVLUVm75K5PhSUSWG4CdjzUhn6lTJzPgCGskNmogvOpwoKAHmvojXIggJAGAzo6pUSx3SNslsFgPISAFkDvAUow8VFOk+ApNq3yA0rNq2Y8YwHA5B7CCaR+WX7myGaGaDq9NzDfkpF05+SmLdm3dbDNag+oMREZQew+90OqKsqVSK+uE9v8lhx6tShzK5InFI1ewhVA67UG9W6trjS1kn8EBWrGYmrSsdohuZm6aooySSuJJkxeuHePi2jXK/vzNPzCqbrVt1zJ111ax+MOORljgSP6qYPUH490qpMJydSfg0AbWHuQT+hGt2zaABVQ5RPCSisWIGcFRH9o3NFB9dSdBIASkgAKCl2oK/YTwnkLAjPBoBOCQCl4gDQbQZTso83DVnWegMeQYaYypsyxGB6iEwe9DHFzIChDdGMjKPKIQDcX0XZm4xmSHSU8icA3uxBJbFRuXPAscpNI0tT1jsscwvAaalribia6ta0f1dOlLPPFZl1GFUZAK+Pte+nNENObfrgp+eg1hHE8aBJAwDEJ7GHqjZtRBYcq0xMg9ulfGSemwDKM0Nbeqz7mpPzyQIxjJwe5B0R7ECJqejmHgAioDNE1bF+MyBeOJ8SWVB3qSqioqh2CYW97nZIXYqOACQCRNlqDH/RGCe1B7/e+NQYKy23H55zFuyEpbupiiEsKfUWvRp8V5fUAxLrdV1yk+65fxuLIl/TyWo24BfhusVvKdzmZYpi0IPNPO8HFamvTE2ilyW0Ji5w4KBK/5hNM9ErL29z0JiQ1VKV90Wlrbx7ih51Y4deqZosJhWWwlJx0Y3Af0bOUI36/0TOaAbwXc4ggDdqXZViNAB0hVV0n5gt0chaKh48ZjELnFJ+x7rWOxU4FXHZpJl5QapPiVzjlfIwNVKquUleVmbbY+kQBSCbRKbqQ+5sB+SlogFUUGqTvUA2ybhpuXveIuwAlG1VgcCao71rEQE0u/O9xqGdkL4UVgd2ALSulAanmVP3e42oKzMej9AFIhVzh1XkJpLJlWBo6piSuXfoWcp1qOM0HwCCIydfjJwGZ1L6Veyc+lDr1ezOvIynlqnpu/XG/Ul6ZXqncdsX9TjOpM3m1liJcN+HIhbg+1CEBfzbhiLmpmkPQ7KTaQe6d0hS+3lp2k4Rp0pQPESPU0w3ZYfK8ZCrHvkrPKdR9HxANDMO9ZVxsMj6bPN6uuuYRzvVXeXeL6NZR7qPspuenSQV6rpGJa8Bht73Qwi/BpgbJgBUIjOCQG9yIKeySt6LnnDg0dGuZRk76zvW1fz1hjnTtyJ5hueMBKdQirqJ/ppkr+7XrPSpD1AzJp4VnMkvxfcHo09qMTBxQzknyBWn56FLfKKCpppk16RANJgXBq2kz+Fz0ur1+rLuO44N6EnZzrnUr+mUW0mCblg0S4UBCq9XwufcHhUDneU638ckWTuSUTGrbBXgLkbQU3pbuhyOFwEGVk4kO+gInr/KoCd0eY2WDG3BIXcVA0aUnEOCKskdrfsBKLrFC3wDhV3JmanAI/XzhlU1YJ7VMHT/SoXJZg4SAClIeB5Kx0Grq5JkFIz5iQawKunlT1GSvcP1kvdji80AFI2fh2j2oPIjANTXzpdUe2ic4VOXFfDbf9b0OgB/vPyK6v3Dx4/PP8I6/z//6gofPf9iK/34Nw==);lineShape=1;" parent="1" vertex="1">
                    <mxGeometry x="255.0460296773208" y="49.00320479603806" width="13.272208605221747" height="6.808686628458133" as="geometry"/>
                </mxCell>
                <mxCell id="112" value="" style="shape=stencil(7VnLchw3DPyavbJIgs+z4/yHqyxHW1Ekl6wk9t+nma2ZXTZ32vEtB9/kNXsIgg2gAZ7s3ZfHD58fTtF/eXt9+f3h7/PHt8eT/XKK8fz8+PB6fsNfJ3t/snefXl4ffnt9+fP54+Xfnz+MleOvP17+Gl/4esHl5lIdqOi/XX6JybX27y+/XgBP5+cbQOrOlxlQXA4CkFzyM6C5Fo8B1lyPE8CiSyYA0RUC1O1UdwGw2MIESOaK2CF6V/sEyN4VfwwIxXmbAdW1LADRhdlLJW+/3AXASbNFNbhejtcX1+d7rs3FpNbneX0z6dPqKq2v0kOd7enetS49WuYDdxBVXbIxKwCoYgcz1wqbFASzrbuS5zNnV1Ts4Epnkyo+Ic6Q9v/eAXEj1l1ANmezScUkjXJxaQ4FfCKKQyNh1JmoiB1TO3QGwNFF3AMAfTYJKakrk7BDmwBhZ/sRIM5uDd6ZcmvjhJGdqQ0ynxkZTEQ/1pc0GySDeXy/03oVnLjlUGi9Vx4trs5E9Vsw3V+PfJtovWkSxUbrJUu7C53We7G+eA40rBf2l7B97sYe4U+sb7w+qe9HrrIoKCpZx+36r/cVRMggyCPzp6jvB2fz+i7TCvzJ/ASjBKEBqHP9Q8QkwYjh0ZkRhhKqdjBXZ5NSlTFclhgYLFQm9c2APZc2ecvIzTafodZtz/sAHHGmNYpsVoClaqLKVuGlVlyciYqalgWTUCMp0lp3WRy6L6kLAOWlXp1vyw6iavbGNQ2ArgDdWVwOLcIZACJfD7Km9d2AHRC3Ux0BSmBAE/ILh24EADWUSZXFCABd3XThIoi7j4JLQ2/5BSDYCgPSAlBpGD6JcTm0MilwxOETSiqACCw7o0xk2IGE/NhTcSlsFt+QT/UWMCA1BkgvGefWtrPrKETDEkCqoQI1iK0jRDX5+rKD6vF6X9zqtyg/AlC6HzcjAih4zzUdiO/YVBcyyRams8roWgojqH1lgOoKcRGVyJSkEPhhAApEojOALSKT1cpSBl4ycRHVOLmCGyrPVO8i8TvJLIDKbvNNw0iVXCGv2rwDKnsXgNFhUP/fZFBDEFMZhTpRigyKnqQA9E9UXZJxjA6FJS4uG08YrkOKIwCJyibFyc+m52fT879uemwZE7iq9H/ioqYnciXzKCV4mUoBoBnemFuovLWo+TEZ0QDOKiaHZjCJFFgy7SRj0iFtVLWD52RdTA6cEZaNZmAmeZHjNo/e85ZOFGntSNrWQdwH+I1oN3W8inuA10mBQTEpt17vdQeg5VAD57pR7Uo+nS5AzkaVv+mhFofnaP2El+JWLW6ltjizX6apTSq8Rd+heVbtiN+k1o1KUHPIyLqlBhnOma8MCUS2FixCRgES/glpa8T32OxygDE8NJ84BSk34yKkLEtBa5FTatxn4kcjc2p24Db5elQWUbHveZQuaFSLNB9Vma0sE0bd0XWcepcBUOqx8cPCMEnPp4tngBrCIKlS2gZAKmDPDwtwq3wOQuNsDFDRMwB00/a9kSHFQzTZ1gKwPl2qhDEeFhIDklZgsTBAPl386GvqfwDgj+vj7afz09Pl7ff2//mxFz9dHort/T8=);lineShape=1;" parent="1" vertex="1">
                    <mxGeometry x="269.7250892410104" y="46.60867513073265" width="4.495260127203006" height="8.378836947772323" as="geometry"/>
                </mxCell>
                <mxCell id="113" value="" style="shape=stencil(7VjLbhsxDPwaXwmJlCjpnKb/ESBOYzSNAyd9/X25dVWvKHvaoEBPudm7nBVfM6K0kavn+5un7YbD88th/3H7dXf7cr+Rdxvm3eP99rB7sV8bud7I1d3+sP1w2H9+vD3+f7pZLJdfn/Zfli98O+KiUMgLisP3X08o1J8P3h/tH3aPK3sOxHWwL1QSsK+kOn6/UIyXAZKJ4wDgRNouA5JFUAaACDW9DMiR8rhCSpTzZYAGim0A5EwZuKTVr6BKIpcBRWl5t86qUgRprUxlLFu1LBUAKFTTAGiWBlDo5fWY1mYuIUCiMnZGqySg0gao2QMUFM4AecxSaxQCAAjVCSAMADzF0GClLUupeEAFLtVGLXtAQ5WuvXN+EygEGHXVzpf1Eqg3MkWZggCFqNI5vwIo6A1rVw0ekEAhaqQy5TVigIyUs2YqyKVEPArT0i2g1JYlVznjVEBZUkpj0PYEUc6+l5MHRLRCI3Yu5U7zS+0qEwBSTkh5AiAGmQPiAQWIa7P9Q3zQAclG891qAEEcbb2uK0BFLhld3AqFBKXV6pA8AKmABe1dqn2POQ+wnLAHJMDppZmTByhyadJ7AyDps+ZL0woJFM5yonUKGgGMQNWnFY0CC0XVAxiphvHLBa1wnFkoP/USI5cs6xMfkN63cIZxBRWOu1b/PUXjzGnUfKXPIusYEEXrGU4zkplGhT0AubTaA1eljoAQr0csrHZbSurD8tsE9E8TkHrA2wT0/yeg0rzS2C6DtojllOKyFGFaSzyjNOh0qclvQrYmOppl9f2tWMBT9btWxuOGNL9r2WmxgRjEgh5JLQlWmsXLK2csZTbvjC7ZmRopfvFJqv0DZ81DP+edrgQKOLxOuhrhOBaIvTkS1eD1KMD6xr5XnswT4DFT8+YMQk1dO0/mqJ1tFi7eHPHLKyk2b71vV+Zwy+xduIoVJD5GUv99NHFGpuxzWUDqX3vz9Gd7+3G65rrbPTwcb8nW7/21mD06XqnJ9Q8=);lineShape=1;" parent="1" vertex="1">
                    <mxGeometry x="279.287598956775" y="43.48263433097566" width="2.299385609620013" height="10.782558999397283" as="geometry"/>
                </mxCell>
                <mxCell id="114" value="" style="shape=stencil(rVjLbhsxDPwaXwmJep/T9j8CJGmMpkmQpK+/72wNOSZ3PUaA3ta7GlMkZ0hKu3T1en/9fLvT8Pr28vTt9tf+5u1+lz7tVPeP97cv+zc87dLnXbq6e3q5/fry9OPx5vD7+XpZuTx9f/q5/MPvAy5XCXFBafhzeFMl938vvhzWP+wfT9cHCcmsj0GingcklaIWkCWV8wBtkoIFNA6IUqoBaJBCALFIGxaQZxS2AUF6toBGo9REm1mfgjRmAC5Yn1ORSgzAhV4soEuuJEhBqgXkKINY0CLFJhpUiY0kOki2US1wOhNAkWSpV5AYQqWFe46rUTQRQJ6fj4AqjQG6RJvoFmkeCj5bpxsENQggy7A+tDFTuQmowVOjl8mubQASZy30Pv9im6xRYjeAESQRHxrIb7c0kAcSpZ4kR29BidMdFmzi8CYQaiw7tjWgR6o47LhZC63MyrYNUF/4KjZJfABALTWQmUESB8Cw5KtZKtH0SJ5LNXFAkRg8IJDEjTqJcAQorRqjSc3eQmJO9yn5E6eVsHUMT2+ElbEVAB/WKp1xCQDLpdolMWoM34DqkMad7jYPLchgPrRZSU/qUmeZrr5qNKUSBTU0rgAsSmiZwW+JlUqw1VVvOM3KPfSQkg9r/qhEB4uSSrRNEdS4oOlqSyXIF1im05xETvQwmIXsGwoArMchcZ6typ3GcLKSaGTkA/u7B3SW6TGpdqJpuqXh5yvkgSkuhuDZh1T3/4pYVO0IXmdxOxenaqe+pQcxQJtxPwLqJZGGD3XqRULWwrtstxtv9y1l2SQDZE8/hIF1iB5mEzwCBs0Dou6m9ZNcbiNUWvUmCjEBETv+wWvGvzJ84YDQKxv7MAE5bvQ5dW0DwmqKy7RrZezY+oBIdxKlDBHbLSHSSnxIY1auk4qfiAUM+MP1dhwhSB1I0U9xGPAjmeJwWHXTQ0HjY6caKNIqqOi0uV032tzx8RgEmbNCo34CykUyqQJ9ZUCpgewl/X4s2ly/qns4kbMxNHl94iSYWQWQaJuuog2ziCbfTiLOJyRAcdVOIooOiZCW1R1FpJMGjq5Ozp2HaKW1TIUAqanNAc7KTMtpDnfv65kMcM4tza1nBTIXfz8R6KEV690IHehQn6u/OzheoJyrXY6jkY5h61qntJhivbuDUjpuL+vt/tPF2mvjmbmE4a/lW7kYTzdQ8fzW1azDL/UuXgLi4f0G8W7/8HC4gDz97m8c8epwW5k+/wU=);lineShape=1;" parent="1" vertex="1">
                    <mxGeometry x="280.80905749178424" y="45.36250097966513" width="6.927673316120011" height="5.908729888950635" as="geometry"/>
                </mxCell>
                <mxCell id="115" value="" style="shape=stencil(rVjZbhsxDPwavxKUqIvPafofAeLURt04cNzr78utsY7JzU5QoG/rNWfFY0iNtJG7193Dy3aT+fV8On7d/tw/nncb+bTJef+82572Z3vayP1G7p6Op+2X0/H78+Pl98vDZDk9fTv+mL7w64JLlMoEyvz78oJJ5O+Lzxfzw/75xlyoDmdeSHXdvNHwX09MmtbtlUr29pVkrNunTLU7gPnfCwA0kuQBjZTXAfa9yg4gAl3Klbj6FDGlDgBKKh7QqGVQA1vBF6Fm0roOKNeaXgGDFGSpVGp+hVaogDpXo1EAKHUQQ21xhV5gWluOQfdBFVCpdRLPvZFIwQo9U1YPsESDLPU2Z/0K6FTACuZA8mwdCoMe1l0eoGlm1/uAQRIAGfazfS/0gwoVsIL93X2WtOAVGqUUAagOqrEOWiGXDFAlAgZgqwG6p4Y5mRsEKEdAxytoiMGoAbj0DmDMk3kVkCNggEE2Be0byN4ImEtTWheAjgsXOm5yEgMSLwDIJQuxLVxC5BvU+iJolKWx4NLA5BtUegSgFp0AC2oIIp+5FADtI5d6jYCMg45jxhoIxWAtmiLggxYtbbECEgIa94e3ObIGGIugG+6HGHSnDGJIzMQcEVDNaNwg3mq5GkRgn+LKWZpqBDQ8yYLCmpzEcybs7Dd5+F+IStpinuCkkVkg3VYCAWznlQhAe7ttpDnUus4Dd22r7oFOhRoYTYMX/MMqzuRGD02XsD4xyeSzZFFVpLF6lK6mgKDGSnHSDFsTAEz2iU9r73DSVJPznhpdKAGCm3TNvtIWFRL4ovGMYlJTQAxSqHqXLKoMujprFGVFIZfsUFXCicBEGXApWQx+BbHhhwAm8H3QwvNe/D4g0fBNbUdBxNYRyZoGPNQ0Yr/JpYJPTbPYuTIP1mBxAhJ4TLRkaDAvwHmOzsvceWvmvi/zzKg1cw7mDDKz+HqCTc/xXJXgPstxuFuDAt5wPF4w1JwcZQLPc3vFvEkwR9OHZ8lxYw591xgqysw/3qR8aG4Pb5c2T/vD4XLnc/t/vOSxV5cLIrn/Aw==);lineShape=1;" vertex="1" parent="1">
                    <mxGeometry x="118.45347295964893" y="-55.43432645366079" width="80.73186272272324" height="28.78769468099904" as="geometry"/>
                </mxCell>
            </root>
        </mxGraphModel>
    </diagram>
</mxfile>